{
	"asset":{
		"generator":"Khronos glTF Blender I/O v4.2.57",
		"version":"2.0"
	},
	"scene":0,
	"scenes":[
		{
			"name":"Scene",
			"nodes":[
				0
			]
		}
	],
	"nodes":[
		{
			"mesh":0,
			"name":"Curve",
			"rotation":[
				0,
				0,
				-0.06158894672989845,
				0.9981017112731934
			],
			"translation":[
				0.002479076385498047,
				0.040175385773181915,
				0
			]
		}
	],
	"meshes":[
		{
			"name":"Cube.007",
			"primitives":[
				{
					"attributes":{
						"POSITION":0,
						"NORMAL":1,
						"TEXCOORD_0":2
					},
					"indices":3
				}
			]
		}
	],
	"accessors":[
		{
			"bufferView":0,
			"componentType":5126,
			"count":150,
			"max":[
				1.8016865253448486,
				2.612823009490967,
				-2.821692532961606e-07
			],
			"min":[
				-2.9847655296325684,
				-2.162055253982544,
				-0.7499792575836182
			],
			"type":"VEC3"
		},
		{
			"bufferView":1,
			"componentType":5126,
			"count":150,
			"type":"VEC3"
		},
		{
			"bufferView":2,
			"componentType":5126,
			"count":150,
			"type":"VEC2"
		},
		{
			"bufferView":3,
			"componentType":5123,
			"count":252,
			"type":"SCALAR"
		}
	],
	"bufferViews":[
		{
			"buffer":0,
			"byteLength":1800,
			"byteOffset":0,
			"target":34962
		},
		{
			"buffer":0,
			"byteLength":1800,
			"byteOffset":1800,
			"target":34962
		},
		{
			"buffer":0,
			"byteLength":1200,
			"byteOffset":3600,
			"target":34962
		},
		{
			"buffer":0,
			"byteLength":504,
			"byteOffset":4800,
			"target":34963
		}
	],
	"buffers":[
		{
			"byteLength":5304,
			"uri":"curve.bin"
		}
	]
}
