{
	"asset":{
		"generator":"Khronos glTF Blender I/O v4.2.57",
		"version":"2.0"
	},
	"scene":0,
	"scenes":[
		{
			"name":"Scene",
			"nodes":[
				0
			]
		}
	],
	"nodes":[
		{
			"mesh":0,
			"name":"Level001",
			"rotation":[
				0,
				0,
				-0.10470468550920486,
				0.994503378868103
			],
			"scale":[
				0.22207367420196533,
				9.923894882202148,
				1
			],
			"translation":[
				0,
				-10.704381942749023,
				0
			]
		}
	],
	"meshes":[
		{
			"name":"Cube.008",
			"primitives":[
				{
					"attributes":{
						"POSITION":0,
						"NORMAL":1,
						"TEXCOORD_0":2
					},
					"indices":3
				}
			]
		}
	],
	"accessors":[
		{
			"bufferView":0,
			"componentType":5126,
			"count":852,
			"max":[
				71.50640106201172,
				1.1852705478668213,
				1.0000025033950806
			],
			"min":[
				-63.67405700683594,
				-2.253979444503784,
				-1.0000019073486328
			],
			"type":"VEC3"
		},
		{
			"bufferView":1,
			"componentType":5126,
			"count":852,
			"type":"VEC3"
		},
		{
			"bufferView":2,
			"componentType":5126,
			"count":852,
			"type":"VEC2"
		},
		{
			"bufferView":3,
			"componentType":5123,
			"count":1284,
			"type":"SCALAR"
		}
	],
	"bufferViews":[
		{
			"buffer":0,
			"byteLength":10224,
			"byteOffset":0,
			"target":34962
		},
		{
			"buffer":0,
			"byteLength":10224,
			"byteOffset":10224,
			"target":34962
		},
		{
			"buffer":0,
			"byteLength":6816,
			"byteOffset":20448,
			"target":34962
		},
		{
			"buffer":0,
			"byteLength":2568,
			"byteOffset":27264,
			"target":34963
		}
	],
	"buffers":[
		{
			"byteLength":29832,
			"uri":"level001.bin"
		}
	]
}
