<?xml version="1.0" encoding="UTF-8" standalone="no"?>
<svg
   version="1.1"
   viewBox="0 0 131.37498 165.45135"
   id="svg13"
   sodipodi:docname="hololive.svg"
   width="131.37498"
   height="165.45135"
   inkscape:version="1.3.2 (091e20ef0f, 2023-11-25, custom)"
   xmlns:inkscape="http://www.inkscape.org/namespaces/inkscape"
   xmlns:sodipodi="http://sodipodi.sourceforge.net/DTD/sodipodi-0.dtd"
   xmlns="http://www.w3.org/2000/svg"
   xmlns:svg="http://www.w3.org/2000/svg"
   xmlns:rdf="http://www.w3.org/1999/02/22-rdf-syntax-ns#"
   xmlns:cc="http://creativecommons.org/ns#"
   xmlns:dc="http://purl.org/dc/elements/1.1/">
  <defs
     id="defs13" />
  <sodipodi:namedview
     id="namedview13"
     pagecolor="#ffffff"
     bordercolor="#000000"
     borderopacity="0.25"
     inkscape:showpageshadow="2"
     inkscape:pageopacity="0.0"
     inkscape:pagecheckerboard="0"
     inkscape:deskcolor="#d1d1d1"
     inkscape:zoom="1.6734694"
     inkscape:cx="202.57317"
     inkscape:cy="88.140244"
     inkscape:window-width="2560"
     inkscape:window-height="1391"
     inkscape:window-x="1080"
     inkscape:window-y="378"
     inkscape:window-maximized="1"
     inkscape:current-layer="svg13" />
  <metadata
     id="metadata1">
    <rdf:RDF>
      <cc:Work
         rdf:about="">
        <dc:format>image/svg+xml</dc:format>
        <dc:type
           rdf:resource="http://purl.org/dc/dcmitype/StillImage" />
        <dc:title>Hololive Production logo</dc:title>
      </cc:Work>
    </rdf:RDF>
  </metadata>
  <title
     id="title1">Hololive Production logo</title>
  <desc
     id="desc1">A virtual youtuber agency owned by Cover Corporation, with branches in English, Indonesian, and Japanese</desc>
  <g
     transform="translate(-14.106926,0.6916766)"
     id="g13">
    <g
       transform="translate(0,-574)"
       id="g12">
      <g
         transform="matrix(0.31,0,0,0.31,1799,678)"
         id="g11">
        <g
           transform="translate(-1440,-281)"
           id="g10">
          <g
             transform="matrix(0.9878,0,0,1,-55.04,-3.76)"
             id="g5"
             style="display:inline">
            <path
               transform="translate(1440,281)"
               d="m -5723,101 c -16.12,-5.5 -28.24,-18 -31.35,-33 -0.5448,-2.8 -0.9694,-16 -0.9493,-28 l 0.033,-23 1.813,5.3 c 4.136,12 15.12,23 27.24,27 7.17,2.7 19.23,3.6 25.24,2 4.136,-1 323.5,-151 347.5,-164 13.12,-6.5 19.43,-15.1 23.43,-25.1 1.512,-4.2 2.404,-3.13 2.103,22.1 -0.2323,25 -0.3635,27 -2.524,31 -3.535,7.6 -8.783,14 -15.12,18 -5.658,3.9 -342.5,164 -352.5,167 -6.66,2.4 -19.23,2.4 -26.24,0.072 z"
               style="fill:#f9f9f9;stroke-width:1.001"
               id="path1" />
            <path
               d="m -4284,336 c -14.17,-4.72 -25.22,-14.8 -29.24,-27.6 -2.02,-6.33 -2.02,-9 -2.02,-165 0,-103 0.3637,-160 1.005,-164 2.422,-12.9 11.16,-23.8 23.22,-28.7 5.558,-2.58 8.382,-3.18 15.18,-3.59 4.844,-0.218 10.05,0.127 12.16,0.805 3.738,1.08 343.7,153 355.8,158 15.18,7.68 24.22,25.7 19.2,41.5 -4.542,15.8 -11.16,20.8 -38.39,34.7 -88.84,41.7 -330.6,155 -333.7,156 -8.341,2.29 -20,-0.436 -23.22,-2.17 z"
               style="fill:#75e5ee;stroke-width:0.9995"
               id="path2" />
            <path
               d="m -4315,302.4 -0.2709,-141 c -0.1806,-92 0.081,-143 0.7435,-147 3.211,-17 17.06,-30 34.11,-33 4.626,-0.73 8.338,-0.72 12.04,0.039 4.214,0.77 54.28,23 176.6,79 94.42,43 176.6,75.9 180.6,77.9 6.833,3.2 20.07,14 20.07,17 0,0.88 -1.344,7.53 -4.565,10.6 -6.933,6.7 6.462,-0.148 -199.7,97.9 -88.4,42 -162.5,74 -165.6,75 -5.528,1.5 -17.17,-0.5443 -22.79,-2.818 -6.572,-2.12 -9.983,-3.91 -15.15,-7.8 -6.864,-4.55 -11.54,-12.43 -13.85,-18.1 -0.9884,-2.557 -1.267,-5.186 -2.319,-7.721 z"
               style="fill:#5edcee;stroke-width:1.002"
               id="path3" />
            <path
               d="m -4283,477 c -16.2,-5.4 -28.3,-17.7 -31.3,-32.4 -0.565,-2.94 -0.1466,-24.89 -0.1066,-53.39 -0.5399,-41.33 -0.1958,-46.2 0.8687,-43.97 4.74,14.7 19.93,26.67 37.03,28.57 14.1,2.06 4.44,5.99 187,-78.5 91.9,-42.2 172,-79.5 176,-82.4 11.1,-5.59 13.8,-12.7 21.9,-22.3 l 3.6,-6.19 0.965,51 c 0.966,51 -0.323,52 -2.52,55.9 -3.53,7.46 -8.78,13.7 -15.1,17.7 -5.65,3.83 -342,161 -352,164 -6.66,2.36 -19.2,2.36 -26.2,0.0707 z"
               style="fill:#26c5fd;stroke-width:0.995"
               id="path4" />
            <path
               d="m -4314,418.3 c 0.061,-20 -0.543,-23.3 0.678,-19.3 4.07,13 14.5,25.9 27.7,29.9 6.41,1.8 18.3,2.1 24.4,0.48 5.09,-1.4 349,-163 356,-167 8.24,-5.1 15.3,-14 18.3,-23 0.448,-1.4 0.712,9 0.59,23 -0.204,24 -0.346,26 -2.54,31 -3.87,9.5 -12.2,17 -25.4,24 -6.01,3 -86.5,41 -179,84 l -168,79 -9.67,0.31 c -7.33,0.24 -11.2,-0.12 -15.3,-1.5 -13.7,-7.74 -24.8,-18.8 -27.6,-31.2 -0.2976,-10.19 -0.1647,-20.8 -0.158,-29.69 z"
               style="fill:#4e9eed;stroke-width:1.01"
               id="path5" />
          </g>
        </g>
      </g>
    </g>
  </g>
</svg>
