# Created by Kenney (www.kenney.nl)

mtllib arrow-basic.mtl

g arrow-basic

v 0.2828427 0 0.2828427 1 1 1
v -1.299441E-14 0 1.299441E-14 1 1 1
v 0.1414214 0 0.4242641 1 1 1
v -0.2828427 0 3.753939E-14 1 1 1
v 0.1414214 0 -0.4242641 1 1 1
v 0.2828427 0 -0.2828427 1 1 1
v 0.2828427 0.2 -0.2828427 1 1 1
v -1.299441E-14 0.2 1.299441E-14 1 1 1
v 0.1414214 0.2 -0.4242641 1 1 1
v -0.2828427 0.2 3.753939E-14 1 1 1
v 0.1414214 0.2 0.4242641 1 1 1
v 0.2828427 0.2 0.2828427 1 1 1

vn 0 -1 0
vn 0 1 0
vn 0.7071068 0 0.7071068
vn -0.7071068 0 0.7071068
vn 0.7071068 0 -0.7071068
vn -0.7071068 0 -0.7071068

vt 0.21875 0.275
vt 0.21875 0.475

usemtl colormap

f 3/1/1 2/1/1 1/1/1
f 2/1/1 3/1/1 4/1/1
f 5/1/1 2/1/1 4/1/1
f 2/1/1 5/1/1 6/1/1
f 9/2/2 8/2/2 7/2/2
f 8/2/2 9/2/2 10/2/2
f 11/2/2 8/2/2 10/2/2
f 8/2/2 11/2/2 12/2/2
f 11/2/3 1/1/3 12/2/3
f 1/1/3 11/2/3 3/1/3
f 11/2/4 4/1/4 3/1/4
f 4/1/4 11/2/4 10/2/4
f 9/2/5 6/1/5 5/1/5
f 6/1/5 9/2/5 7/2/5
f 8/2/3 6/1/3 7/2/3
f 6/1/3 8/2/3 2/1/3
f 8/2/5 1/1/5 2/1/5
f 1/1/5 8/2/5 12/2/5
f 4/1/6 9/2/6 5/1/6
f 9/2/6 4/1/6 10/2/6

g arrow-basic




usemtl colormap

f 3/1/1 2/1/1 1/1/1
f 2/1/1 3/1/1 4/1/1
f 5/1/1 2/1/1 4/1/1
f 2/1/1 5/1/1 6/1/1
f 9/2/2 8/2/2 7/2/2
f 8/2/2 9/2/2 10/2/2
f 11/2/2 8/2/2 10/2/2
f 8/2/2 11/2/2 12/2/2
f 11/2/3 1/1/3 12/2/3
f 1/1/3 11/2/3 3/1/3
f 11/2/4 4/1/4 3/1/4
f 4/1/4 11/2/4 10/2/4
f 9/2/5 6/1/5 5/1/5
f 6/1/5 9/2/5 7/2/5
f 8/2/3 6/1/3 7/2/3
f 6/1/3 8/2/3 2/1/3
f 8/2/5 1/1/5 2/1/5
f 1/1/5 8/2/5 12/2/5
f 4/1/6 9/2/6 5/1/6
f 9/2/6 4/1/6 10/2/6

