# Created by Kenney (www.kenney.nl)

mtllib arrow.mtl

g arrow

v 0 8.014827E-32 0.346 1 1 1
v -0.4 8.014827E-32 0 1 1 1
v 0 0.2 0.346 1 1 1
v -0.4 0.2 0 1 1 1
v 0 0 0.2 1 1 1
v 0 0 -0.2 1 1 1
v 0 8.014827E-32 -0.346 1 1 1
v 0.4 0 -0.2 1 1 1
v 0.4 0 0.2 1 1 1
v 0.4 0.2 0.2 1 1 1
v 0 0.2 0.2 1 1 1
v 0 0.2 -0.346 1 1 1
v 0.4 0.2 -0.2 1 1 1
v 0 0.2 -0.2 1 1 1

vn 0.4158062 0 0.9094532
vn -1 0 0
vn 0 -1 0
vn 0.7071068 0 0.7071068
vn 0.4158062 0 -0.9094532
vn 0.7071068 0 -0.7071068
vn 0 1 0

vt 0.21875 0.275
vt 0.21875 0.475

usemtl colormap

f 3/2/1 2/1/2 1/1/1
f 2/1/2 3/2/1 4/2/2
f 2/1/3 5/1/3 1/1/3
f 5/1/3 2/1/3 6/1/3
f 6/1/3 2/1/3 7/1/3
f 8/1/3 5/1/3 6/1/3
f 5/1/3 8/1/3 9/1/3
f 10/2/4 5/1/4 9/1/4
f 5/1/4 10/2/4 11/2/4
f 4/2/2 7/1/5 2/1/2
f 7/1/5 4/2/2 12/2/5
f 3/2/1 5/1/4 11/2/4
f 5/1/4 3/2/1 1/1/1
f 10/2/4 8/1/6 13/2/6
f 8/1/6 10/2/4 9/1/4
f 14/2/6 7/1/5 12/2/5
f 7/1/5 14/2/6 6/1/6
f 4/2/7 14/2/7 12/2/7
f 14/2/7 4/2/7 11/2/7
f 11/2/7 4/2/7 3/2/7
f 10/2/7 14/2/7 11/2/7
f 14/2/7 10/2/7 13/2/7
f 14/2/6 8/1/6 6/1/6
f 8/1/6 14/2/6 13/2/6

g arrow




usemtl colormap

f 3/2/1 2/1/2 1/1/1
f 2/1/2 3/2/1 4/2/2
f 2/1/3 5/1/3 1/1/3
f 5/1/3 2/1/3 6/1/3
f 6/1/3 2/1/3 7/1/3
f 8/1/3 5/1/3 6/1/3
f 5/1/3 8/1/3 9/1/3
f 10/2/4 5/1/4 9/1/4
f 5/1/4 10/2/4 11/2/4
f 4/2/2 7/1/5 2/1/2
f 7/1/5 4/2/2 12/2/5
f 3/2/1 5/1/4 11/2/4
f 5/1/4 3/2/1 1/1/1
f 10/2/4 8/1/6 13/2/6
f 8/1/6 10/2/4 9/1/4
f 14/2/6 7/1/5 12/2/5
f 7/1/5 14/2/6 6/1/6
f 4/2/7 14/2/7 12/2/7
f 14/2/7 4/2/7 11/2/7
f 11/2/7 4/2/7 3/2/7
f 10/2/7 14/2/7 11/2/7
f 14/2/7 10/2/7 13/2/7
f 14/2/6 8/1/6 6/1/6
f 8/1/6 14/2/6 13/2/6

