# Created by Kenney (www.kenney.nl)

mtllib conveyor-stripe.mtl

g conveyor-stripe

v -0.4 0 0.5 1 1 1
v -0.5 0.1 0.5 1 1 1
v 0.4 1.173106E-15 0.5 1 1 1
v -0.3585787 0.1 0.5 1 1 1
v 0.5 0.1 0.5 1 1 1
v -0.4 0.1414214 0.5 1 1 1
v 0.3585787 0.1 0.5 1 1 1
v 0.4 0.1414214 0.5 1 1 1
v -0.5 0.3 0.5 1 1 1
v 0.5 0.3 0.5 1 1 1
v -0.4 0.2585786 0.5 1 1 1
v -0.3585787 0.3 0.5 1 1 1
v 0.4 0.2585786 0.5 1 1 1
v 0.3585787 0.3 0.5 1 1 1
v -0.4 0.4 0.5 1 1 1
v 0.4 0.4 0.5 1 1 1
v 0.4 0.4 0.3 1 1 1
v 0.5 0.3 0.3 1 1 1
v -0.4 0 -0.5 1 1 1
v 0.4 1.173106E-15 -0.5 1 1 1
v -0.5 0.1 -0.5 1 1 1
v -0.3585787 0.1 -0.5 1 1 1
v 0.5 0.1 -0.5 1 1 1
v -0.4 0.1414214 -0.5 1 1 1
v 0.3585787 0.1 -0.5 1 1 1
v 0.4 0.1414214 -0.5 1 1 1
v -0.5 0.3 -0.5 1 1 1
v 0.5 0.3 -0.5 1 1 1
v -0.4 0.2585786 -0.5 1 1 1
v -0.3585787 0.3 -0.5 1 1 1
v 0.4 0.2585786 -0.5 1 1 1
v 0.3585787 0.3 -0.5 1 1 1
v -0.4 0.4 -0.5 1 1 1
v 0.4 0.4 -0.5 1 1 1
v -0.4 0 -0.3 1 1 1
v -0.5 0.1 -0.3 1 1 1
v -0.5 0.3 -0.3 1 1 1
v -0.4 0.4 -0.3 1 1 1
v 0.5 0.1 -0.3 1 1 1
v 0.4 1.173106E-15 -0.3 1 1 1
v 0.5 0.1 0.3 1 1 1
v -0.4 0.4 0.3 1 1 1
v 0.4 1.173106E-15 0.3 1 1 1
v -0.4 0 0.3 1 1 1
v -0.5 0.1 0.3 1 1 1
v -0.5 0.3 0.3 1 1 1
v 0.5 0.3 -0.3 1 1 1
v 0.4 0.4 -0.3 1 1 1
v -0.3585787 0.1 -0.4 1 1 1
v 0.3585787 0.1 -0.4 1 1 1
v -0.4 0.1414214 -0.4 1 1 1
v 0.4 0.1414214 -0.4 1 1 1
v -0.4 0.2585786 -0.4 1 1 1
v 0.4 0.2585786 -0.4 1 1 1
v -0.3585787 0.3 -0.4 1 1 1
v 0.3585787 0.3 -0.4 1 1 1
v -0.3585787 0.1 0.4 1 1 1
v -0.4 0.1414214 0.4 1 1 1
v 0.3585787 0.1 0.4 1 1 1
v 0.4 0.1414214 0.4 1 1 1
v -0.4 0.2585786 0.4 1 1 1
v 0.4 0.2585786 0.4 1 1 1
v -0.3585787 0.3 0.4 1 1 1
v 0.3585787 0.3 0.4 1 1 1

vn 0 0 1
vn 0.3826834 0.9238795 0
vn 0.9238795 0.3826834 0
vn 0 0 -1
vn -0.3826834 -0.9238795 0
vn -0.9238795 -0.3826834 0
vn -0.9238795 0.3826834 0
vn -0.3826834 0.9238795 0
vn 0.9238795 -0.3826834 0
vn 0.3826834 -0.9238795 0

vt 0.09375 0.025
vt 0.09375 0.075
vt 0.09375 0.09571067
vt 0.09375 0.175
vt 0.09375 0.1542893
vt 0.09375 0.225
vt 0.21875 0.075
vt 0.21875 0.09571067
vt 0.21875 0.1542893
vt 0.21875 0.175
vt 0.21875 0.225
vt 0.21875 0.025

usemtl colormap

f 3/1/1 2/2/1 1/1/1
f 2/2/1 3/1/1 4/2/1
f 5/2/1 4/2/1 3/1/1
f 2/2/1 4/2/1 6/3/1
f 4/2/1 5/2/1 7/2/1
f 7/2/1 5/2/1 8/3/1
f 2/2/1 6/3/1 9/4/1
f 8/3/1 5/2/1 10/4/1
f 9/4/1 6/3/1 11/5/1
f 9/4/1 11/5/1 12/4/1
f 8/3/1 10/4/1 13/5/1
f 9/4/1 12/4/1 14/4/1
f 13/5/1 10/4/1 14/4/1
f 9/4/1 14/4/1 15/6/1
f 15/6/1 14/4/1 10/4/1
f 15/6/1 10/4/1 16/6/1
f 16/6/2 18/4/3 17/6/2
f 18/4/3 16/6/2 10/4/3
f 21/2/4 20/1/4 19/1/4
f 20/1/4 21/2/4 22/2/4
f 22/2/4 23/2/4 20/1/4
f 22/2/4 21/2/4 24/3/4
f 23/2/4 22/2/4 25/2/4
f 23/2/4 25/2/4 26/3/4
f 24/3/4 21/2/4 27/4/4
f 23/2/4 26/3/4 28/4/4
f 24/3/4 27/4/4 29/5/4
f 29/5/4 27/4/4 30/4/4
f 28/4/4 26/3/4 31/5/4
f 30/4/4 27/4/4 32/4/4
f 28/4/4 31/5/4 32/4/4
f 32/4/4 27/4/4 33/6/4
f 32/4/4 33/6/4 28/4/4
f 28/4/4 33/6/4 34/6/4
f 35/1/5 21/2/6 19/1/5
f 21/2/6 35/1/5 36/2/6
f 37/4/7 33/6/8 27/4/7
f 33/6/8 37/4/7 38/6/8
f 39/2/9 20/1/10 23/2/9
f 20/1/10 39/2/9 40/1/10
f 35/1/5 20/1/10 40/1/10
f 20/1/10 35/1/5 19/1/5
f 10/4/3 41/2/9 18/4/3
f 41/2/9 10/4/3 5/2/9
f 42/6/8 16/6/2 17/6/2
f 16/6/2 42/6/8 15/6/8
f 36/2/6 27/4/7 21/2/6
f 27/4/7 36/2/6 37/4/7
f 1/1/5 43/1/10 3/1/10
f 43/1/10 1/1/5 44/1/5
f 1/1/5 45/2/6 44/1/5
f 45/2/6 1/1/5 2/2/6
f 5/2/9 43/1/10 41/2/9
f 43/1/10 5/2/9 3/1/10
f 2/2/6 46/4/7 45/2/6
f 46/4/7 2/2/6 9/4/7
f 9/4/7 42/6/8 46/4/7
f 42/6/8 9/4/7 15/6/8
f 47/4/3 23/2/9 28/4/3
f 23/2/9 47/4/3 39/2/9
f 48/6/2 28/4/3 34/6/2
f 28/4/3 48/6/2 47/4/3
f 33/6/8 48/6/2 34/6/2
f 48/6/2 33/6/8 38/6/8
f 51/8/4 50/7/4 49/7/4
f 50/7/4 51/8/4 52/8/4
f 52/8/4 51/8/4 53/9/4
f 52/8/4 53/9/4 54/9/4
f 54/9/4 53/9/4 55/10/4
f 54/9/4 55/10/4 56/10/4
f 59/7/1 58/8/1 57/7/1
f 58/8/1 59/7/1 60/8/1
f 58/8/1 60/8/1 61/9/1
f 61/9/1 60/8/1 62/9/1
f 61/9/1 62/9/1 63/10/1
f 63/10/1 62/9/1 64/10/1
f 14/10/5 62/9/6 13/9/6
f 62/9/6 14/10/5 64/10/5
f 12/10/10 64/10/5 14/10/5
f 64/10/5 12/10/10 63/10/10
f 12/10/10 61/9/9 63/10/10
f 61/9/9 12/10/10 11/9/9
f 11/9/9 58/8/3 61/9/9
f 58/8/3 11/9/9 6/8/3
f 6/8/3 57/7/2 58/8/3
f 57/7/2 6/8/3 4/7/2
f 57/7/2 7/7/8 59/7/8
f 7/7/8 57/7/2 4/7/2
f 7/7/8 60/8/7 59/7/8
f 60/8/7 7/7/8 8/8/7
f 8/8/7 62/9/6 60/8/7
f 62/9/6 8/8/7 13/9/6
f 53/9/9 24/8/3 29/9/9
f 24/8/3 53/9/9 51/8/3
f 55/10/10 29/9/9 30/10/10
f 29/9/9 55/10/10 53/9/9
f 55/10/10 32/10/5 56/10/5
f 32/10/5 55/10/10 30/10/10
f 56/10/5 31/9/6 54/9/6
f 31/9/6 56/10/5 32/10/5
f 51/8/3 22/7/2 24/8/3
f 22/7/2 51/8/3 49/7/2
f 52/8/7 31/9/6 26/8/7
f 31/9/6 52/8/7 54/9/6
f 50/7/8 26/8/7 25/7/8
f 26/8/7 50/7/8 52/8/7
f 22/7/2 50/7/8 25/7/8
f 50/7/8 22/7/2 49/7/2
f 17/11/2 47/10/3 48/11/2
f 47/10/3 17/11/2 18/10/3
f 18/10/3 39/7/9 47/10/3
f 39/7/9 18/10/3 41/7/9
f 44/12/5 36/7/6 35/12/5
f 36/7/6 44/12/5 45/7/6
f 41/7/9 40/12/10 39/7/9
f 40/12/10 41/7/9 43/12/10
f 45/7/6 37/10/7 36/7/6
f 37/10/7 45/7/6 46/10/7
f 38/11/8 17/11/2 48/11/2
f 17/11/2 38/11/8 42/11/8
f 44/12/5 40/12/10 43/12/10
f 40/12/10 44/12/5 35/12/5
f 46/10/7 38/11/8 37/10/7
f 38/11/8 46/10/7 42/11/8

g conveyor-stripe




usemtl colormap

f 3/1/1 2/2/1 1/1/1
f 2/2/1 3/1/1 4/2/1
f 5/2/1 4/2/1 3/1/1
f 2/2/1 4/2/1 6/3/1
f 4/2/1 5/2/1 7/2/1
f 7/2/1 5/2/1 8/3/1
f 2/2/1 6/3/1 9/4/1
f 8/3/1 5/2/1 10/4/1
f 9/4/1 6/3/1 11/5/1
f 9/4/1 11/5/1 12/4/1
f 8/3/1 10/4/1 13/5/1
f 9/4/1 12/4/1 14/4/1
f 13/5/1 10/4/1 14/4/1
f 9/4/1 14/4/1 15/6/1
f 15/6/1 14/4/1 10/4/1
f 15/6/1 10/4/1 16/6/1
f 16/6/2 18/4/3 17/6/2
f 18/4/3 16/6/2 10/4/3
f 21/2/4 20/1/4 19/1/4
f 20/1/4 21/2/4 22/2/4
f 22/2/4 23/2/4 20/1/4
f 22/2/4 21/2/4 24/3/4
f 23/2/4 22/2/4 25/2/4
f 23/2/4 25/2/4 26/3/4
f 24/3/4 21/2/4 27/4/4
f 23/2/4 26/3/4 28/4/4
f 24/3/4 27/4/4 29/5/4
f 29/5/4 27/4/4 30/4/4
f 28/4/4 26/3/4 31/5/4
f 30/4/4 27/4/4 32/4/4
f 28/4/4 31/5/4 32/4/4
f 32/4/4 27/4/4 33/6/4
f 32/4/4 33/6/4 28/4/4
f 28/4/4 33/6/4 34/6/4
f 35/1/5 21/2/6 19/1/5
f 21/2/6 35/1/5 36/2/6
f 37/4/7 33/6/8 27/4/7
f 33/6/8 37/4/7 38/6/8
f 39/2/9 20/1/10 23/2/9
f 20/1/10 39/2/9 40/1/10
f 35/1/5 20/1/10 40/1/10
f 20/1/10 35/1/5 19/1/5
f 10/4/3 41/2/9 18/4/3
f 41/2/9 10/4/3 5/2/9
f 42/6/8 16/6/2 17/6/2
f 16/6/2 42/6/8 15/6/8
f 36/2/6 27/4/7 21/2/6
f 27/4/7 36/2/6 37/4/7
f 1/1/5 43/1/10 3/1/10
f 43/1/10 1/1/5 44/1/5
f 1/1/5 45/2/6 44/1/5
f 45/2/6 1/1/5 2/2/6
f 5/2/9 43/1/10 41/2/9
f 43/1/10 5/2/9 3/1/10
f 2/2/6 46/4/7 45/2/6
f 46/4/7 2/2/6 9/4/7
f 9/4/7 42/6/8 46/4/7
f 42/6/8 9/4/7 15/6/8
f 47/4/3 23/2/9 28/4/3
f 23/2/9 47/4/3 39/2/9
f 48/6/2 28/4/3 34/6/2
f 28/4/3 48/6/2 47/4/3
f 33/6/8 48/6/2 34/6/2
f 48/6/2 33/6/8 38/6/8
f 51/8/4 50/7/4 49/7/4
f 50/7/4 51/8/4 52/8/4
f 52/8/4 51/8/4 53/9/4
f 52/8/4 53/9/4 54/9/4
f 54/9/4 53/9/4 55/10/4
f 54/9/4 55/10/4 56/10/4
f 59/7/1 58/8/1 57/7/1
f 58/8/1 59/7/1 60/8/1
f 58/8/1 60/8/1 61/9/1
f 61/9/1 60/8/1 62/9/1
f 61/9/1 62/9/1 63/10/1
f 63/10/1 62/9/1 64/10/1
f 14/10/5 62/9/6 13/9/6
f 62/9/6 14/10/5 64/10/5
f 12/10/10 64/10/5 14/10/5
f 64/10/5 12/10/10 63/10/10
f 12/10/10 61/9/9 63/10/10
f 61/9/9 12/10/10 11/9/9
f 11/9/9 58/8/3 61/9/9
f 58/8/3 11/9/9 6/8/3
f 6/8/3 57/7/2 58/8/3
f 57/7/2 6/8/3 4/7/2
f 57/7/2 7/7/8 59/7/8
f 7/7/8 57/7/2 4/7/2
f 7/7/8 60/8/7 59/7/8
f 60/8/7 7/7/8 8/8/7
f 8/8/7 62/9/6 60/8/7
f 62/9/6 8/8/7 13/9/6
f 53/9/9 24/8/3 29/9/9
f 24/8/3 53/9/9 51/8/3
f 55/10/10 29/9/9 30/10/10
f 29/9/9 55/10/10 53/9/9
f 55/10/10 32/10/5 56/10/5
f 32/10/5 55/10/10 30/10/10
f 56/10/5 31/9/6 54/9/6
f 31/9/6 56/10/5 32/10/5
f 51/8/3 22/7/2 24/8/3
f 22/7/2 51/8/3 49/7/2
f 52/8/7 31/9/6 26/8/7
f 31/9/6 52/8/7 54/9/6
f 50/7/8 26/8/7 25/7/8
f 26/8/7 50/7/8 52/8/7
f 22/7/2 50/7/8 25/7/8
f 50/7/8 22/7/2 49/7/2
f 17/11/2 47/10/3 48/11/2
f 47/10/3 17/11/2 18/10/3
f 18/10/3 39/7/9 47/10/3
f 39/7/9 18/10/3 41/7/9
f 44/12/5 36/7/6 35/12/5
f 36/7/6 44/12/5 45/7/6
f 41/7/9 40/12/10 39/7/9
f 40/12/10 41/7/9 43/12/10
f 45/7/6 37/10/7 36/7/6
f 37/10/7 45/7/6 46/10/7
f 38/11/8 17/11/2 48/11/2
f 17/11/2 38/11/8 42/11/8
f 44/12/5 40/12/10 43/12/10
f 40/12/10 44/12/5 35/12/5
f 46/10/7 38/11/8 37/10/7
f 38/11/8 46/10/7 42/11/8

