# Created by Kenney (www.kenney.nl)

mtllib conveyor-bars-stripe-side.mtl

g Group

v 0.5 0.2 -0.45 1 1 1
v 0.5 0.2 -0.4 1 1 1
v -0.5 0.2 -0.45 1 1 1
v -0.5 0.2 -0.4 1 1 1
v 0.5 5.86553E-16 0.5 1 1 1
v 0.5 5.86553E-16 0.4 1 1 1
v -0.5 5.86553E-16 0.5 1 1 1
v -0.5 5.86553E-16 0.4 1 1 1
v -0.5 0.2 0.4 1 1 1
v 0.5 0.2 0.4 1 1 1
v 0.5 0.15 0.5 1 1 1
v -0.5 0.15 0.5 1 1 1
v 0.5 0 -0.4 1 1 1
v 0.5 0 -0.5 1 1 1
v -0.5 0 -0.4 1 1 1
v -0.5 0 -0.5 1 1 1
v 0.5 0.15 -0.5 1 1 1
v -0.5 0.15 -0.5 1 1 1
v 0.5 0.2 0.45 1 1 1
v -0.5 0.2 0.45 1 1 1

vn 0 0.9238795 -0.3826834
vn 0 1 0
vn 0 -1 0
vn 0 0 -1
vn 0 0 1
vn 0 0.3826834 0.9238795
vn 1 0 0
vn -1 0 0
vn 0 0.9238795 0.3826834
vn 0 0.3826834 -0.9238795

vt 0.34375 0.225
vt 0.34375 0.025
vt 0.34375 0.175

usemtl colormap

f 3/1/1 2/1/2 1/1/1
f 2/1/2 3/1/1 4/1/2
f 7/2/3 6/2/3 5/2/3
f 6/2/3 7/2/3 8/2/3
f 9/1/4 6/2/4 8/2/4
f 6/2/4 9/1/4 10/1/4
f 11/3/6 7/2/5 5/2/5
f 7/2/5 11/3/6 12/3/6
f 15/2/3 14/2/3 13/2/3
f 14/2/3 15/2/3 16/2/3
f 1/1/7 14/2/7 17/3/7
f 14/2/7 1/1/7 13/2/7
f 13/2/7 1/1/7 2/1/7
f 15/2/8 18/3/8 16/2/8
f 18/3/8 15/2/8 3/1/8
f 3/1/8 15/2/8 4/1/8
f 10/1/2 20/1/9 19/1/9
f 20/1/9 10/1/2 9/1/2
f 3/1/1 17/3/10 18/3/10
f 17/3/10 3/1/1 1/1/1
f 19/1/9 12/3/6 11/3/6
f 12/3/6 19/1/9 20/1/9
f 18/3/10 14/2/4 16/2/4
f 14/2/4 18/3/10 17/3/10
f 7/2/8 9/1/8 8/2/8
f 9/1/8 7/2/8 20/1/8
f 20/1/8 7/2/8 12/3/8
f 19/1/7 6/2/7 10/1/7
f 6/2/7 19/1/7 5/2/7
f 5/2/7 19/1/7 11/3/7
f 2/1/5 15/2/5 13/2/5
f 15/2/5 2/1/5 4/1/5

g Group

v -0.0625 0.3 -0.4 1 1 1
v -0.0625 0.3 -0.2 1 1 1
v -0.1875 0.3 -0.4 1 1 1
v -0.1875 0.3 -0.2 1 1 1
v 0 0.1125 -0.2 1 1 1
v 0 0.1125 -0.4 1 1 1
v -0.0625 0.05 -0.2 1 1 1
v -0.0625 0.05 -0.4 1 1 1
v -0.0625 0.05 0.4 1 1 1
v -0.1875 0.05 0.4 1 1 1
v 0 0.1125 0.4 1 1 1
v -0.0625 0.1125 0.4 1 1 1
v -0.1875 0.1125 0.4 1 1 1
v -0.25 0.1125 0.4 1 1 1
v -0.0625 0.2375 0.4 1 1 1
v -0.1875 0.2375 0.4 1 1 1
v -0.0625 0.3 0.4 1 1 1
v -0.25 0.2375 0.4 1 1 1
v -0.1875 0.3 0.4 1 1 1
v 0 0.2375 0.4 1 1 1
v -0.3125 0.2375 0.4 1 1 1
v -0.3125 0.3 0.4 1 1 1
v -0.3125 0.1125 0.4 1 1 1
v -0.4375 0.2375 0.4 1 1 1
v -0.4375 0.05 0.4 1 1 1
v -0.3125 0.05 0.4 1 1 1
v -0.4375 0.1125 0.4 1 1 1
v -0.5 0.1125 0.4 1 1 1
v -0.5 0.2375 0.4 1 1 1
v -0.4375 0.3 0.4 1 1 1
v 0.0625 0.2375 0.4 1 1 1
v 0.0625 0.1125 0.4 1 1 1
v 0.0625 0.05 0.4 1 1 1
v 0.1875 0.1125 0.4 1 1 1
v 0.1875 0.3 0.4 1 1 1
v 0.0625 0.3 0.4 1 1 1
v 0.1875 0.2375 0.4 1 1 1
v 0.25 0.2375 0.4 1 1 1
v 0.25 0.1125 0.4 1 1 1
v 0.1875 0.05 0.4 1 1 1
v 0.3125 0.2375 0.4 1 1 1
v 0.3125 0.1125 0.4 1 1 1
v 0.3125 0.05 0.4 1 1 1
v 0.4375 0.1125 0.4 1 1 1
v 0.4375 0.3 0.4 1 1 1
v 0.3125 0.3 0.4 1 1 1
v 0.4375 0.2375 0.4 1 1 1
v 0.5 0.2375 0.4 1 1 1
v 0.5 0.1125 0.4 1 1 1
v 0.4375 0.05 0.4 1 1 1
v 0 0.2375 0.2 1 1 1
v -0.0625 0.3 0.2 1 1 1
v 0.0625 0.05 0.2 1 1 1
v 0 0.1125 0.2 1 1 1
v -0.4375 0.05 0.2 1 1 1
v -0.5 0.1125 0.2 1 1 1
v -0.25 0.2375 0.2 1 1 1
v -0.1875 0.3 0.2 1 1 1
v 0.5 0.1125 -0.2 1 1 1
v 0.5 0.1125 -0.4 1 1 1
v 0.4375 0.05 -0.2 1 1 1
v 0.4375 0.05 -0.4 1 1 1
v -0.3125 0.3 0.2 1 1 1
v 0.25 0.1125 -0.2 1 1 1
v 0.25 0.1125 -0.4 1 1 1
v 0.1875 0.05 -0.2 1 1 1
v 0.1875 0.05 -0.4 1 1 1
v -0.3125 0.05 -0.2 1 1 1
v -0.3125 0.05 -0.4 1 1 1
v -0.4375 0.05 -0.2 1 1 1
v -0.4375 0.05 -0.4 1 1 1
v -0.1875 0.05 -0.2 1 1 1
v -0.1875 0.05 -0.4 1 1 1
v -0.1875 0.05 0.2 1 1 1
v -0.25 0.1125 0.2 1 1 1
v 0.0625 0.05 -0.2 1 1 1
v 0.0625 0.05 -0.4 1 1 1
v -0.25 0.1125 -0.2 1 1 1
v -0.25 0.1125 -0.4 1 1 1
v 0.0625 0.3 0.2 1 1 1
v -0.5 0.2375 0.2 1 1 1
v 0.25 0.2375 0.2 1 1 1
v 0.1875 0.3 0.2 1 1 1
v -0.4375 0.3 0.2 1 1 1
v 0.1875 0.3 -0.4 1 1 1
v 0.1875 0.3 -0.2 1 1 1
v 0.0625 0.3 -0.4 1 1 1
v 0.0625 0.3 -0.2 1 1 1
v -0.3125 0.3 -0.4 1 1 1
v -0.3125 0.3 -0.2 1 1 1
v -0.4375 0.3 -0.4 1 1 1
v -0.4375 0.3 -0.2 1 1 1
v 0.3125 0.05 -0.2 1 1 1
v 0.3125 0.05 -0.4 1 1 1
v 0.4375 0.3 -0.4 1 1 1
v 0.4375 0.3 -0.2 1 1 1
v 0.3125 0.3 -0.4 1 1 1
v 0.3125 0.3 -0.2 1 1 1
v 0.3125 0.3 0.2 1 1 1
v 0.5 0.2375 0.2 1 1 1
v 0.5 0.1125 0.2 1 1 1
v 0.4375 0.3 0.2 1 1 1
v 0.3125 0.05 0.2 1 1 1
v 0.25 0.1125 0.2 1 1 1
v -0.5 0.1125 -0.4 1 1 1
v -0.4375 0.1125 -0.4 1 1 1
v -0.3125 0.1125 -0.4 1 1 1
v -0.4375 0.2375 -0.4 1 1 1
v -0.5 0.2375 -0.4 1 1 1
v -0.3125 0.2375 -0.4 1 1 1
v -0.25 0.2375 -0.4 1 1 1
v -0.1875 0.2375 -0.4 1 1 1
v -0.1875 0.1125 -0.4 1 1 1
v -0.0625 0.2375 -0.4 1 1 1
v -0.0625 0.1125 -0.4 1 1 1
v 0 0.2375 -0.4 1 1 1
v 0.0625 0.2375 -0.4 1 1 1
v 0.0625 0.1125 -0.4 1 1 1
v 0.1875 0.2375 -0.4 1 1 1
v 0.1875 0.1125 -0.4 1 1 1
v 0.25 0.2375 -0.4 1 1 1
v 0.3125 0.2375 -0.4 1 1 1
v 0.3125 0.1125 -0.4 1 1 1
v 0.4375 0.2375 -0.4 1 1 1
v 0.4375 0.1125 -0.4 1 1 1
v 0.5 0.2375 -0.4 1 1 1
v -0.5 0.2375 -0.2 1 1 1
v -0.25 0.2375 -0.2 1 1 1
v -0.5 0.1125 -0.2 1 1 1
v 0 0.2375 -0.2 1 1 1
v 0.5 0.2375 -0.2 1 1 1
v 0.25 0.2375 -0.2 1 1 1
v -0.3125 0.05 0.2 1 1 1
v 0.4375 0.05 0.2 1 1 1
v 0.1875 0.05 0.2 1 1 1
v -0.0625 0.05 0.2 1 1 1

vn 0.3826834 0.9238795 0
vn -0.3826834 0.9238795 0
vn 0.7071068 -0.7071068 0
vn 0.3826834 -0.9238795 0
vn 0.7071068 0.7071068 0
vn -0.3826834 -0.9238795 0
vn -0.7071068 -0.7071068 0
vn -0.9238795 -0.3826834 0
vn -0.7071068 0.7071068 0
vn 0.9238795 -0.3826834 0
vn -0.9238795 0.3826834 0
vn 0.9238795 0.3826834 0

vt 0.21875 0.225
vt 0.21875 0.075
vt 0.21875 0.025
vt 0.21875 0.175
vt 0.34375 0.075
vt 0.09375 0.025
vt 0.09375 0.225

usemtl colormap

f 23/4/12 22/4/11 21/4/11
f 22/4/11 23/4/12 24/4/12
f 27/6/14 26/5/13 25/5/13
f 26/5/13 27/6/14 28/6/14
f 31/5/5 30/6/5 29/6/5
f 30/6/5 31/5/5 32/5/5
f 33/5/5 30/6/5 32/5/5
f 30/6/5 33/5/5 34/5/5
f 32/5/5 31/5/5 35/7/5
f 34/5/5 33/5/5 36/7/5
f 35/7/5 37/4/5 36/7/5
f 36/7/5 37/4/5 38/7/5
f 34/5/5 36/7/5 38/7/5
f 38/7/5 37/4/5 39/4/5
f 35/7/5 40/7/5 37/4/5
f 35/7/5 31/5/5 40/7/5
f 41/7/5 34/5/5 38/7/5
f 41/7/5 38/7/5 42/4/5
f 43/5/5 34/5/5 41/7/5
f 41/7/5 42/4/5 44/7/5
f 45/6/5 34/5/5 43/5/5
f 34/5/5 45/6/5 46/6/5
f 47/5/5 45/6/5 43/5/5
f 45/6/5 47/5/5 48/5/5
f 48/5/5 47/5/5 44/7/5
f 48/5/5 44/7/5 49/7/5
f 44/7/5 42/4/5 49/7/5
f 49/7/5 42/4/5 50/4/5
f 31/5/5 51/7/5 40/7/5
f 31/5/5 52/5/5 51/7/5
f 53/6/5 52/5/5 31/5/5
f 52/5/5 53/6/5 54/5/5
f 51/7/5 55/4/5 40/7/5
f 40/7/5 55/4/5 56/4/5
f 57/7/5 55/4/5 51/7/5
f 57/7/5 58/7/5 55/4/5
f 53/6/5 59/5/5 54/5/5
f 54/5/5 59/5/5 57/7/5
f 57/7/5 59/5/5 58/7/5
f 59/5/5 53/6/5 60/6/5
f 59/5/5 61/7/5 58/7/5
f 59/5/5 62/5/5 61/7/5
f 63/6/5 62/5/5 59/5/5
f 62/5/5 63/6/5 64/5/5
f 61/7/5 65/4/5 58/7/5
f 58/7/5 65/4/5 66/4/5
f 67/7/5 65/4/5 61/7/5
f 67/7/5 68/7/5 65/4/5
f 67/7/5 69/5/5 68/7/5
f 64/5/5 69/5/5 67/7/5
f 63/6/5 69/5/5 64/5/5
f 69/5/5 63/6/5 70/6/5
f 72/4/11 40/7/15 71/7/15
f 40/7/15 72/4/11 37/4/11
f 31/5/17 73/6/16 53/6/16
f 73/6/16 31/5/17 74/5/17
f 48/5/18 75/6/16 45/6/16
f 75/6/16 48/5/18 76/5/18
f 38/7/19 78/4/12 77/7/19
f 78/4/12 38/7/19 39/4/12
f 81/6/14 80/5/20 79/5/20
f 80/5/20 81/6/14 82/6/14
f 83/4/11 38/7/15 77/7/15
f 38/7/15 83/4/11 42/4/11
f 86/6/14 85/5/13 84/5/13
f 85/5/13 86/6/14 87/6/14
f 90/6/16 89/6/14 88/6/14
f 89/6/14 90/6/16 91/6/16
f 92/6/16 28/6/14 27/6/14
f 28/6/14 92/6/16 93/6/16
f 30/6/16 95/5/17 94/6/16
f 95/5/17 30/6/16 34/5/17
f 96/6/16 87/6/14 86/6/14
f 87/6/14 96/6/16 97/6/16
f 88/6/14 99/5/13 98/5/13
f 99/5/13 88/6/14 89/6/14
f 71/7/19 56/4/12 100/4/12
f 56/4/12 71/7/19 40/7/19
f 48/5/18 101/7/21 76/5/18
f 101/7/21 48/5/18 49/7/21
f 103/4/11 58/7/15 102/7/15
f 58/7/15 103/4/11 55/4/11
f 101/7/21 50/4/12 104/4/12
f 50/4/12 101/7/21 49/7/21
f 107/4/12 106/4/11 105/4/11
f 106/4/11 107/4/12 108/4/12
f 111/4/12 110/4/11 109/4/11
f 110/4/11 111/4/12 112/4/12
f 113/6/16 82/6/14 81/6/14
f 82/6/14 113/6/16 114/6/16
f 117/4/12 116/4/11 115/4/11
f 116/4/11 117/4/12 118/4/12
f 102/7/19 66/4/12 119/4/12
f 66/4/12 102/7/19 58/7/19
f 68/7/22 121/5/20 120/7/22
f 121/5/20 68/7/22 69/5/20
f 122/4/11 68/7/22 120/7/22
f 68/7/22 122/4/11 65/4/11
f 59/5/17 123/6/16 63/6/16
f 123/6/16 59/5/17 124/5/17
f 125/5/4 89/6/4 91/6/4
f 89/6/4 125/5/4 126/5/4
f 89/6/4 126/5/4 127/5/4
f 126/5/4 125/5/4 128/7/4
f 128/7/4 125/5/4 129/7/4
f 127/5/4 99/5/4 89/6/4
f 128/7/4 129/7/4 111/4/4
f 128/7/4 111/4/4 130/7/4
f 99/5/4 127/5/4 130/7/4
f 130/7/4 111/4/4 131/7/4
f 99/5/4 130/7/4 131/7/4
f 131/7/4 111/4/4 109/4/4
f 132/7/4 99/5/4 131/7/4
f 132/7/4 131/7/4 23/4/4
f 133/5/4 99/5/4 132/7/4
f 132/7/4 23/4/4 134/7/4
f 28/6/4 99/5/4 133/5/4
f 99/5/4 28/6/4 93/6/4
f 28/6/4 133/5/4 135/5/4
f 135/5/4 26/5/4 28/6/4
f 26/5/4 135/5/4 134/7/4
f 134/7/4 23/4/4 136/7/4
f 26/5/4 134/7/4 136/7/4
f 136/7/4 23/4/4 21/4/4
f 137/7/4 26/5/4 136/7/4
f 137/7/4 136/7/4 107/4/4
f 138/5/4 26/5/4 137/7/4
f 137/7/4 107/4/4 139/7/4
f 87/6/4 26/5/4 138/5/4
f 26/5/4 87/6/4 97/6/4
f 87/6/4 138/5/4 140/5/4
f 140/5/4 85/5/4 87/6/4
f 85/5/4 140/5/4 139/7/4
f 139/7/4 107/4/4 141/7/4
f 85/5/4 139/7/4 141/7/4
f 141/7/4 107/4/4 105/4/4
f 142/7/4 85/5/4 141/7/4
f 142/7/4 141/7/4 117/4/4
f 143/5/4 85/5/4 142/7/4
f 142/7/4 117/4/4 144/7/4
f 82/6/4 85/5/4 143/5/4
f 85/5/4 82/6/4 114/6/4
f 82/6/4 143/5/4 145/5/4
f 145/5/4 80/5/4 82/6/4
f 80/5/4 145/5/4 144/7/4
f 80/5/4 144/7/4 146/7/4
f 144/7/4 117/4/4 146/7/4
f 146/7/4 117/4/4 115/4/4
f 129/7/21 112/4/12 111/4/12
f 112/4/12 129/7/21 147/7/21
f 109/4/11 148/7/15 131/7/15
f 148/7/15 109/4/11 110/4/11
f 149/5/18 91/6/16 90/6/16
f 91/6/16 149/5/18 125/5/18
f 21/4/11 150/7/15 136/7/15
f 150/7/15 21/4/11 22/4/11
f 151/7/22 80/5/20 146/7/22
f 80/5/20 151/7/22 79/5/20
f 115/4/11 151/7/22 146/7/22
f 151/7/22 115/4/11 116/4/11
f 84/5/17 114/6/16 113/6/16
f 114/6/16 84/5/17 85/5/17
f 25/5/17 97/6/16 96/6/16
f 97/6/16 25/5/17 26/5/17
f 148/7/19 23/4/12 131/7/19
f 23/4/12 148/7/19 24/4/12
f 92/6/16 99/5/17 93/6/16
f 99/5/17 92/6/16 98/5/17
f 149/5/18 129/7/21 125/5/18
f 129/7/21 149/5/18 147/7/21
f 141/7/19 118/4/12 117/4/12
f 118/4/12 141/7/19 152/7/19
f 136/7/19 108/4/12 107/4/12
f 108/4/12 136/7/19 150/7/19
f 105/4/11 152/7/15 141/7/15
f 152/7/15 105/4/11 106/4/11
f 78/4/12 37/4/11 72/4/11
f 37/4/11 78/4/12 39/4/12
f 45/6/16 153/6/14 46/6/14
f 153/6/14 45/6/16 75/6/16
f 100/4/12 55/4/11 103/4/11
f 55/4/11 100/4/12 56/4/12
f 63/6/16 154/6/14 70/6/14
f 154/6/14 63/6/16 123/6/16
f 60/6/14 124/5/13 59/5/13
f 124/5/13 60/6/14 155/6/14
f 70/6/14 121/5/20 69/5/20
f 121/5/20 70/6/14 154/6/14
f 119/4/12 65/4/11 122/4/11
f 65/4/11 119/4/12 66/4/12
f 104/4/12 42/4/11 83/4/11
f 42/4/11 104/4/12 50/4/12
f 53/6/16 155/6/14 60/6/14
f 155/6/14 53/6/16 73/6/16
f 46/6/14 95/5/13 34/5/13
f 95/5/13 46/6/14 153/6/14
f 30/6/16 156/6/14 29/6/14
f 156/6/14 30/6/16 94/6/16
f 29/6/14 74/5/13 31/5/13
f 74/5/13 29/6/14 156/6/14
f 76/8/18 147/3/21 149/8/18
f 147/3/21 76/8/18 101/3/21
f 73/2/16 86/2/14 155/2/14
f 86/2/14 73/2/16 96/2/16
f 112/1/12 83/1/11 110/1/11
f 83/1/11 112/1/12 104/1/12
f 22/1/11 71/3/15 150/3/15
f 71/3/15 22/1/11 72/1/11
f 123/2/16 81/2/14 154/2/14
f 81/2/14 123/2/16 113/2/16
f 75/2/16 88/2/14 153/2/14
f 88/2/14 75/2/16 90/2/16
f 153/2/14 98/8/13 95/8/13
f 98/8/13 153/2/14 88/2/14
f 94/2/16 27/2/14 156/2/14
f 27/2/14 94/2/16 92/2/16
f 156/2/14 25/8/13 74/8/13
f 25/8/13 156/2/14 27/2/14
f 155/2/14 84/8/13 124/8/13
f 84/8/13 155/2/14 86/2/14
f 24/1/12 72/1/11 22/1/11
f 72/1/11 24/1/12 78/1/12
f 154/2/14 79/8/20 121/8/20
f 79/8/20 154/2/14 81/2/14
f 108/1/12 103/1/11 106/1/11
f 103/1/11 108/1/12 100/1/12
f 118/1/12 122/1/11 116/1/11
f 122/1/11 118/1/12 119/1/12
f 152/3/19 119/1/12 118/1/12
f 119/1/12 152/3/19 102/3/19
f 124/8/17 113/2/16 123/2/16
f 113/2/16 124/8/17 84/8/17
f 110/1/11 77/3/15 148/3/15
f 77/3/15 110/1/11 83/1/11
f 116/1/11 120/3/22 151/3/22
f 120/3/22 116/1/11 122/1/11
f 77/3/19 24/1/12 148/3/19
f 24/1/12 77/3/19 78/1/12
f 147/3/21 104/1/12 112/1/12
f 104/1/12 147/3/21 101/3/21
f 76/8/18 90/2/16 75/2/16
f 90/2/16 76/8/18 149/8/18
f 120/3/22 79/8/20 151/3/22
f 79/8/20 120/3/22 121/8/20
f 106/1/11 102/3/15 152/3/15
f 102/3/15 106/1/11 103/1/11
f 150/3/19 100/1/12 108/1/12
f 100/1/12 150/3/19 71/3/19
f 74/8/17 96/2/16 73/2/16
f 96/2/16 74/8/17 25/8/17
f 94/2/16 98/8/17 92/2/16
f 98/8/17 94/2/16 95/8/17
f 143/9/4 144/10/4 145/9/4
f 144/10/4 143/9/4 142/10/4
f 67/10/5 62/9/5 64/9/5
f 62/9/5 67/10/5 61/10/5
f 138/9/4 139/10/4 140/9/4
f 139/10/4 138/9/4 137/10/4
f 126/9/4 130/10/4 127/9/4
f 130/10/4 126/9/4 128/10/4
f 35/10/5 33/9/5 32/9/5
f 33/9/5 35/10/5 36/10/5
f 133/9/4 134/10/4 135/9/4
f 134/10/4 133/9/4 132/10/4
f 41/10/5 47/9/5 43/9/5
f 47/9/5 41/10/5 44/10/5
f 57/10/5 52/9/5 54/9/5
f 52/9/5 57/10/5 51/10/5

