# Created by Kenney (www.kenney.nl)

mtllib conveyor-bars.mtl

g conveyor-bars

v -0.4375 0 -0.5 1 1 1
v -0.3125 0 -0.5 1 1 1
v -0.5 0.0625 -0.5 1 1 1
v -0.3125 0.0625 -0.5 1 1 1
v -0.25 0.0625 -0.5 1 1 1
v -0.4375 0.0625 -0.5 1 1 1
v -0.4375 0.1875 -0.5 1 1 1
v -0.5 0.1875 -0.5 1 1 1
v -0.4375 0.25 -0.5 1 1 1
v -0.3125 0.1875 -0.5 1 1 1
v -0.25 0.1875 -0.5 1 1 1
v -0.3125 0.25 -0.5 1 1 1
v -0.1875 0.1875 -0.5 1 1 1
v -0.1875 0.25 -0.5 1 1 1
v -0.0625 0.1875 -0.5 1 1 1
v -0.0625 0.25 -0.5 1 1 1
v -0.1875 0.0625 -0.5 1 1 1
v 0 0.1875 -0.5 1 1 1
v 0 0.0625 -0.5 1 1 1
v -0.0625 0.0625 -0.5 1 1 1
v -0.0625 0 -0.5 1 1 1
v -0.1875 0 -0.5 1 1 1
v 0.0625 0.1875 -0.5 1 1 1
v 0.0625 0.25 -0.5 1 1 1
v 0.0625 0.0625 -0.5 1 1 1
v 0.1875 0.1875 -0.5 1 1 1
v 0.1875 0.0625 -0.5 1 1 1
v 0.25 0.0625 -0.5 1 1 1
v 0.1875 0 -0.5 1 1 1
v 0.0625 0 -0.5 1 1 1
v 0.25 0.1875 -0.5 1 1 1
v 0.1875 0.25 -0.5 1 1 1
v 0.3125 0.1875 -0.5 1 1 1
v 0.3125 0.25 -0.5 1 1 1
v 0.3125 0.0625 -0.5 1 1 1
v 0.4375 0.1875 -0.5 1 1 1
v 0.4375 0.0625 -0.5 1 1 1
v 0.5 0.1875 -0.5 1 1 1
v 0.4375 0.25 -0.5 1 1 1
v 0.5 0.0625 -0.5 1 1 1
v 0.4375 0 -0.5 1 1 1
v 0.3125 0 -0.5 1 1 1
v -0.0625 0.25 0.5 1 1 1
v -0.1875 0.25 0.5 1 1 1
v 0 0.0625 0.5 1 1 1
v -0.0625 0 0.5 1 1 1
v -0.1875 0 0.5 1 1 1
v -0.0625 0.0625 0.5 1 1 1
v -0.1875 0.0625 0.5 1 1 1
v -0.25 0.0625 0.5 1 1 1
v -0.0625 0.1875 0.5 1 1 1
v -0.1875 0.1875 0.5 1 1 1
v -0.25 0.1875 0.5 1 1 1
v 0 0.1875 0.5 1 1 1
v -0.3125 0.1875 0.5 1 1 1
v -0.3125 0.25 0.5 1 1 1
v -0.4375 0.1875 0.5 1 1 1
v -0.4375 0.25 0.5 1 1 1
v -0.5 0.1875 0.5 1 1 1
v -0.5 0.0625 0.5 1 1 1
v -0.4375 0.0625 0.5 1 1 1
v -0.3125 0.0625 0.5 1 1 1
v -0.4375 0 0.5 1 1 1
v -0.3125 0 0.5 1 1 1
v 0.0625 0.1875 0.5 1 1 1
v 0.0625 0.25 0.5 1 1 1
v 0.1875 0.25 0.5 1 1 1
v 0.0625 0.0625 0.5 1 1 1
v 0.1875 0.1875 0.5 1 1 1
v 0.1875 0.0625 0.5 1 1 1
v 0.25 0.0625 0.5 1 1 1
v 0.0625 0 0.5 1 1 1
v 0.1875 0 0.5 1 1 1
v 0.25 0.1875 0.5 1 1 1
v 0.3125 0.1875 0.5 1 1 1
v 0.3125 0.0625 0.5 1 1 1
v 0.4375 0.0625 0.5 1 1 1
v 0.3125 0 0.5 1 1 1
v 0.4375 0.25 0.5 1 1 1
v 0.3125 0.25 0.5 1 1 1
v 0.4375 0.1875 0.5 1 1 1
v 0.5 0.1875 0.5 1 1 1
v 0.5 0.0625 0.5 1 1 1
v 0.4375 0 0.5 1 1 1

vn 0 0 -1
vn 0.3826834 0.9238795 0
vn -0.3826834 0.9238795 0
vn 0.7071068 -0.7071068 0
vn 0.3826834 -0.9238795 0
vn 0 0 1
vn 0.7071068 0.7071068 0
vn -0.3826834 -0.9238795 0
vn -0.7071068 -0.7071068 0
vn -0.9238795 -0.3826834 0
vn -0.7071068 0.7071068 0
vn 0.9238795 -0.3826834 0
vn -0.9238795 0.3826834 0
vn 0.9238795 0.3826834 0

vt 0.21875 0.025
vt 0.21875 0.075
vt 0.21875 0.175
vt 0.21875 0.225
vt 0.09375 0.025
vt 0.09375 0.225

usemtl colormap

f 3/2/1 2/1/1 1/1/1
f 2/1/1 3/2/1 4/2/1
f 4/2/1 5/2/1 2/1/1
f 4/2/1 3/2/1 6/2/1
f 6/2/1 3/2/1 7/3/1
f 7/3/1 3/2/1 8/3/1
f 7/3/1 8/3/1 9/4/1
f 7/3/1 9/4/1 10/3/1
f 5/2/1 4/2/1 10/3/1
f 10/3/1 9/4/1 11/3/1
f 5/2/1 10/3/1 11/3/1
f 11/3/1 9/4/1 12/4/1
f 13/3/1 5/2/1 11/3/1
f 13/3/1 11/3/1 14/4/1
f 13/3/1 14/4/1 15/3/1
f 16/4/1 15/3/1 14/4/1
f 17/2/1 5/2/1 13/3/1
f 18/3/1 15/3/1 16/4/1
f 19/2/1 15/3/1 18/3/1
f 19/2/1 20/2/1 15/3/1
f 21/1/1 5/2/1 17/2/1
f 21/1/1 17/2/1 20/2/1
f 20/2/1 19/2/1 21/1/1
f 5/2/1 21/1/1 22/1/1
f 23/3/1 19/2/1 18/3/1
f 23/3/1 18/3/1 24/4/1
f 25/2/1 19/2/1 23/3/1
f 23/3/1 24/4/1 26/3/1
f 27/2/1 19/2/1 25/2/1
f 28/2/1 27/2/1 26/3/1
f 29/1/1 19/2/1 27/2/1
f 27/2/1 28/2/1 29/1/1
f 19/2/1 29/1/1 30/1/1
f 26/3/1 24/4/1 31/3/1
f 28/2/1 26/3/1 31/3/1
f 31/3/1 24/4/1 32/4/1
f 33/3/1 28/2/1 31/3/1
f 33/3/1 31/3/1 34/4/1
f 35/2/1 28/2/1 33/3/1
f 33/3/1 34/4/1 36/3/1
f 37/2/1 28/2/1 35/2/1
f 36/3/1 34/4/1 38/3/1
f 38/3/1 34/4/1 39/4/1
f 40/2/1 36/3/1 38/3/1
f 40/2/1 37/2/1 36/3/1
f 37/2/1 40/2/1 41/1/1
f 41/1/1 28/2/1 37/2/1
f 28/2/1 41/1/1 42/1/1
f 14/4/3 43/4/2 16/4/2
f 43/4/2 14/4/3 44/4/3
f 46/1/5 19/2/4 45/2/4
f 19/2/4 46/1/5 21/1/5
f 45/2/6 47/1/6 46/1/6
f 47/1/6 45/2/6 48/2/6
f 49/2/6 47/1/6 48/2/6
f 47/1/6 49/2/6 50/2/6
f 48/2/6 45/2/6 51/3/6
f 50/2/6 49/2/6 52/3/6
f 51/3/6 43/4/6 52/3/6
f 52/3/6 43/4/6 53/3/6
f 50/2/6 52/3/6 53/3/6
f 53/3/6 43/4/6 44/4/6
f 51/3/6 54/3/6 43/4/6
f 51/3/6 45/2/6 54/3/6
f 55/3/6 50/2/6 53/3/6
f 55/3/6 53/3/6 56/4/6
f 55/3/6 56/4/6 57/3/6
f 58/4/6 57/3/6 56/4/6
f 59/3/6 57/3/6 58/4/6
f 60/2/6 57/3/6 59/3/6
f 60/2/6 61/2/6 57/3/6
f 60/2/6 62/2/6 61/2/6
f 62/2/6 50/2/6 55/3/6
f 62/2/6 60/2/6 63/1/6
f 63/1/6 50/2/6 62/2/6
f 50/2/6 63/1/6 64/1/6
f 45/2/6 65/3/6 54/3/6
f 54/3/6 65/3/6 66/4/6
f 66/4/6 65/3/6 67/4/6
f 45/2/6 68/2/6 65/3/6
f 69/3/6 67/4/6 65/3/6
f 45/2/6 70/2/6 68/2/6
f 70/2/6 71/2/6 69/3/6
f 70/2/6 45/2/6 72/1/6
f 72/1/6 71/2/6 70/2/6
f 71/2/6 72/1/6 73/1/6
f 69/3/6 74/3/6 67/4/6
f 69/3/6 71/2/6 74/3/6
f 71/2/6 75/3/6 74/3/6
f 71/2/6 76/2/6 75/3/6
f 71/2/6 77/2/6 76/2/6
f 77/2/6 71/2/6 78/1/6
f 75/3/6 79/4/6 74/3/6
f 74/3/6 79/4/6 80/4/6
f 81/3/6 79/4/6 75/3/6
f 81/3/6 82/3/6 79/4/6
f 81/3/6 83/2/6 82/3/6
f 77/2/6 83/2/6 81/3/6
f 78/1/6 83/2/6 77/2/6
f 83/2/6 78/1/6 84/1/6
f 43/4/2 18/3/7 16/4/2
f 18/3/7 43/4/2 54/3/7
f 72/1/8 19/2/9 30/1/8
f 19/2/9 72/1/8 45/2/9
f 63/1/8 3/2/10 1/1/8
f 3/2/10 63/1/8 60/2/10
f 53/3/11 14/4/3 11/3/11
f 14/4/3 53/3/11 44/4/3
f 83/2/12 41/1/5 40/2/12
f 41/1/5 83/2/12 84/1/5
f 56/4/2 11/3/7 12/4/2
f 11/3/7 56/4/2 53/3/7
f 73/1/5 28/2/4 71/2/4
f 28/2/4 73/1/5 29/1/5
f 63/1/8 2/1/5 64/1/5
f 2/1/5 63/1/8 1/1/8
f 47/1/8 21/1/5 46/1/5
f 21/1/5 47/1/8 22/1/8
f 50/2/9 22/1/8 47/1/8
f 22/1/8 50/2/9 5/2/9
f 72/1/8 29/1/5 73/1/5
f 29/1/5 72/1/8 30/1/8
f 64/1/5 5/2/4 50/2/4
f 5/2/4 64/1/5 2/1/5
f 54/3/11 24/4/3 18/3/11
f 24/4/3 54/3/11 66/4/3
f 60/2/10 8/3/13 3/2/10
f 8/3/13 60/2/10 59/3/13
f 67/4/2 31/3/7 32/4/2
f 31/3/7 67/4/2 74/3/7
f 59/3/13 9/4/3 8/3/13
f 9/4/3 59/3/13 58/4/3
f 24/4/3 67/4/2 32/4/2
f 67/4/2 24/4/3 66/4/3
f 9/4/3 56/4/2 12/4/2
f 56/4/2 9/4/3 58/4/3
f 78/1/8 41/1/5 84/1/5
f 41/1/5 78/1/8 42/1/8
f 34/4/3 79/4/2 39/4/2
f 79/4/2 34/4/3 80/4/3
f 31/3/11 80/4/3 34/4/3
f 80/4/3 31/3/11 74/3/11
f 82/3/14 40/2/12 38/3/14
f 40/2/12 82/3/14 83/2/12
f 79/4/2 38/3/14 39/4/2
f 38/3/14 79/4/2 82/3/14
f 71/2/9 42/1/8 78/1/8
f 42/1/8 71/2/9 28/2/9
f 35/5/1 36/6/1 37/5/1
f 36/6/1 35/5/1 33/6/1
f 55/6/6 61/5/6 62/5/6
f 61/5/6 55/6/6 57/6/6
f 17/5/1 15/6/1 20/5/1
f 15/6/1 17/5/1 13/6/1
f 81/6/6 76/5/6 77/5/6
f 76/5/6 81/6/6 75/6/6
f 51/6/6 49/5/6 48/5/6
f 49/5/6 51/6/6 52/6/6
f 69/6/6 68/5/6 70/5/6
f 68/5/6 69/6/6 65/6/6
f 25/5/1 26/6/1 27/5/1
f 26/6/1 25/5/1 23/6/1
f 6/5/1 10/6/1 4/5/1
f 10/6/1 6/5/1 7/6/1

g conveyor-bars




usemtl colormap

f 3/2/1 2/1/1 1/1/1
f 2/1/1 3/2/1 4/2/1
f 4/2/1 5/2/1 2/1/1
f 4/2/1 3/2/1 6/2/1
f 6/2/1 3/2/1 7/3/1
f 7/3/1 3/2/1 8/3/1
f 7/3/1 8/3/1 9/4/1
f 7/3/1 9/4/1 10/3/1
f 5/2/1 4/2/1 10/3/1
f 10/3/1 9/4/1 11/3/1
f 5/2/1 10/3/1 11/3/1
f 11/3/1 9/4/1 12/4/1
f 13/3/1 5/2/1 11/3/1
f 13/3/1 11/3/1 14/4/1
f 13/3/1 14/4/1 15/3/1
f 16/4/1 15/3/1 14/4/1
f 17/2/1 5/2/1 13/3/1
f 18/3/1 15/3/1 16/4/1
f 19/2/1 15/3/1 18/3/1
f 19/2/1 20/2/1 15/3/1
f 21/1/1 5/2/1 17/2/1
f 21/1/1 17/2/1 20/2/1
f 20/2/1 19/2/1 21/1/1
f 5/2/1 21/1/1 22/1/1
f 23/3/1 19/2/1 18/3/1
f 23/3/1 18/3/1 24/4/1
f 25/2/1 19/2/1 23/3/1
f 23/3/1 24/4/1 26/3/1
f 27/2/1 19/2/1 25/2/1
f 28/2/1 27/2/1 26/3/1
f 29/1/1 19/2/1 27/2/1
f 27/2/1 28/2/1 29/1/1
f 19/2/1 29/1/1 30/1/1
f 26/3/1 24/4/1 31/3/1
f 28/2/1 26/3/1 31/3/1
f 31/3/1 24/4/1 32/4/1
f 33/3/1 28/2/1 31/3/1
f 33/3/1 31/3/1 34/4/1
f 35/2/1 28/2/1 33/3/1
f 33/3/1 34/4/1 36/3/1
f 37/2/1 28/2/1 35/2/1
f 36/3/1 34/4/1 38/3/1
f 38/3/1 34/4/1 39/4/1
f 40/2/1 36/3/1 38/3/1
f 40/2/1 37/2/1 36/3/1
f 37/2/1 40/2/1 41/1/1
f 41/1/1 28/2/1 37/2/1
f 28/2/1 41/1/1 42/1/1
f 14/4/3 43/4/2 16/4/2
f 43/4/2 14/4/3 44/4/3
f 46/1/5 19/2/4 45/2/4
f 19/2/4 46/1/5 21/1/5
f 45/2/6 47/1/6 46/1/6
f 47/1/6 45/2/6 48/2/6
f 49/2/6 47/1/6 48/2/6
f 47/1/6 49/2/6 50/2/6
f 48/2/6 45/2/6 51/3/6
f 50/2/6 49/2/6 52/3/6
f 51/3/6 43/4/6 52/3/6
f 52/3/6 43/4/6 53/3/6
f 50/2/6 52/3/6 53/3/6
f 53/3/6 43/4/6 44/4/6
f 51/3/6 54/3/6 43/4/6
f 51/3/6 45/2/6 54/3/6
f 55/3/6 50/2/6 53/3/6
f 55/3/6 53/3/6 56/4/6
f 55/3/6 56/4/6 57/3/6
f 58/4/6 57/3/6 56/4/6
f 59/3/6 57/3/6 58/4/6
f 60/2/6 57/3/6 59/3/6
f 60/2/6 61/2/6 57/3/6
f 60/2/6 62/2/6 61/2/6
f 62/2/6 50/2/6 55/3/6
f 62/2/6 60/2/6 63/1/6
f 63/1/6 50/2/6 62/2/6
f 50/2/6 63/1/6 64/1/6
f 45/2/6 65/3/6 54/3/6
f 54/3/6 65/3/6 66/4/6
f 66/4/6 65/3/6 67/4/6
f 45/2/6 68/2/6 65/3/6
f 69/3/6 67/4/6 65/3/6
f 45/2/6 70/2/6 68/2/6
f 70/2/6 71/2/6 69/3/6
f 70/2/6 45/2/6 72/1/6
f 72/1/6 71/2/6 70/2/6
f 71/2/6 72/1/6 73/1/6
f 69/3/6 74/3/6 67/4/6
f 69/3/6 71/2/6 74/3/6
f 71/2/6 75/3/6 74/3/6
f 71/2/6 76/2/6 75/3/6
f 71/2/6 77/2/6 76/2/6
f 77/2/6 71/2/6 78/1/6
f 75/3/6 79/4/6 74/3/6
f 74/3/6 79/4/6 80/4/6
f 81/3/6 79/4/6 75/3/6
f 81/3/6 82/3/6 79/4/6
f 81/3/6 83/2/6 82/3/6
f 77/2/6 83/2/6 81/3/6
f 78/1/6 83/2/6 77/2/6
f 83/2/6 78/1/6 84/1/6
f 43/4/2 18/3/7 16/4/2
f 18/3/7 43/4/2 54/3/7
f 72/1/8 19/2/9 30/1/8
f 19/2/9 72/1/8 45/2/9
f 63/1/8 3/2/10 1/1/8
f 3/2/10 63/1/8 60/2/10
f 53/3/11 14/4/3 11/3/11
f 14/4/3 53/3/11 44/4/3
f 83/2/12 41/1/5 40/2/12
f 41/1/5 83/2/12 84/1/5
f 56/4/2 11/3/7 12/4/2
f 11/3/7 56/4/2 53/3/7
f 73/1/5 28/2/4 71/2/4
f 28/2/4 73/1/5 29/1/5
f 63/1/8 2/1/5 64/1/5
f 2/1/5 63/1/8 1/1/8
f 47/1/8 21/1/5 46/1/5
f 21/1/5 47/1/8 22/1/8
f 50/2/9 22/1/8 47/1/8
f 22/1/8 50/2/9 5/2/9
f 72/1/8 29/1/5 73/1/5
f 29/1/5 72/1/8 30/1/8
f 64/1/5 5/2/4 50/2/4
f 5/2/4 64/1/5 2/1/5
f 54/3/11 24/4/3 18/3/11
f 24/4/3 54/3/11 66/4/3
f 60/2/10 8/3/13 3/2/10
f 8/3/13 60/2/10 59/3/13
f 67/4/2 31/3/7 32/4/2
f 31/3/7 67/4/2 74/3/7
f 59/3/13 9/4/3 8/3/13
f 9/4/3 59/3/13 58/4/3
f 24/4/3 67/4/2 32/4/2
f 67/4/2 24/4/3 66/4/3
f 9/4/3 56/4/2 12/4/2
f 56/4/2 9/4/3 58/4/3
f 78/1/8 41/1/5 84/1/5
f 41/1/5 78/1/8 42/1/8
f 34/4/3 79/4/2 39/4/2
f 79/4/2 34/4/3 80/4/3
f 31/3/11 80/4/3 34/4/3
f 80/4/3 31/3/11 74/3/11
f 82/3/14 40/2/12 38/3/14
f 40/2/12 82/3/14 83/2/12
f 79/4/2 38/3/14 39/4/2
f 38/3/14 79/4/2 82/3/14
f 71/2/9 42/1/8 78/1/8
f 42/1/8 71/2/9 28/2/9
f 35/5/1 36/6/1 37/5/1
f 36/6/1 35/5/1 33/6/1
f 55/6/6 61/5/6 62/5/6
f 61/5/6 55/6/6 57/6/6
f 17/5/1 15/6/1 20/5/1
f 15/6/1 17/5/1 13/6/1
f 81/6/6 76/5/6 77/5/6
f 76/5/6 81/6/6 75/6/6
f 51/6/6 49/5/6 48/5/6
f 49/5/6 51/6/6 52/6/6
f 69/6/6 68/5/6 70/5/6
f 68/5/6 69/6/6 65/6/6
f 25/5/1 26/6/1 27/5/1
f 26/6/1 25/5/1 23/6/1
f 6/5/1 10/6/1 4/5/1
f 10/6/1 6/5/1 7/6/1

