# Created by Kenney (www.kenney.nl)

mtllib conveyor-bars-stripe.mtl

g conveyor-bars-stripe

v -0.0625 0.25 -0.5 1 1 1
v -0.0625 0.25 -0.3 1 1 1
v -0.1875 0.25 -0.5 1 1 1
v -0.1875 0.25 -0.3 1 1 1
v 0 0.0625 -0.3 1 1 1
v 0 0.0625 -0.5 1 1 1
v -0.0625 -3.205931E-31 -0.3 1 1 1
v -0.0625 0 -0.5 1 1 1
v -0.0625 0 0.5 1 1 1
v -0.1875 0 0.5 1 1 1
v 0 0.0625 0.5 1 1 1
v -0.0625 0.0625 0.5 1 1 1
v -0.25 0.0625 0.5 1 1 1
v -0.1875 0.0625 0.5 1 1 1
v -0.0625 0.1875 0.5 1 1 1
v -0.1875 0.1875 0.5 1 1 1
v -0.0625 0.25 0.5 1 1 1
v -0.25 0.1875 0.5 1 1 1
v -0.1875 0.25 0.5 1 1 1
v 0 0.1875 0.5 1 1 1
v -0.3125 0.1875 0.5 1 1 1
v -0.3125 0.25 0.5 1 1 1
v -0.4375 0.1875 0.5 1 1 1
v -0.4375 0.25 0.5 1 1 1
v -0.5 0.1875 0.5 1 1 1
v -0.5 0.0625 0.5 1 1 1
v -0.4375 0.0625 0.5 1 1 1
v -0.3125 0.0625 0.5 1 1 1
v -0.4375 0 0.5 1 1 1
v -0.3125 0 0.5 1 1 1
v 0.0625 0.1875 0.5 1 1 1
v 0.0625 0.25 0.5 1 1 1
v 0.1875 0.25 0.5 1 1 1
v 0.0625 0.0625 0.5 1 1 1
v 0.1875 0.1875 0.5 1 1 1
v 0.1875 0.0625 0.5 1 1 1
v 0.25 0.0625 0.5 1 1 1
v 0.0625 0 0.5 1 1 1
v 0.1875 0 0.5 1 1 1
v 0.25 0.1875 0.5 1 1 1
v 0.3125 0.1875 0.5 1 1 1
v 0.3125 0.0625 0.5 1 1 1
v 0.4375 0.0625 0.5 1 1 1
v 0.3125 0 0.5 1 1 1
v 0.4375 0.25 0.5 1 1 1
v 0.3125 0.25 0.5 1 1 1
v 0.4375 0.1875 0.5 1 1 1
v 0.5 0.1875 0.5 1 1 1
v 0.5 0.0625 0.5 1 1 1
v 0.4375 0 0.5 1 1 1
v 0 0.1875 0.3 1 1 1
v -0.0625 0.25 0.3 1 1 1
v 0.0625 -3.205931E-31 0.3 1 1 1
v 0 0.0625 0.3 1 1 1
v -0.4375 -3.205931E-31 0.3 1 1 1
v -0.5 0.0625 0.3 1 1 1
v -0.25 0.1875 0.3 1 1 1
v -0.1875 0.25 0.3 1 1 1
v 0.5 0.0625 -0.3 1 1 1
v 0.5 0.0625 -0.5 1 1 1
v 0.4375 -3.205931E-31 -0.3 1 1 1
v 0.4375 0 -0.5 1 1 1
v -0.3125 0.25 0.3 1 1 1
v 0.25 0.0625 -0.3 1 1 1
v 0.25 0.0625 -0.5 1 1 1
v 0.1875 -3.205931E-31 -0.3 1 1 1
v 0.1875 0 -0.5 1 1 1
v -0.3125 -3.205931E-31 -0.3 1 1 1
v -0.3125 0 -0.5 1 1 1
v -0.4375 -3.205931E-31 -0.3 1 1 1
v -0.4375 0 -0.5 1 1 1
v -0.1875 -3.205931E-31 -0.3 1 1 1
v -0.1875 0 -0.5 1 1 1
v -0.1875 -3.205931E-31 0.3 1 1 1
v -0.25 0.0625 0.3 1 1 1
v 0.0625 -3.205931E-31 -0.3 1 1 1
v 0.0625 0 -0.5 1 1 1
v -0.25 0.0625 -0.3 1 1 1
v -0.25 0.0625 -0.5 1 1 1
v 0.0625 0.25 0.3 1 1 1
v -0.5 0.1875 0.3 1 1 1
v 0.25 0.1875 0.3 1 1 1
v 0.1875 0.25 0.3 1 1 1
v -0.4375 0.25 0.3 1 1 1
v 0.1875 0.25 -0.5 1 1 1
v 0.1875 0.25 -0.3 1 1 1
v 0.0625 0.25 -0.5 1 1 1
v 0.0625 0.25 -0.3 1 1 1
v -0.3125 0.25 -0.5 1 1 1
v -0.3125 0.25 -0.3 1 1 1
v -0.4375 0.25 -0.5 1 1 1
v -0.4375 0.25 -0.3 1 1 1
v 0.3125 -3.205931E-31 -0.3 1 1 1
v 0.3125 0 -0.5 1 1 1
v 0.4375 0.25 -0.5 1 1 1
v 0.4375 0.25 -0.3 1 1 1
v 0.3125 0.25 -0.5 1 1 1
v 0.3125 0.25 -0.3 1 1 1
v 0.3125 0.25 0.3 1 1 1
v 0.5 0.1875 0.3 1 1 1
v 0.5 0.0625 0.3 1 1 1
v 0.4375 0.25 0.3 1 1 1
v 0.3125 -3.205931E-31 0.3 1 1 1
v 0.25 0.0625 0.3 1 1 1
v -0.5 0.0625 -0.5 1 1 1
v -0.3125 0.0625 -0.5 1 1 1
v -0.4375 0.0625 -0.5 1 1 1
v -0.4375 0.1875 -0.5 1 1 1
v -0.5 0.1875 -0.5 1 1 1
v -0.3125 0.1875 -0.5 1 1 1
v -0.25 0.1875 -0.5 1 1 1
v -0.1875 0.1875 -0.5 1 1 1
v -0.1875 0.0625 -0.5 1 1 1
v -0.0625 0.1875 -0.5 1 1 1
v -0.0625 0.0625 -0.5 1 1 1
v 0 0.1875 -0.5 1 1 1
v 0.0625 0.1875 -0.5 1 1 1
v 0.0625 0.0625 -0.5 1 1 1
v 0.1875 0.1875 -0.5 1 1 1
v 0.1875 0.0625 -0.5 1 1 1
v 0.25 0.1875 -0.5 1 1 1
v 0.3125 0.1875 -0.5 1 1 1
v 0.3125 0.0625 -0.5 1 1 1
v 0.4375 0.1875 -0.5 1 1 1
v 0.4375 0.0625 -0.5 1 1 1
v 0.5 0.1875 -0.5 1 1 1
v -0.5 0.1875 -0.3 1 1 1
v -0.25 0.1875 -0.3 1 1 1
v -0.5 0.0625 -0.3 1 1 1
v 0 0.1875 -0.3 1 1 1
v 0.5 0.1875 -0.3 1 1 1
v 0.25 0.1875 -0.3 1 1 1
v -0.3125 -3.205931E-31 0.3 1 1 1
v 0.4375 -3.205931E-31 0.3 1 1 1
v 0.1875 -3.205931E-31 0.3 1 1 1
v -0.0625 -3.205931E-31 0.3 1 1 1
v -0.3125 0 0.3 1 1 1
v -0.3125 0 -0.3 1 1 1
v -0.4375 0 0.3 1 1 1
v -0.4375 0 -0.3 1 1 1
v -0.0625 0 0.3 1 1 1
v -0.0625 0 -0.3 1 1 1
v -0.1875 0 0.3 1 1 1
v -0.1875 0 -0.3 1 1 1
v 0.4375 0 0.3 1 1 1
v 0.4375 0 -0.3 1 1 1
v 0.0625 0 0.3 1 1 1
v 0.0625 0 -0.3 1 1 1
v 0.1875 0 0.3 1 1 1
v 0.1875 0 -0.3 1 1 1
v 0.3125 0 0.3 1 1 1
v 0.3125 0 -0.3 1 1 1

vn 0.3826834 0.9238795 0
vn -0.3826834 0.9238795 0
vn 0.7071068 -0.7071068 0
vn 0.3826834 -0.9238795 0
vn 0 0 1
vn 0.7071068 0.7071068 0
vn -0.3826834 -0.9238795 0
vn -0.7071068 -0.7071068 0
vn -0.9238795 -0.3826834 0
vn -0.7071068 0.7071068 0
vn 0.9238795 -0.3826834 0
vn -0.9238795 0.3826834 0
vn 0.9238795 0.3826834 0
vn 0 0 -1

vt 0.21875 0.225
vt 0.21875 0.075
vt 0.21875 0.025
vt 0.21875 0.175
vt 0.09375 0.025
vt 0.09375 0.225
vt 0.34375 0.225
vt 0.34375 0.175
vt 0.34375 0.025
vt 0.34375 0.075

usemtl colormap

f 3/1/2 2/1/1 1/1/1
f 2/1/1 3/1/2 4/1/2
f 7/3/4 6/2/3 5/2/3
f 6/2/3 7/3/4 8/3/4
f 11/2/5 10/3/5 9/3/5
f 10/3/5 11/2/5 12/2/5
f 12/2/5 13/2/5 10/3/5
f 13/2/5 12/2/5 14/2/5
f 12/2/5 11/2/5 15/4/5
f 13/2/5 14/2/5 16/4/5
f 15/4/5 17/1/5 16/4/5
f 16/4/5 17/1/5 18/4/5
f 13/2/5 16/4/5 18/4/5
f 18/4/5 17/1/5 19/1/5
f 15/4/5 20/4/5 17/1/5
f 15/4/5 11/2/5 20/4/5
f 21/4/5 13/2/5 18/4/5
f 21/4/5 18/4/5 22/1/5
f 21/4/5 22/1/5 23/4/5
f 24/1/5 23/4/5 22/1/5
f 25/4/5 23/4/5 24/1/5
f 26/2/5 23/4/5 25/4/5
f 26/2/5 27/2/5 23/4/5
f 26/2/5 28/2/5 27/2/5
f 28/2/5 13/2/5 21/4/5
f 28/2/5 26/2/5 29/3/5
f 29/3/5 13/2/5 28/2/5
f 13/2/5 29/3/5 30/3/5
f 11/2/5 31/4/5 20/4/5
f 20/4/5 31/4/5 32/1/5
f 32/1/5 31/4/5 33/1/5
f 11/2/5 34/2/5 31/4/5
f 35/4/5 33/1/5 31/4/5
f 11/2/5 36/2/5 34/2/5
f 36/2/5 37/2/5 35/4/5
f 36/2/5 11/2/5 38/3/5
f 38/3/5 37/2/5 36/2/5
f 37/2/5 38/3/5 39/3/5
f 35/4/5 40/4/5 33/1/5
f 35/4/5 37/2/5 40/4/5
f 37/2/5 41/4/5 40/4/5
f 37/2/5 42/2/5 41/4/5
f 37/2/5 43/2/5 42/2/5
f 43/2/5 37/2/5 44/3/5
f 41/4/5 45/1/5 40/4/5
f 40/4/5 45/1/5 46/1/5
f 47/4/5 45/1/5 41/4/5
f 47/4/5 48/4/5 45/1/5
f 47/4/5 49/2/5 48/4/5
f 43/2/5 49/2/5 47/4/5
f 44/3/5 49/2/5 43/2/5
f 49/2/5 44/3/5 50/3/5
f 52/1/1 20/4/6 51/4/6
f 20/4/6 52/1/1 17/1/1
f 11/2/8 53/3/7 38/3/7
f 53/3/7 11/2/8 54/2/8
f 26/2/9 55/3/7 29/3/7
f 55/3/7 26/2/9 56/2/9
f 18/4/10 58/1/2 57/4/10
f 58/1/2 18/4/10 19/1/2
f 61/3/4 60/2/11 59/2/11
f 60/2/11 61/3/4 62/3/4
f 63/1/1 18/4/6 57/4/6
f 18/4/6 63/1/1 22/1/1
f 66/3/4 65/2/3 64/2/3
f 65/2/3 66/3/4 67/3/4
f 70/3/7 69/3/4 68/3/4
f 69/3/4 70/3/7 71/3/7
f 72/3/7 8/3/4 7/3/4
f 8/3/4 72/3/7 73/3/7
f 10/3/7 75/2/8 74/3/7
f 75/2/8 10/3/7 13/2/8
f 76/3/7 67/3/4 66/3/4
f 67/3/4 76/3/7 77/3/7
f 68/3/4 79/2/3 78/2/3
f 79/2/3 68/3/4 69/3/4
f 51/4/10 32/1/2 80/1/2
f 32/1/2 51/4/10 20/4/10
f 26/2/9 81/4/12 56/2/9
f 81/4/12 26/2/9 25/4/12
f 83/1/1 40/4/6 82/4/6
f 40/4/6 83/1/1 33/1/1
f 81/4/12 24/1/2 84/1/2
f 24/1/2 81/4/12 25/4/12
f 87/1/2 86/1/1 85/1/1
f 86/1/1 87/1/2 88/1/2
f 91/1/2 90/1/1 89/1/1
f 90/1/1 91/1/2 92/1/2
f 93/3/7 62/3/4 61/3/4
f 62/3/4 93/3/7 94/3/7
f 97/1/2 96/1/1 95/1/1
f 96/1/1 97/1/2 98/1/2
f 82/4/10 46/1/2 99/1/2
f 46/1/2 82/4/10 40/4/10
f 48/4/13 101/2/11 100/4/13
f 101/2/11 48/4/13 49/2/11
f 102/1/1 48/4/13 100/4/13
f 48/4/13 102/1/1 45/1/1
f 37/2/8 103/3/7 44/3/7
f 103/3/7 37/2/8 104/2/8
f 105/2/14 69/3/14 71/3/14
f 69/3/14 105/2/14 106/2/14
f 106/2/14 79/2/14 69/3/14
f 106/2/14 105/2/14 107/2/14
f 107/2/14 105/2/14 108/4/14
f 108/4/14 105/2/14 109/4/14
f 108/4/14 109/4/14 91/1/14
f 108/4/14 91/1/14 110/4/14
f 79/2/14 106/2/14 110/4/14
f 110/4/14 91/1/14 111/4/14
f 79/2/14 110/4/14 111/4/14
f 111/4/14 91/1/14 89/1/14
f 112/4/14 79/2/14 111/4/14
f 112/4/14 111/4/14 3/1/14
f 113/2/14 79/2/14 112/4/14
f 112/4/14 3/1/14 114/4/14
f 1/1/14 114/4/14 3/1/14
f 115/2/14 79/2/14 113/2/14
f 6/2/14 115/2/14 114/4/14
f 116/4/14 114/4/14 1/1/14
f 6/2/14 114/4/14 116/4/14
f 8/3/14 79/2/14 115/2/14
f 115/2/14 6/2/14 8/3/14
f 79/2/14 8/3/14 73/3/14
f 117/4/14 6/2/14 116/4/14
f 117/4/14 116/4/14 87/1/14
f 118/2/14 6/2/14 117/4/14
f 117/4/14 87/1/14 119/4/14
f 120/2/14 6/2/14 118/2/14
f 65/2/14 120/2/14 119/4/14
f 67/3/14 6/2/14 120/2/14
f 120/2/14 65/2/14 67/3/14
f 6/2/14 67/3/14 77/3/14
f 119/4/14 87/1/14 121/4/14
f 65/2/14 119/4/14 121/4/14
f 121/4/14 87/1/14 85/1/14
f 122/4/14 65/2/14 121/4/14
f 122/4/14 121/4/14 97/1/14
f 123/2/14 65/2/14 122/4/14
f 122/4/14 97/1/14 124/4/14
f 125/2/14 65/2/14 123/2/14
f 124/4/14 97/1/14 126/4/14
f 126/4/14 97/1/14 95/1/14
f 60/2/14 124/4/14 126/4/14
f 60/2/14 125/2/14 124/4/14
f 125/2/14 60/2/14 62/3/14
f 62/3/14 65/2/14 125/2/14
f 65/2/14 62/3/14 94/3/14
f 109/4/12 92/1/2 91/1/2
f 92/1/2 109/4/12 127/4/12
f 89/1/1 128/4/6 111/4/6
f 128/4/6 89/1/1 90/1/1
f 129/2/9 71/3/7 70/3/7
f 71/3/7 129/2/9 105/2/9
f 1/1/1 130/4/6 116/4/6
f 130/4/6 1/1/1 2/1/1
f 131/4/13 60/2/11 126/4/13
f 60/2/11 131/4/13 59/2/11
f 95/1/1 131/4/13 126/4/13
f 131/4/13 95/1/1 96/1/1
f 64/2/8 94/3/7 93/3/7
f 94/3/7 64/2/8 65/2/8
f 5/2/8 77/3/7 76/3/7
f 77/3/7 5/2/8 6/2/8
f 128/4/10 3/1/2 111/4/10
f 3/1/2 128/4/10 4/1/2
f 72/3/7 79/2/8 73/3/7
f 79/2/8 72/3/7 78/2/8
f 129/2/9 109/4/12 105/2/9
f 109/4/12 129/2/9 127/4/12
f 121/4/10 98/1/2 97/1/2
f 98/1/2 121/4/10 132/4/10
f 116/4/10 88/1/2 87/1/2
f 88/1/2 116/4/10 130/4/10
f 85/1/1 132/4/6 121/4/6
f 132/4/6 85/1/1 86/1/1
f 58/1/2 17/1/1 52/1/1
f 17/1/1 58/1/2 19/1/2
f 29/3/7 133/3/4 30/3/4
f 133/3/4 29/3/7 55/3/7
f 80/1/2 33/1/1 83/1/1
f 33/1/1 80/1/2 32/1/2
f 44/3/7 134/3/4 50/3/4
f 134/3/4 44/3/7 103/3/7
f 39/3/4 104/2/3 37/2/3
f 104/2/3 39/3/4 135/3/4
f 50/3/4 101/2/11 49/2/11
f 101/2/11 50/3/4 134/3/4
f 99/1/2 45/1/1 102/1/1
f 45/1/1 99/1/2 46/1/2
f 84/1/2 22/1/1 63/1/1
f 22/1/1 84/1/2 24/1/2
f 38/3/7 135/3/4 39/3/4
f 135/3/4 38/3/7 53/3/7
f 30/3/4 75/2/3 13/2/3
f 75/2/3 30/3/4 133/3/4
f 10/3/7 136/3/4 9/3/4
f 136/3/4 10/3/7 74/3/7
f 9/3/4 54/2/3 11/2/3
f 54/2/3 9/3/4 136/3/4
f 113/5/14 114/6/14 115/5/14
f 114/6/14 113/5/14 112/6/14
f 123/5/14 124/6/14 125/5/14
f 124/6/14 123/5/14 122/6/14
f 47/6/5 42/5/5 43/5/5
f 42/5/5 47/6/5 41/6/5
f 107/5/14 110/6/14 106/5/14
f 110/6/14 107/5/14 108/6/14
f 15/6/5 14/5/5 12/5/5
f 14/5/5 15/6/5 16/6/5
f 21/6/5 27/5/5 28/5/5
f 27/5/5 21/6/5 23/6/5
f 35/6/5 34/5/5 36/5/5
f 34/5/5 35/6/5 31/6/5
f 118/5/14 119/6/14 120/5/14
f 119/6/14 118/5/14 117/6/14
f 132/8/10 99/7/2 98/7/2
f 99/7/2 132/8/10 82/8/10
f 90/7/1 57/8/6 128/8/6
f 57/8/6 90/7/1 63/7/1
f 139/9/7 138/9/4 137/9/4
f 138/9/4 139/9/7 140/9/7
f 143/9/7 142/9/4 141/9/4
f 142/9/4 143/9/7 144/9/7
f 98/7/2 102/7/1 96/7/1
f 102/7/1 98/7/2 99/7/2
f 145/9/4 59/10/11 101/10/11
f 59/10/11 145/9/4 146/9/4
f 54/10/8 148/9/7 147/9/7
f 148/9/7 54/10/8 5/10/8
f 127/8/12 84/7/2 92/7/2
f 84/7/2 127/8/12 81/8/12
f 100/8/13 59/10/11 131/8/13
f 59/10/11 100/8/13 101/10/11
f 130/8/10 80/7/2 88/7/2
f 80/7/2 130/8/10 51/8/10
f 147/9/7 150/9/4 149/9/4
f 150/9/4 147/9/7 148/9/7
f 56/10/9 127/8/12 129/10/9
f 127/8/12 56/10/9 81/8/12
f 92/7/2 63/7/1 90/7/1
f 63/7/1 92/7/2 84/7/2
f 137/9/4 78/10/3 75/10/3
f 78/10/3 137/9/4 138/9/4
f 143/9/7 78/10/8 144/9/7
f 78/10/8 143/9/7 75/10/8
f 88/7/2 83/7/1 86/7/1
f 83/7/1 88/7/2 80/7/2
f 86/7/1 82/8/6 132/8/6
f 82/8/6 86/7/1 83/7/1
f 149/9/4 64/10/3 104/10/3
f 64/10/3 149/9/4 150/9/4
f 56/10/9 140/9/7 139/9/7
f 140/9/7 56/10/9 129/10/9
f 57/8/10 4/7/2 128/8/10
f 4/7/2 57/8/10 58/7/2
f 104/10/8 152/9/7 151/9/7
f 152/9/7 104/10/8 64/10/8
f 2/7/1 51/8/6 130/8/6
f 51/8/6 2/7/1 52/7/1
f 96/7/1 100/8/13 131/8/13
f 100/8/13 96/7/1 102/7/1
f 4/7/2 52/7/1 2/7/1
f 52/7/1 4/7/2 58/7/2
f 151/9/7 146/9/4 145/9/4
f 146/9/4 151/9/7 152/9/7
f 141/9/4 5/10/3 54/10/3
f 5/10/3 141/9/4 142/9/4

g conveyor-bars-stripe




usemtl colormap

f 3/1/2 2/1/1 1/1/1
f 2/1/1 3/1/2 4/1/2
f 7/3/4 6/2/3 5/2/3
f 6/2/3 7/3/4 8/3/4
f 11/2/5 10/3/5 9/3/5
f 10/3/5 11/2/5 12/2/5
f 12/2/5 13/2/5 10/3/5
f 13/2/5 12/2/5 14/2/5
f 12/2/5 11/2/5 15/4/5
f 13/2/5 14/2/5 16/4/5
f 15/4/5 17/1/5 16/4/5
f 16/4/5 17/1/5 18/4/5
f 13/2/5 16/4/5 18/4/5
f 18/4/5 17/1/5 19/1/5
f 15/4/5 20/4/5 17/1/5
f 15/4/5 11/2/5 20/4/5
f 21/4/5 13/2/5 18/4/5
f 21/4/5 18/4/5 22/1/5
f 21/4/5 22/1/5 23/4/5
f 24/1/5 23/4/5 22/1/5
f 25/4/5 23/4/5 24/1/5
f 26/2/5 23/4/5 25/4/5
f 26/2/5 27/2/5 23/4/5
f 26/2/5 28/2/5 27/2/5
f 28/2/5 13/2/5 21/4/5
f 28/2/5 26/2/5 29/3/5
f 29/3/5 13/2/5 28/2/5
f 13/2/5 29/3/5 30/3/5
f 11/2/5 31/4/5 20/4/5
f 20/4/5 31/4/5 32/1/5
f 32/1/5 31/4/5 33/1/5
f 11/2/5 34/2/5 31/4/5
f 35/4/5 33/1/5 31/4/5
f 11/2/5 36/2/5 34/2/5
f 36/2/5 37/2/5 35/4/5
f 36/2/5 11/2/5 38/3/5
f 38/3/5 37/2/5 36/2/5
f 37/2/5 38/3/5 39/3/5
f 35/4/5 40/4/5 33/1/5
f 35/4/5 37/2/5 40/4/5
f 37/2/5 41/4/5 40/4/5
f 37/2/5 42/2/5 41/4/5
f 37/2/5 43/2/5 42/2/5
f 43/2/5 37/2/5 44/3/5
f 41/4/5 45/1/5 40/4/5
f 40/4/5 45/1/5 46/1/5
f 47/4/5 45/1/5 41/4/5
f 47/4/5 48/4/5 45/1/5
f 47/4/5 49/2/5 48/4/5
f 43/2/5 49/2/5 47/4/5
f 44/3/5 49/2/5 43/2/5
f 49/2/5 44/3/5 50/3/5
f 52/1/1 20/4/6 51/4/6
f 20/4/6 52/1/1 17/1/1
f 11/2/8 53/3/7 38/3/7
f 53/3/7 11/2/8 54/2/8
f 26/2/9 55/3/7 29/3/7
f 55/3/7 26/2/9 56/2/9
f 18/4/10 58/1/2 57/4/10
f 58/1/2 18/4/10 19/1/2
f 61/3/4 60/2/11 59/2/11
f 60/2/11 61/3/4 62/3/4
f 63/1/1 18/4/6 57/4/6
f 18/4/6 63/1/1 22/1/1
f 66/3/4 65/2/3 64/2/3
f 65/2/3 66/3/4 67/3/4
f 70/3/7 69/3/4 68/3/4
f 69/3/4 70/3/7 71/3/7
f 72/3/7 8/3/4 7/3/4
f 8/3/4 72/3/7 73/3/7
f 10/3/7 75/2/8 74/3/7
f 75/2/8 10/3/7 13/2/8
f 76/3/7 67/3/4 66/3/4
f 67/3/4 76/3/7 77/3/7
f 68/3/4 79/2/3 78/2/3
f 79/2/3 68/3/4 69/3/4
f 51/4/10 32/1/2 80/1/2
f 32/1/2 51/4/10 20/4/10
f 26/2/9 81/4/12 56/2/9
f 81/4/12 26/2/9 25/4/12
f 83/1/1 40/4/6 82/4/6
f 40/4/6 83/1/1 33/1/1
f 81/4/12 24/1/2 84/1/2
f 24/1/2 81/4/12 25/4/12
f 87/1/2 86/1/1 85/1/1
f 86/1/1 87/1/2 88/1/2
f 91/1/2 90/1/1 89/1/1
f 90/1/1 91/1/2 92/1/2
f 93/3/7 62/3/4 61/3/4
f 62/3/4 93/3/7 94/3/7
f 97/1/2 96/1/1 95/1/1
f 96/1/1 97/1/2 98/1/2
f 82/4/10 46/1/2 99/1/2
f 46/1/2 82/4/10 40/4/10
f 48/4/13 101/2/11 100/4/13
f 101/2/11 48/4/13 49/2/11
f 102/1/1 48/4/13 100/4/13
f 48/4/13 102/1/1 45/1/1
f 37/2/8 103/3/7 44/3/7
f 103/3/7 37/2/8 104/2/8
f 105/2/14 69/3/14 71/3/14
f 69/3/14 105/2/14 106/2/14
f 106/2/14 79/2/14 69/3/14
f 106/2/14 105/2/14 107/2/14
f 107/2/14 105/2/14 108/4/14
f 108/4/14 105/2/14 109/4/14
f 108/4/14 109/4/14 91/1/14
f 108/4/14 91/1/14 110/4/14
f 79/2/14 106/2/14 110/4/14
f 110/4/14 91/1/14 111/4/14
f 79/2/14 110/4/14 111/4/14
f 111/4/14 91/1/14 89/1/14
f 112/4/14 79/2/14 111/4/14
f 112/4/14 111/4/14 3/1/14
f 113/2/14 79/2/14 112/4/14
f 112/4/14 3/1/14 114/4/14
f 1/1/14 114/4/14 3/1/14
f 115/2/14 79/2/14 113/2/14
f 6/2/14 115/2/14 114/4/14
f 116/4/14 114/4/14 1/1/14
f 6/2/14 114/4/14 116/4/14
f 8/3/14 79/2/14 115/2/14
f 115/2/14 6/2/14 8/3/14
f 79/2/14 8/3/14 73/3/14
f 117/4/14 6/2/14 116/4/14
f 117/4/14 116/4/14 87/1/14
f 118/2/14 6/2/14 117/4/14
f 117/4/14 87/1/14 119/4/14
f 120/2/14 6/2/14 118/2/14
f 65/2/14 120/2/14 119/4/14
f 67/3/14 6/2/14 120/2/14
f 120/2/14 65/2/14 67/3/14
f 6/2/14 67/3/14 77/3/14
f 119/4/14 87/1/14 121/4/14
f 65/2/14 119/4/14 121/4/14
f 121/4/14 87/1/14 85/1/14
f 122/4/14 65/2/14 121/4/14
f 122/4/14 121/4/14 97/1/14
f 123/2/14 65/2/14 122/4/14
f 122/4/14 97/1/14 124/4/14
f 125/2/14 65/2/14 123/2/14
f 124/4/14 97/1/14 126/4/14
f 126/4/14 97/1/14 95/1/14
f 60/2/14 124/4/14 126/4/14
f 60/2/14 125/2/14 124/4/14
f 125/2/14 60/2/14 62/3/14
f 62/3/14 65/2/14 125/2/14
f 65/2/14 62/3/14 94/3/14
f 109/4/12 92/1/2 91/1/2
f 92/1/2 109/4/12 127/4/12
f 89/1/1 128/4/6 111/4/6
f 128/4/6 89/1/1 90/1/1
f 129/2/9 71/3/7 70/3/7
f 71/3/7 129/2/9 105/2/9
f 1/1/1 130/4/6 116/4/6
f 130/4/6 1/1/1 2/1/1
f 131/4/13 60/2/11 126/4/13
f 60/2/11 131/4/13 59/2/11
f 95/1/1 131/4/13 126/4/13
f 131/4/13 95/1/1 96/1/1
f 64/2/8 94/3/7 93/3/7
f 94/3/7 64/2/8 65/2/8
f 5/2/8 77/3/7 76/3/7
f 77/3/7 5/2/8 6/2/8
f 128/4/10 3/1/2 111/4/10
f 3/1/2 128/4/10 4/1/2
f 72/3/7 79/2/8 73/3/7
f 79/2/8 72/3/7 78/2/8
f 129/2/9 109/4/12 105/2/9
f 109/4/12 129/2/9 127/4/12
f 121/4/10 98/1/2 97/1/2
f 98/1/2 121/4/10 132/4/10
f 116/4/10 88/1/2 87/1/2
f 88/1/2 116/4/10 130/4/10
f 85/1/1 132/4/6 121/4/6
f 132/4/6 85/1/1 86/1/1
f 58/1/2 17/1/1 52/1/1
f 17/1/1 58/1/2 19/1/2
f 29/3/7 133/3/4 30/3/4
f 133/3/4 29/3/7 55/3/7
f 80/1/2 33/1/1 83/1/1
f 33/1/1 80/1/2 32/1/2
f 44/3/7 134/3/4 50/3/4
f 134/3/4 44/3/7 103/3/7
f 39/3/4 104/2/3 37/2/3
f 104/2/3 39/3/4 135/3/4
f 50/3/4 101/2/11 49/2/11
f 101/2/11 50/3/4 134/3/4
f 99/1/2 45/1/1 102/1/1
f 45/1/1 99/1/2 46/1/2
f 84/1/2 22/1/1 63/1/1
f 22/1/1 84/1/2 24/1/2
f 38/3/7 135/3/4 39/3/4
f 135/3/4 38/3/7 53/3/7
f 30/3/4 75/2/3 13/2/3
f 75/2/3 30/3/4 133/3/4
f 10/3/7 136/3/4 9/3/4
f 136/3/4 10/3/7 74/3/7
f 9/3/4 54/2/3 11/2/3
f 54/2/3 9/3/4 136/3/4
f 113/5/14 114/6/14 115/5/14
f 114/6/14 113/5/14 112/6/14
f 123/5/14 124/6/14 125/5/14
f 124/6/14 123/5/14 122/6/14
f 47/6/5 42/5/5 43/5/5
f 42/5/5 47/6/5 41/6/5
f 107/5/14 110/6/14 106/5/14
f 110/6/14 107/5/14 108/6/14
f 15/6/5 14/5/5 12/5/5
f 14/5/5 15/6/5 16/6/5
f 21/6/5 27/5/5 28/5/5
f 27/5/5 21/6/5 23/6/5
f 35/6/5 34/5/5 36/5/5
f 34/5/5 35/6/5 31/6/5
f 118/5/14 119/6/14 120/5/14
f 119/6/14 118/5/14 117/6/14
f 132/8/10 99/7/2 98/7/2
f 99/7/2 132/8/10 82/8/10
f 90/7/1 57/8/6 128/8/6
f 57/8/6 90/7/1 63/7/1
f 139/9/7 138/9/4 137/9/4
f 138/9/4 139/9/7 140/9/7
f 143/9/7 142/9/4 141/9/4
f 142/9/4 143/9/7 144/9/7
f 98/7/2 102/7/1 96/7/1
f 102/7/1 98/7/2 99/7/2
f 145/9/4 59/10/11 101/10/11
f 59/10/11 145/9/4 146/9/4
f 54/10/8 148/9/7 147/9/7
f 148/9/7 54/10/8 5/10/8
f 127/8/12 84/7/2 92/7/2
f 84/7/2 127/8/12 81/8/12
f 100/8/13 59/10/11 131/8/13
f 59/10/11 100/8/13 101/10/11
f 130/8/10 80/7/2 88/7/2
f 80/7/2 130/8/10 51/8/10
f 147/9/7 150/9/4 149/9/4
f 150/9/4 147/9/7 148/9/7
f 56/10/9 127/8/12 129/10/9
f 127/8/12 56/10/9 81/8/12
f 92/7/2 63/7/1 90/7/1
f 63/7/1 92/7/2 84/7/2
f 137/9/4 78/10/3 75/10/3
f 78/10/3 137/9/4 138/9/4
f 143/9/7 78/10/8 144/9/7
f 78/10/8 143/9/7 75/10/8
f 88/7/2 83/7/1 86/7/1
f 83/7/1 88/7/2 80/7/2
f 86/7/1 82/8/6 132/8/6
f 82/8/6 86/7/1 83/7/1
f 149/9/4 64/10/3 104/10/3
f 64/10/3 149/9/4 150/9/4
f 56/10/9 140/9/7 139/9/7
f 140/9/7 56/10/9 129/10/9
f 57/8/10 4/7/2 128/8/10
f 4/7/2 57/8/10 58/7/2
f 104/10/8 152/9/7 151/9/7
f 152/9/7 104/10/8 64/10/8
f 2/7/1 51/8/6 130/8/6
f 51/8/6 2/7/1 52/7/1
f 96/7/1 100/8/13 131/8/13
f 100/8/13 96/7/1 102/7/1
f 4/7/2 52/7/1 2/7/1
f 52/7/1 4/7/2 58/7/2
f 151/9/7 146/9/4 145/9/4
f 146/9/4 151/9/7 152/9/7
f 141/9/4 5/10/3 54/10/3
f 5/10/3 141/9/4 142/9/4

