# Created by Kenney (www.kenney.nl)

mtllib conveyor-long-sides.mtl

g Group

v 1 0.2 -0.45 1 1 1
v 1 0.2 -0.4 1 1 1
v -1 0.2 -0.45 1 1 1
v -1 0.2 -0.4 1 1 1
v 1 5.86553E-16 0.5 1 1 1
v 1 5.86553E-16 0.4 1 1 1
v -1 5.86553E-16 0.5 1 1 1
v -1 5.86553E-16 0.4 1 1 1
v -1 0.2 0.4 1 1 1
v 1 0.2 0.4 1 1 1
v 1 0.15 0.5 1 1 1
v -1 0.15 0.5 1 1 1
v 1 0 -0.4 1 1 1
v 1 0 -0.5 1 1 1
v -1 0 -0.4 1 1 1
v -1 0 -0.5 1 1 1
v 1 0.15 -0.5 1 1 1
v -1 0.15 -0.5 1 1 1
v 1 0.2 0.45 1 1 1
v -1 0.2 0.45 1 1 1

vn 0 0.9238795 -0.3826834
vn 0 1 0
vn 0 -1 0
vn 0 0 -1
vn 0 0 1
vn 0 0.3826834 0.9238795
vn 1 0 0
vn -1 0 0
vn 0 0.9238795 0.3826834
vn 0 0.3826834 -0.9238795

vt 0.34375 0.225
vt 0.34375 0.025
vt 0.34375 0.175

usemtl colormap

f 3/1/1 2/1/2 1/1/1
f 2/1/2 3/1/1 4/1/2
f 7/2/3 6/2/3 5/2/3
f 6/2/3 7/2/3 8/2/3
f 9/1/4 6/2/4 8/2/4
f 6/2/4 9/1/4 10/1/4
f 11/3/6 7/2/5 5/2/5
f 7/2/5 11/3/6 12/3/6
f 15/2/3 14/2/3 13/2/3
f 14/2/3 15/2/3 16/2/3
f 1/1/7 14/2/7 17/3/7
f 14/2/7 1/1/7 13/2/7
f 13/2/7 1/1/7 2/1/7
f 15/2/8 18/3/8 16/2/8
f 18/3/8 15/2/8 3/1/8
f 3/1/8 15/2/8 4/1/8
f 9/1/2 19/1/9 10/1/2
f 19/1/9 9/1/2 20/1/9
f 18/3/10 1/1/1 17/3/10
f 1/1/1 18/3/10 3/1/1
f 20/1/9 11/3/6 19/1/9
f 11/3/6 20/1/9 12/3/6
f 18/3/10 14/2/4 16/2/4
f 14/2/4 18/3/10 17/3/10
f 7/2/8 9/1/8 8/2/8
f 9/1/8 7/2/8 20/1/8
f 20/1/8 7/2/8 12/3/8
f 19/1/7 6/2/7 10/1/7
f 6/2/7 19/1/7 5/2/7
f 5/2/7 19/1/7 11/3/7
f 2/1/5 15/2/5 13/2/5
f 15/2/5 2/1/5 4/1/5

g Group

v 0.9 0.4 -0.4 1 1 1
v 1 0.3 -0.4 1 1 1
v 0.9 0.4 0.4 1 1 1
v 1 0.3 0.4 1 1 1
v 1 0.1 -0.4 1 1 1
v 1 0.1 0.4 1 1 1
v 0.9 1.173106E-15 -0.4 1 1 1
v 0.9 1.173106E-15 0.4 1 1 1
v -0.9 0 0.4 1 1 1
v -1 0.1 0.4 1 1 1
v -0.8585786 0.1 0.4 1 1 1
v -0.9 0.1414214 0.4 1 1 1
v 0.8585786 0.1 0.4 1 1 1
v 0.9 0.1414214 0.4 1 1 1
v -1 0.3 0.4 1 1 1
v -0.9 0.2585786 0.4 1 1 1
v -0.8585786 0.3 0.4 1 1 1
v 0.9 0.2585786 0.4 1 1 1
v 0.8585786 0.3 0.4 1 1 1
v -0.9 0.4 0.4 1 1 1
v -0.9 0 -0.4 1 1 1
v -1 0.1 -0.4 1 1 1
v -0.8585786 0.1 -0.4 1 1 1
v -0.9 0.1414214 -0.4 1 1 1
v 0.8585786 0.1 -0.4 1 1 1
v 0.9 0.1414214 -0.4 1 1 1
v -1 0.3 -0.4 1 1 1
v -0.9 0.2585786 -0.4 1 1 1
v -0.8585786 0.3 -0.4 1 1 1
v 0.9 0.2585786 -0.4 1 1 1
v 0.8585786 0.3 -0.4 1 1 1
v -0.9 0.4 -0.4 1 1 1
v -0.9 0.2585787 -0.4 1 1 1
v 0.9 0.2585787 -0.4 1 1 1
v -0.9 0.2585787 0.4 1 1 1
v 0.9 0.2585787 0.4 1 1 1

vn 0.3826834 0.9238795 0
vn 0.9238795 0.3826834 0
vn 0.9238795 -0.3826834 0
vn 0.3826834 -0.9238795 0
vn -0.3826834 -0.9238795 0
vn -0.3826834 0.9238795 0
vn -0.9238795 -0.3826834 0
vn -0.9238795 0.3826834 0

vt 0.21875 0.225
vt 0.21875 0.175
vt 0.21875 0.075
vt 0.21875 0.025
vt 0.21875 0.09571067
vt 0.21875 0.1542893
vt 0.09375 0.025
vt 0.09375 0.06642135
vt 0.09375 0.1835786
vt 0.09375 0.225

usemtl colormap

f 23/4/11 22/5/12 21/4/11
f 22/5/12 23/4/11 24/5/12
f 24/5/12 25/6/13 22/5/12
f 25/6/13 24/5/12 26/6/13
f 26/6/13 27/7/14 25/6/13
f 27/7/14 26/6/13 28/7/14
f 28/7/5 30/6/5 29/7/5
f 30/6/5 28/7/5 31/6/5
f 26/6/5 31/6/5 28/7/5
f 30/6/5 31/6/5 32/8/5
f 31/6/5 26/6/5 33/6/5
f 33/6/5 26/6/5 34/8/5
f 30/6/5 32/8/5 35/5/5
f 34/8/5 26/6/5 24/5/5
f 35/5/5 32/8/5 36/9/5
f 35/5/5 36/9/5 37/5/5
f 34/8/5 24/5/5 38/9/5
f 35/5/5 37/5/5 39/5/5
f 38/9/5 24/5/5 39/5/5
f 35/5/5 39/5/5 40/4/5
f 40/4/5 39/5/5 24/5/5
f 40/4/5 24/5/5 23/4/5
f 29/7/15 27/7/14 28/7/14
f 27/7/14 29/7/15 41/7/15
f 42/6/4 27/7/4 41/7/4
f 27/7/4 42/6/4 43/6/4
f 43/6/4 25/6/4 27/7/4
f 43/6/4 42/6/4 44/8/4
f 25/6/4 43/6/4 45/6/4
f 25/6/4 45/6/4 46/8/4
f 44/8/4 42/6/4 47/5/4
f 25/6/4 46/8/4 22/5/4
f 44/8/4 47/5/4 48/9/4
f 48/9/4 47/5/4 49/5/4
f 22/5/4 46/8/4 50/9/4
f 49/5/4 47/5/4 51/5/4
f 22/5/4 50/9/4 51/5/4
f 51/5/4 47/5/4 52/4/4
f 51/5/4 52/4/4 22/5/4
f 22/5/4 52/4/4 21/4/4
f 52/4/16 23/4/11 21/4/11
f 23/4/11 52/4/16 40/4/16
f 29/7/15 42/6/17 41/7/15
f 42/6/17 29/7/15 30/6/17
f 35/5/18 52/4/16 47/5/18
f 52/4/16 35/5/18 40/4/16
f 30/6/17 47/5/18 42/6/17
f 47/5/18 30/6/17 35/5/18
f 44/11/4 45/10/4 43/10/4
f 45/10/4 44/11/4 46/11/4
f 46/11/4 44/11/4 53/12/4
f 46/11/4 53/12/4 54/12/4
f 54/12/4 53/12/4 49/13/4
f 54/12/4 49/13/4 51/13/4
f 33/10/5 32/11/5 31/10/5
f 32/11/5 33/10/5 34/11/5
f 32/11/5 34/11/5 55/12/5
f 55/12/5 34/11/5 56/12/5
f 55/12/5 56/12/5 37/13/5
f 37/13/5 56/12/5 39/13/5

