# Created by Kenney (www.kenney.nl)

mtllib conveyor-bars-sides.mtl

g Group

v 0.5 0.2 -0.45 1 1 1
v 0.5 0.2 -0.4 1 1 1
v -0.5 0.2 -0.45 1 1 1
v -0.5 0.2 -0.4 1 1 1
v 0.5 5.86553E-16 0.5 1 1 1
v 0.5 5.86553E-16 0.4 1 1 1
v -0.5 5.86553E-16 0.5 1 1 1
v -0.5 5.86553E-16 0.4 1 1 1
v -0.5 0.2 0.4 1 1 1
v 0.5 0.2 0.4 1 1 1
v 0.5 0.15 0.5 1 1 1
v -0.5 0.15 0.5 1 1 1
v 0.5 0 -0.4 1 1 1
v 0.5 0 -0.5 1 1 1
v -0.5 0 -0.4 1 1 1
v -0.5 0 -0.5 1 1 1
v 0.5 0.15 -0.5 1 1 1
v -0.5 0.15 -0.5 1 1 1
v 0.5 0.2 0.45 1 1 1
v -0.5 0.2 0.45 1 1 1

vn 0 0.9238795 -0.3826834
vn 0 1 0
vn 0 -1 0
vn 0 0 -1
vn 0 0 1
vn 0 0.3826834 0.9238795
vn 1 0 0
vn -1 0 0
vn 0 0.9238795 0.3826834
vn 0 0.3826834 -0.9238795

vt 0.34375 0.225
vt 0.34375 0.025
vt 0.34375 0.175

usemtl colormap

f 3/1/1 2/1/2 1/1/1
f 2/1/2 3/1/1 4/1/2
f 7/2/3 6/2/3 5/2/3
f 6/2/3 7/2/3 8/2/3
f 9/1/4 6/2/4 8/2/4
f 6/2/4 9/1/4 10/1/4
f 11/3/6 7/2/5 5/2/5
f 7/2/5 11/3/6 12/3/6
f 15/2/3 14/2/3 13/2/3
f 14/2/3 15/2/3 16/2/3
f 1/1/7 14/2/7 17/3/7
f 14/2/7 1/1/7 13/2/7
f 13/2/7 1/1/7 2/1/7
f 15/2/8 18/3/8 16/2/8
f 18/3/8 15/2/8 3/1/8
f 3/1/8 15/2/8 4/1/8
f 10/1/2 20/1/9 19/1/9
f 20/1/9 10/1/2 9/1/2
f 3/1/1 17/3/10 18/3/10
f 17/3/10 3/1/1 1/1/1
f 19/1/9 12/3/6 11/3/6
f 12/3/6 19/1/9 20/1/9
f 18/3/10 14/2/4 16/2/4
f 14/2/4 18/3/10 17/3/10
f 7/2/8 9/1/8 8/2/8
f 9/1/8 7/2/8 20/1/8
f 20/1/8 7/2/8 12/3/8
f 19/1/7 6/2/7 10/1/7
f 6/2/7 19/1/7 5/2/7
f 5/2/7 19/1/7 11/3/7
f 2/1/5 15/2/5 13/2/5
f 15/2/5 2/1/5 4/1/5

g Group

v 0.3125 0.05 -0.4 1 1 1
v 0.4375 0.05 -0.4 1 1 1
v 0.25 0.1125 -0.4 1 1 1
v 0.3125 0.1125 -0.4 1 1 1
v 0.4375 0.1125 -0.4 1 1 1
v 0.5 0.1125 -0.4 1 1 1
v 0.4375 0.2375 -0.4 1 1 1
v 0.5 0.2375 -0.4 1 1 1
v 0.3125 0.2375 -0.4 1 1 1
v 0.3125 0.3 -0.4 1 1 1
v 0.4375 0.3 -0.4 1 1 1
v 0.25 0.2375 -0.4 1 1 1
v 0.1875 0.2375 -0.4 1 1 1
v 0.1875 0.1125 -0.4 1 1 1
v 0.1875 0.05 -0.4 1 1 1
v 0.0625 0.1125 -0.4 1 1 1
v 0.0625 0.3 -0.4 1 1 1
v 0.1875 0.3 -0.4 1 1 1
v 0.0625 0.2375 -0.4 1 1 1
v 7.219114E-16 0.2375 -0.4 1 1 1
v 7.219114E-16 0.1125 -0.4 1 1 1
v 0.0625 0.05 -0.4 1 1 1
v -0.0625 0.2375 -0.4 1 1 1
v -0.0625 0.1125 -0.4 1 1 1
v -0.0625 0.05 -0.4 1 1 1
v -0.1875 0.1125 -0.4 1 1 1
v -0.1875 0.3 -0.4 1 1 1
v -0.0625 0.3 -0.4 1 1 1
v -0.1875 0.2375 -0.4 1 1 1
v -0.25 0.2375 -0.4 1 1 1
v -0.25 0.1125 -0.4 1 1 1
v -0.1875 0.05 -0.4 1 1 1
v -0.3125 0.2375 -0.4 1 1 1
v -0.3125 0.1125 -0.4 1 1 1
v -0.3125 0.05 -0.4 1 1 1
v -0.4375 0.1125 -0.4 1 1 1
v -0.4375 0.3 -0.4 1 1 1
v -0.3125 0.3 -0.4 1 1 1
v -0.4375 0.2375 -0.4 1 1 1
v -0.5 0.2375 -0.4 1 1 1
v -0.5 0.1125 -0.4 1 1 1
v -0.4375 0.05 -0.4 1 1 1
v 0.4375 0.3 0.4 1 1 1
v 0.3125 0.3 0.4 1 1 1
v 0.25 0.2375 0.4 1 1 1
v 0.5 0.2375 0.4 1 1 1
v 0.5 0.1125 0.4 1 1 1
v 0.3125 0.05 0.4 1 1 1
v 0.25 0.1125 0.4 1 1 1
v 0.4375 0.05 0.4 1 1 1
v 0.4375 0.1125 0.4 1 1 1
v 0.3125 0.1125 0.4 1 1 1
v 0.4375 0.2375 0.4 1 1 1
v 0.3125 0.2375 0.4 1 1 1
v 0.1875 0.2375 0.4 1 1 1
v 0.1875 0.3 0.4 1 1 1
v 0.1875 0.1125 0.4 1 1 1
v 0.0625 0.2375 0.4 1 1 1
v 0.0625 0.05 0.4 1 1 1
v 0.1875 0.05 0.4 1 1 1
v 0.0625 0.1125 0.4 1 1 1
v 7.219114E-16 0.1125 0.4 1 1 1
v 7.219114E-16 0.2375 0.4 1 1 1
v 0.0625 0.3 0.4 1 1 1
v -0.0625 0.2375 0.4 1 1 1
v -0.0625 0.3 0.4 1 1 1
v -0.0625 0.1125 0.4 1 1 1
v -0.1875 0.2375 0.4 1 1 1
v -0.1875 0.05 0.4 1 1 1
v -0.0625 0.05 0.4 1 1 1
v -0.1875 0.1125 0.4 1 1 1
v -0.25 0.1125 0.4 1 1 1
v -0.25 0.2375 0.4 1 1 1
v -0.1875 0.3 0.4 1 1 1
v -0.3125 0.2375 0.4 1 1 1
v -0.3125 0.3 0.4 1 1 1
v -0.3125 0.1125 0.4 1 1 1
v -0.4375 0.2375 0.4 1 1 1
v -0.4375 0.05 0.4 1 1 1
v -0.3125 0.05 0.4 1 1 1
v -0.4375 0.1125 0.4 1 1 1
v -0.5 0.1125 0.4 1 1 1
v -0.5 0.2375 0.4 1 1 1
v -0.4375 0.3 0.4 1 1 1

vn 0.3826834 0.9238795 0
vn -0.3826834 0.9238795 0
vn -0.7071068 0.7071068 0
vn 0.9238795 0.3826834 0
vn 0.9238795 -0.3826834 0
vn -0.3826834 -0.9238795 0
vn -0.7071068 -0.7071068 0
vn 0.3826834 -0.9238795 0
vn 0.7071068 -0.7071068 0
vn -0.9238795 -0.3826834 0
vn 0.7071068 0.7071068 0
vn -0.9238795 0.3826834 0

vt 0.21875 0.025
vt 0.21875 0.075
vt 0.21875 0.175
vt 0.21875 0.225
vt 0.09375 0.025
vt 0.09375 0.225

usemtl colormap

f 23/5/4 22/4/4 21/4/4
f 22/4/4 23/5/4 24/5/4
f 22/4/4 24/5/4 25/5/4
f 25/5/4 26/5/4 22/4/4
f 26/5/4 25/5/4 27/6/4
f 26/5/4 27/6/4 28/6/4
f 24/5/4 23/5/4 29/6/4
f 27/6/4 30/7/4 28/6/4
f 29/6/4 30/7/4 27/6/4
f 28/6/4 30/7/4 31/7/4
f 29/6/4 32/6/4 30/7/4
f 29/6/4 23/5/4 32/6/4
f 23/5/4 33/6/4 32/6/4
f 23/5/4 34/5/4 33/6/4
f 34/5/4 23/5/4 35/4/4
f 35/4/4 36/5/4 34/5/4
f 33/6/4 37/7/4 32/6/4
f 32/6/4 37/7/4 38/7/4
f 39/6/4 37/7/4 33/6/4
f 39/6/4 40/6/4 37/7/4
f 35/4/4 41/5/4 36/5/4
f 36/5/4 41/5/4 39/6/4
f 39/6/4 41/5/4 40/6/4
f 41/5/4 35/4/4 42/4/4
f 41/5/4 43/6/4 40/6/4
f 41/5/4 44/5/4 43/6/4
f 44/5/4 41/5/4 45/4/4
f 45/4/4 46/5/4 44/5/4
f 43/6/4 47/7/4 40/6/4
f 40/6/4 47/7/4 48/7/4
f 49/6/4 47/7/4 43/6/4
f 49/6/4 50/6/4 47/7/4
f 45/4/4 51/5/4 46/5/4
f 46/5/4 51/5/4 49/6/4
f 49/6/4 51/5/4 50/6/4
f 51/5/4 45/4/4 52/4/4
f 51/5/4 53/6/4 50/6/4
f 51/5/4 54/5/4 53/6/4
f 54/5/4 51/5/4 55/4/4
f 55/4/4 56/5/4 54/5/4
f 53/6/4 57/7/4 50/6/4
f 50/6/4 57/7/4 58/7/4
f 59/6/4 57/7/4 53/6/4
f 59/6/4 60/6/4 57/7/4
f 59/6/4 61/5/4 60/6/4
f 56/5/4 61/5/4 59/6/4
f 55/4/4 61/5/4 56/5/4
f 61/5/4 55/4/4 62/4/4
f 30/7/12 63/7/11 31/7/11
f 63/7/11 30/7/12 64/7/12
f 32/6/13 64/7/12 30/7/12
f 64/7/12 32/6/13 65/6/13
f 66/6/14 26/5/15 28/6/14
f 26/5/15 66/6/14 67/5/15
f 63/7/11 28/6/14 31/7/11
f 28/6/14 63/7/11 66/6/14
f 69/5/17 21/4/16 68/4/16
f 21/4/16 69/5/17 23/5/17
f 67/5/5 68/4/5 70/4/5
f 68/4/5 67/5/5 71/5/5
f 72/5/5 68/4/5 71/5/5
f 71/5/5 67/5/5 73/6/5
f 73/6/5 67/5/5 66/6/5
f 68/4/5 72/5/5 69/5/5
f 73/6/5 66/6/5 63/7/5
f 73/6/5 63/7/5 74/6/5
f 69/5/5 72/5/5 74/6/5
f 74/6/5 63/7/5 65/6/5
f 69/5/5 74/6/5 65/6/5
f 65/6/5 63/7/5 64/7/5
f 75/6/5 69/5/5 65/6/5
f 75/6/5 65/6/5 76/7/5
f 77/5/5 69/5/5 75/6/5
f 75/6/5 76/7/5 78/6/5
f 79/4/5 69/5/5 77/5/5
f 69/5/5 79/4/5 80/4/5
f 81/5/5 79/4/5 77/5/5
f 79/4/5 81/5/5 82/5/5
f 82/5/5 81/5/5 78/6/5
f 78/6/5 76/7/5 83/6/5
f 82/5/5 78/6/5 83/6/5
f 83/6/5 76/7/5 84/7/5
f 85/6/5 82/5/5 83/6/5
f 85/6/5 83/6/5 86/7/5
f 87/5/5 82/5/5 85/6/5
f 85/6/5 86/7/5 88/6/5
f 89/4/5 82/5/5 87/5/5
f 82/5/5 89/4/5 90/4/5
f 91/5/5 89/4/5 87/5/5
f 89/4/5 91/5/5 92/5/5
f 92/5/5 91/5/5 88/6/5
f 88/6/5 86/7/5 93/6/5
f 92/5/5 88/6/5 93/6/5
f 93/6/5 86/7/5 94/7/5
f 95/6/5 92/5/5 93/6/5
f 95/6/5 93/6/5 96/7/5
f 97/5/5 92/5/5 95/6/5
f 95/6/5 96/7/5 98/6/5
f 99/4/5 92/5/5 97/5/5
f 92/5/5 99/4/5 100/4/5
f 101/5/5 99/4/5 97/5/5
f 99/4/5 101/5/5 102/5/5
f 102/5/5 101/5/5 98/6/5
f 102/5/5 98/6/5 103/6/5
f 98/6/5 96/7/5 103/6/5
f 103/6/5 96/7/5 104/7/5
f 89/4/16 45/4/18 90/4/18
f 45/4/18 89/4/16 52/4/16
f 90/4/18 41/5/19 82/5/19
f 41/5/19 90/4/18 45/4/18
f 93/6/13 47/7/12 50/6/13
f 47/7/12 93/6/13 94/7/12
f 47/7/12 86/7/11 48/7/11
f 86/7/11 47/7/12 94/7/12
f 99/4/16 61/5/20 62/4/16
f 61/5/20 99/4/16 102/5/20
f 79/4/16 41/5/17 42/4/16
f 41/5/17 79/4/16 82/5/17
f 86/7/11 40/6/21 48/7/11
f 40/6/21 86/7/11 83/6/21
f 96/7/11 50/6/21 58/7/11
f 50/6/21 96/7/11 93/6/21
f 80/4/18 23/5/19 69/5/19
f 23/5/19 80/4/18 35/4/18
f 99/4/16 55/4/18 100/4/18
f 55/4/18 99/4/16 62/4/16
f 67/5/15 22/4/18 26/5/15
f 22/4/18 67/5/15 70/4/18
f 76/7/11 32/6/21 38/7/11
f 32/6/21 76/7/11 65/6/21
f 103/6/22 57/7/12 60/6/22
f 57/7/12 103/6/22 104/7/12
f 37/7/12 76/7/11 38/7/11
f 76/7/11 37/7/12 84/7/12
f 57/7/12 96/7/11 58/7/11
f 96/7/11 57/7/12 104/7/12
f 68/4/16 22/4/18 70/4/18
f 22/4/18 68/4/16 21/4/16
f 92/5/17 52/4/16 89/4/16
f 52/4/16 92/5/17 51/5/17
f 79/4/16 35/4/18 80/4/18
f 35/4/18 79/4/16 42/4/16
f 100/4/18 51/5/19 92/5/19
f 51/5/19 100/4/18 55/4/18
f 83/6/13 37/7/12 40/6/13
f 37/7/12 83/6/13 84/7/12
f 102/5/20 60/6/22 61/5/20
f 60/6/22 102/5/20 103/6/22
f 24/8/4 27/9/4 25/8/4
f 27/9/4 24/8/4 29/9/4
f 36/8/4 33/9/4 34/8/4
f 33/9/4 36/8/4 39/9/4
f 46/8/4 43/9/4 44/8/4
f 43/9/4 46/8/4 49/9/4
f 95/9/5 101/8/5 97/8/5
f 101/8/5 95/9/5 98/9/5
f 85/9/5 91/8/5 87/8/5
f 91/8/5 85/9/5 88/9/5
f 73/9/5 72/8/5 71/8/5
f 72/8/5 73/9/5 74/9/5
f 75/9/5 81/8/5 77/8/5
f 81/8/5 75/9/5 78/9/5
f 56/8/4 53/9/4 54/8/4
f 53/9/4 56/8/4 59/9/4

