# Created by Kenney (www.kenney.nl)

mtllib conveyor-bars-fence.mtl

g Group

v 0.5027962 0.55 -0.45 1 1 1
v 0.5027962 0.55 -0.5 1 1 1
v -0.4972038 0.55 -0.45 1 1 1
v 0.075 0.55 -0.5 1 1 1
v -0.075 0.55 -0.5 1 1 1
v -0.4972038 0.55 -0.5 1 1 1
v 0.5027962 0.75 -0.5 1 1 1
v 0.5027962 0.75 -0.45 1 1 1
v 0.075 0.75 -0.5 1 1 1
v -0.4972038 0.75 -0.45 1 1 1
v -0.075 0.75 -0.5 1 1 1
v -0.4972038 0.75 -0.5 1 1 1
v 0.4972038 0.55 0.5 1 1 1
v 0.075 0.55 0.5 1 1 1
v 0.4972038 0.75 0.5 1 1 1
v 0.075 0.75 0.5 1 1 1
v -0.5027962 0.55 0.45 1 1 1
v 0.4972038 0.55 0.45 1 1 1
v -0.5027962 0.75 0.45 1 1 1
v 0.4972038 0.75 0.45 1 1 1
v -0.075 0.75 0.5 1 1 1
v -0.5027962 0.75 0.5 1 1 1
v -0.075 0.55 0.5 1 1 1
v -0.5027962 0.55 0.5 1 1 1
v 0.125 0.1 -0.45 1 1 1
v 0.125 0.1 -0.55 1 1 1
v -0.125 0.1 -0.45 1 1 1
v -0.125 0.1 -0.55 1 1 1
v 0.125 0.3 -0.6 1 1 1
v 0.125 0.15 -0.6 1 1 1
v 0.125 0.3 -0.45 1 1 1
v -0.125 0.3 -0.45 1 1 1
v -0.125 0.15 -0.6 1 1 1
v -0.125 0.3 -0.6 1 1 1
v 0.125 0.15 0.6 1 1 1
v -0.125 0.15 0.6 1 1 1
v 0.125 0.3 0.6 1 1 1
v -0.125 0.3 0.6 1 1 1
v -0.125 0.1 0.45 1 1 1
v -0.125 0.3 0.45 1 1 1
v -0.125 0.1 0.55 1 1 1
v 0.125 0.1 0.45 1 1 1
v 0.125 0.3 0.45 1 1 1
v 0.125 0.1 0.55 1 1 1
v -0.075 0.3 0.5 1 1 1
v 0.075 0.3 0.5 1 1 1
v -0.075 0.3 0.55 1 1 1
v 0.075 0.3 0.55 1 1 1
v -0.075 0.3 -0.55 1 1 1
v 0.075 0.3 -0.55 1 1 1
v -0.075 0.3 -0.5 1 1 1
v 0.075 0.3 -0.5 1 1 1
v -0.075 0.8 -0.55 1 1 1
v 0.075 0.8 -0.55 1 1 1
v -0.075 0.8 -0.5 1 1 1
v 0.075 0.8 -0.5 1 1 1
v -0.075 0.8 0.5 1 1 1
v -0.075 0.8 0.55 1 1 1
v 0.075 0.8 0.5 1 1 1
v 0.075 0.8 0.55 1 1 1

vn 0 -0.7071068 0.7071068
vn 0 -0.7071068 -0.7071068
vn 0 -0.8944272 -0.4472136
vn 0 0.7071068 -0.7071068
vn 0 0.7071068 0.7071068
vn 0 0.8944272 -0.4472136
vn 1 0 0
vn -1 0 0
vn 0 -0.8944272 0.4472136
vn 0 0.8944272 0.4472136
vn 0 -1 0
vn 0 -0.9238795 -0.3826834
vn 0 0 1
vn 0 -0.3826834 -0.9238795
vn 0 0 -1
vn 0 -0.3826834 0.9238795
vn 0 -0.9238795 0.3826834
vn 0 1 0

vt 0.21875 0.4035714
vt 0.21875 0.4607143
vt 0.34375 0.025
vt 0.34375 0.08214286
vt 0.34375 0.03928572
vt 0.21875 0.08214286
vt 0.21875 0.225
vt 0.21875 0.1535714
vt 0.21875 0.2107143

usemtl colormap

f 3/1/1 2/1/2 1/1/1
f 2/1/2 3/1/1 4/1/3
f 4/1/3 3/1/1 5/1/3
f 5/1/3 3/1/1 6/1/2
f 9/2/6 8/2/5 7/2/4
f 8/2/5 9/2/6 10/2/5
f 10/2/5 9/2/6 11/2/6
f 10/2/5 11/2/6 12/2/4
f 8/2/7 2/1/7 7/2/7
f 2/1/7 8/2/7 1/1/7
f 8/2/5 3/1/1 1/1/1
f 3/1/1 8/2/5 10/2/5
f 3/1/8 12/2/8 6/1/8
f 12/2/8 3/1/8 10/2/8
f 9/2/6 2/1/2 4/1/3
f 2/1/2 9/2/6 7/2/4
f 12/2/4 5/1/3 6/1/2
f 5/1/3 12/2/4 11/2/6
f 15/2/5 14/1/9 13/1/1
f 14/1/9 15/2/5 16/2/10
f 19/2/4 18/1/2 17/1/2
f 18/1/2 19/2/4 20/2/4
f 15/2/7 18/1/7 20/2/7
f 18/1/7 15/2/7 13/1/7
f 19/2/4 15/2/5 20/2/4
f 15/2/5 19/2/4 16/2/10
f 16/2/10 19/2/4 21/2/10
f 21/2/10 19/2/4 22/2/5
f 21/2/10 24/1/1 23/1/9
f 24/1/1 21/2/10 22/2/5
f 13/1/1 17/1/2 18/1/2
f 17/1/2 13/1/1 14/1/9
f 17/1/2 14/1/9 23/1/9
f 17/1/2 23/1/9 24/1/1
f 24/1/8 19/2/8 17/1/8
f 19/2/8 24/1/8 22/2/8
f 27/3/11 26/3/12 25/3/11
f 26/3/12 27/3/11 28/3/12
f 31/4/7 30/5/7 29/4/7
f 30/5/7 31/4/7 26/3/7
f 26/3/7 31/4/7 25/3/7
f 31/4/13 27/3/13 25/3/13
f 27/3/13 31/4/13 32/4/13
f 28/3/12 30/5/14 26/3/12
f 30/5/14 28/3/12 33/5/14
f 28/3/8 34/4/8 33/5/8
f 34/4/8 28/3/8 32/4/8
f 32/4/8 28/3/8 27/3/8
f 34/4/15 30/5/14 33/5/14
f 30/5/14 34/4/15 29/4/15
f 37/4/13 36/5/16 35/5/16
f 36/5/16 37/4/13 38/4/13
f 41/3/8 40/4/8 39/3/8
f 40/4/8 41/3/8 38/4/8
f 38/4/8 41/3/8 36/5/8
f 40/4/15 42/3/15 39/3/15
f 42/3/15 40/4/15 43/4/15
f 35/5/16 41/3/17 44/3/17
f 41/3/17 35/5/16 36/5/16
f 37/4/7 42/3/7 43/4/7
f 42/3/7 37/4/7 44/3/7
f 44/3/7 37/4/7 35/5/7
f 44/3/17 39/3/11 42/3/11
f 39/3/11 44/3/17 41/3/17
f 46/4/18 40/4/18 45/4/18
f 45/4/18 40/4/18 47/4/18
f 46/4/18 43/4/18 40/4/18
f 38/4/18 47/4/18 40/4/18
f 43/4/18 46/4/18 37/4/18
f 38/4/18 48/4/18 47/4/18
f 37/4/18 48/4/18 38/4/18
f 48/4/18 37/4/18 46/4/18
f 50/4/18 34/4/18 49/4/18
f 49/4/18 34/4/18 51/4/18
f 50/4/18 29/4/18 34/4/18
f 32/4/18 51/4/18 34/4/18
f 29/4/18 50/4/18 31/4/18
f 32/4/18 52/4/18 51/4/18
f 31/4/18 52/4/18 32/4/18
f 52/4/18 31/4/18 50/4/18
f 53/7/15 50/6/15 49/6/15
f 50/6/15 53/7/15 54/7/15
f 51/6/8 53/7/8 49/6/8
f 53/7/8 51/6/8 5/8/8
f 11/9/8 53/7/8 5/8/8
f 53/7/8 11/9/8 55/7/8
f 53/7/18 56/7/18 54/7/18
f 56/7/18 53/7/18 55/7/18
f 56/7/13 11/9/13 9/9/13
f 11/9/13 56/7/13 55/7/13
f 56/7/7 50/6/7 54/7/7
f 50/6/7 56/7/7 9/9/7
f 4/8/7 50/6/7 9/9/7
f 50/6/7 4/8/7 52/6/7
f 4/8/13 51/6/13 52/6/13
f 51/6/13 4/8/13 5/8/13
f 23/8/15 46/6/15 45/6/15
f 46/6/15 23/8/15 14/8/15
f 47/6/8 23/8/8 45/6/8
f 23/8/8 47/6/8 21/9/8
f 21/9/8 47/6/8 57/7/8
f 57/7/8 47/6/8 58/7/8
f 57/7/15 16/9/15 21/9/15
f 16/9/15 57/7/15 59/7/15
f 60/7/7 16/9/7 59/7/7
f 16/9/7 60/7/7 14/8/7
f 14/8/7 60/7/7 46/6/7
f 46/6/7 60/7/7 48/6/7
f 60/7/13 47/6/13 48/6/13
f 47/6/13 60/7/13 58/7/13
f 57/7/18 60/7/18 59/7/18
f 60/7/18 57/7/18 58/7/18

g Group

v -0.5 0.3 -0.5 1 1 1
v 0.5 0.3 -0.5 1 1 1
v -0.5 0.4 -0.5 1 1 1
v 0.5 0.4 -0.5 1 1 1
v 0.5 0.4 -0.4 1 1 1
v -0.5 0.4 -0.4 1 1 1
v 0.5 0 -0.4 1 1 1
v 0.5 0 -0.5 1 1 1
v -0.5 0 -0.4 1 1 1
v -0.5 0 -0.5 1 1 1
v -0.5 0.1 -0.5 1 1 1
v 0.5 0.1 -0.5 1 1 1
v 0.5 0.275 -0.45 1 1 1
v 0.5 0.125 -0.45 1 1 1
v -0.5 0.275 -0.45 1 1 1
v -0.5 0.125 -0.45 1 1 1
v 0.5 0.3 0.5 1 1 1
v -0.5 0.3 0.5 1 1 1
v 0.5 0.4 0.5 1 1 1
v -0.5 0.4 0.5 1 1 1
v 0.5 4.511946E-17 0.5 1 1 1
v 0.5 4.511946E-17 0.4 1 1 1
v -0.5 4.511946E-17 0.5 1 1 1
v -0.5 4.511946E-17 0.4 1 1 1
v 0.5 0.4 0.4 1 1 1
v -0.5 0.4 0.4 1 1 1
v 0.5 0.1 0.5 1 1 1
v -0.5 0.1 0.5 1 1 1
v 0.5 0.125 0.45 1 1 1
v -0.5 0.125 0.45 1 1 1
v 0.5 0.275 0.45 1 1 1
v -0.5 0.275 0.45 1 1 1

vn 0 -0.5257311 -0.8506508
vn 0 0.5257311 -0.8506508
vn 0 -0.5257311 0.8506508
vn 0 0.5257311 0.8506508

vt 0.34375 0.175
vt 0.34375 0.225
vt 0.34375 0.075
vt 0.34375 0.1625
vt 0.34375 0.0875
vt 0.21875 0.0875
vt 0.21875 0.1625

usemtl colormap

f 63/11/15 62/10/19 61/10/19
f 62/10/19 63/11/15 64/11/15
f 63/11/18 65/11/18 64/11/18
f 65/11/18 63/11/18 66/11/18
f 69/3/11 68/3/11 67/3/11
f 68/3/11 69/3/11 70/3/11
f 65/11/13 69/3/13 67/3/13
f 69/3/13 65/11/13 66/11/13
f 71/12/20 68/3/15 70/3/15
f 68/3/15 71/12/20 72/12/20
f 65/11/7 62/10/7 64/11/7
f 62/10/7 65/11/7 73/13/7
f 73/13/7 65/11/7 74/14/7
f 67/3/7 74/14/7 65/11/7
f 68/3/7 74/14/7 67/3/7
f 74/14/7 68/3/7 72/12/7
f 75/13/3 62/10/19 73/13/3
f 62/10/19 75/13/3 61/10/19
f 69/3/8 71/12/8 70/3/8
f 71/12/8 69/3/8 76/14/8
f 76/14/8 69/3/8 75/13/8
f 66/11/8 75/13/8 69/3/8
f 63/11/8 75/13/8 66/11/8
f 75/13/8 63/11/8 61/10/8
f 71/12/20 74/14/6 72/12/20
f 74/14/6 71/12/20 76/14/6
f 79/11/13 78/10/21 77/10/21
f 78/10/21 79/11/13 80/11/13
f 83/3/11 82/3/11 81/3/11
f 82/3/11 83/3/11 84/3/11
f 85/11/18 80/11/18 79/11/18
f 80/11/18 85/11/18 86/11/18
f 89/14/10 88/12/22 87/12/22
f 88/12/22 89/14/10 90/14/10
f 91/13/7 79/11/7 77/10/7
f 91/13/7 85/11/7 79/11/7
f 85/11/7 91/13/7 82/3/7
f 89/14/7 82/3/7 91/13/7
f 82/3/7 89/14/7 81/3/7
f 81/3/7 89/14/7 87/12/7
f 86/11/15 82/3/15 84/3/15
f 82/3/15 86/11/15 85/11/15
f 90/14/8 83/3/8 88/12/8
f 90/14/8 84/3/8 83/3/8
f 84/3/8 90/14/8 86/11/8
f 92/13/8 86/11/8 90/14/8
f 86/11/8 92/13/8 80/11/8
f 80/11/8 92/13/8 78/10/8
f 78/10/21 91/13/9 77/10/21
f 91/13/9 78/10/21 92/13/9
f 87/12/22 83/3/13 81/3/13
f 83/3/13 87/12/22 88/12/22
f 75/16/15 74/15/15 76/15/15
f 74/15/15 75/16/15 73/16/15
f 91/16/13 90/15/13 89/15/13
f 90/15/13 91/16/13 92/16/13

g Group

v 0.3125 0.1 -0.4 1 1 1
v 0.4375 0.1 -0.4 1 1 1
v 0.25 0.1625 -0.4 1 1 1
v 0.3125 0.1625 -0.4 1 1 1
v 0.4375 0.1625 -0.4 1 1 1
v 0.5000001 0.1625 -0.4 1 1 1
v 0.4375 0.2875 -0.4 1 1 1
v 0.5000001 0.2875 -0.4 1 1 1
v 0.3125 0.2875 -0.4 1 1 1
v 0.3125 0.35 -0.4 1 1 1
v 0.4375 0.35 -0.4 1 1 1
v 0.25 0.2875 -0.4 1 1 1
v 0.1875 0.2875 -0.4 1 1 1
v 0.1875 0.1625 -0.4 1 1 1
v 0.1875 0.1 -0.4 1 1 1
v 0.06250004 0.1625 -0.4 1 1 1
v 0.06250004 0.35 -0.4 1 1 1
v 0.1875 0.35 -0.4 1 1 1
v 0.06250004 0.2875 -0.4 1 1 1
v 3.417551E-08 0.2875 -0.4 1 1 1
v 3.417551E-08 0.1625 -0.4 1 1 1
v 0.06250004 0.1 -0.4 1 1 1
v -0.06249997 0.2875 -0.4 1 1 1
v -0.06249997 0.1625 -0.4 1 1 1
v -0.06249997 0.1 -0.4 1 1 1
v -0.1875 0.1625 -0.4 1 1 1
v -0.1875 0.35 -0.4 1 1 1
v -0.06249997 0.35 -0.4 1 1 1
v -0.1875 0.2875 -0.4 1 1 1
v -0.25 0.2875 -0.4 1 1 1
v -0.25 0.1625 -0.4 1 1 1
v -0.1875 0.1 -0.4 1 1 1
v -0.3125 0.2875 -0.4 1 1 1
v -0.3125 0.1625 -0.4 1 1 1
v -0.3125 0.1 -0.4 1 1 1
v -0.4375 0.1625 -0.4 1 1 1
v -0.4375 0.35 -0.4 1 1 1
v -0.3125 0.35 -0.4 1 1 1
v -0.4375 0.2875 -0.4 1 1 1
v -0.5 0.2875 -0.4 1 1 1
v -0.5 0.1625 -0.4 1 1 1
v -0.4375 0.1 -0.4 1 1 1
v 0.4375 0.35 0.4 1 1 1
v 0.3125 0.35 0.4 1 1 1
v 0.25 0.2875 0.4 1 1 1
v 0.5000001 0.2875 0.4 1 1 1
v 0.5000001 0.1625 0.4 1 1 1
v 0.3125 0.1 0.4 1 1 1
v 0.25 0.1625 0.4 1 1 1
v 0.4375 0.1 0.4 1 1 1
v 0.4375 0.1625 0.4 1 1 1
v 0.3125 0.1625 0.4 1 1 1
v 0.4375 0.2875 0.4 1 1 1
v 0.3125 0.2875 0.4 1 1 1
v 0.1875 0.2875 0.4 1 1 1
v 0.1875 0.35 0.4 1 1 1
v 0.1875 0.1625 0.4 1 1 1
v 0.06250004 0.2875 0.4 1 1 1
v 0.06250004 0.1 0.4 1 1 1
v 0.1875 0.1 0.4 1 1 1
v 0.06250004 0.1625 0.4 1 1 1
v 3.417551E-08 0.1625 0.4 1 1 1
v 3.417551E-08 0.2875 0.4 1 1 1
v 0.06250004 0.35 0.4 1 1 1
v -0.06249997 0.2875 0.4 1 1 1
v -0.06249997 0.35 0.4 1 1 1
v -0.06249997 0.1625 0.4 1 1 1
v -0.1875 0.2875 0.4 1 1 1
v -0.1875 0.1 0.4 1 1 1
v -0.06249997 0.1 0.4 1 1 1
v -0.1875 0.1625 0.4 1 1 1
v -0.25 0.1625 0.4 1 1 1
v -0.25 0.2875 0.4 1 1 1
v -0.1875 0.35 0.4 1 1 1
v -0.3125 0.2875 0.4 1 1 1
v -0.3125 0.35 0.4 1 1 1
v -0.3125 0.1625 0.4 1 1 1
v -0.4375 0.2875 0.4 1 1 1
v -0.4375 0.1 0.4 1 1 1
v -0.3125 0.1 0.4 1 1 1
v -0.4375 0.1625 0.4 1 1 1
v -0.5 0.1625 0.4 1 1 1
v -0.5 0.2875 0.4 1 1 1
v -0.4375 0.35 0.4 1 1 1

vn 0.3826834 0.9238795 0
vn -0.3826834 0.9238795 0
vn -0.7071068 0.7071068 0
vn 0.9238795 0.3826834 0
vn 0.9238795 -0.3826834 0
vn -0.3826834 -0.9238795 0
vn -0.7071068 -0.7071068 0
vn 0.3826834 -0.9238795 0
vn 0.7071068 -0.7071068 0
vn -0.9238795 -0.3826834 0
vn 0.7071068 0.7071068 0
vn -0.9238795 0.3826834 0

vt 0.21875 0.025
vt 0.21875 0.075
vt 0.21875 0.175
vt 0.09375 0.025
vt 0.09375 0.225

usemtl colormap

f 95/18/15 94/17/15 93/17/15
f 94/17/15 95/18/15 96/18/15
f 94/17/15 96/18/15 97/18/15
f 97/18/15 98/18/15 94/17/15
f 98/18/15 97/18/15 99/19/15
f 98/18/15 99/19/15 100/19/15
f 96/18/15 95/18/15 101/19/15
f 99/19/15 102/7/15 100/19/15
f 101/19/15 102/7/15 99/19/15
f 100/19/15 102/7/15 103/7/15
f 101/19/15 104/19/15 102/7/15
f 101/19/15 95/18/15 104/19/15
f 95/18/15 105/19/15 104/19/15
f 95/18/15 106/18/15 105/19/15
f 106/18/15 95/18/15 107/17/15
f 107/17/15 108/18/15 106/18/15
f 105/19/15 109/7/15 104/19/15
f 104/19/15 109/7/15 110/7/15
f 111/19/15 109/7/15 105/19/15
f 111/19/15 112/19/15 109/7/15
f 107/17/15 113/18/15 108/18/15
f 108/18/15 113/18/15 111/19/15
f 111/19/15 113/18/15 112/19/15
f 113/18/15 107/17/15 114/17/15
f 113/18/15 115/19/15 112/19/15
f 113/18/15 116/18/15 115/19/15
f 116/18/15 113/18/15 117/17/15
f 117/17/15 118/18/15 116/18/15
f 115/19/15 119/7/15 112/19/15
f 112/19/15 119/7/15 120/7/15
f 121/19/15 119/7/15 115/19/15
f 121/19/15 122/19/15 119/7/15
f 117/17/15 123/18/15 118/18/15
f 118/18/15 123/18/15 121/19/15
f 121/19/15 123/18/15 122/19/15
f 123/18/15 117/17/15 124/17/15
f 123/18/15 125/19/15 122/19/15
f 123/18/15 126/18/15 125/19/15
f 126/18/15 123/18/15 127/17/15
f 127/17/15 128/18/15 126/18/15
f 125/19/15 129/7/15 122/19/15
f 122/19/15 129/7/15 130/7/15
f 131/19/15 129/7/15 125/19/15
f 131/19/15 132/19/15 129/7/15
f 131/19/15 133/18/15 132/19/15
f 128/18/15 133/18/15 131/19/15
f 127/17/15 133/18/15 128/18/15
f 133/18/15 127/17/15 134/17/15
f 102/7/24 135/7/23 103/7/23
f 135/7/23 102/7/24 136/7/24
f 104/19/25 136/7/24 102/7/24
f 136/7/24 104/19/25 137/19/25
f 138/19/26 98/18/27 100/19/26
f 98/18/27 138/19/26 139/18/27
f 135/7/23 100/19/26 103/7/23
f 100/19/26 135/7/23 138/19/26
f 141/18/29 93/17/28 140/17/28
f 93/17/28 141/18/29 95/18/29
f 139/18/13 140/17/13 142/17/13
f 140/17/13 139/18/13 143/18/13
f 144/18/13 140/17/13 143/18/13
f 143/18/13 139/18/13 145/19/13
f 145/19/13 139/18/13 138/19/13
f 140/17/13 144/18/13 141/18/13
f 145/19/13 138/19/13 135/7/13
f 145/19/13 135/7/13 146/19/13
f 141/18/13 144/18/13 146/19/13
f 146/19/13 135/7/13 137/19/13
f 141/18/13 146/19/13 137/19/13
f 137/19/13 135/7/13 136/7/13
f 147/19/13 141/18/13 137/19/13
f 147/19/13 137/19/13 148/7/13
f 149/18/13 141/18/13 147/19/13
f 147/19/13 148/7/13 150/19/13
f 151/17/13 141/18/13 149/18/13
f 141/18/13 151/17/13 152/17/13
f 153/18/13 151/17/13 149/18/13
f 151/17/13 153/18/13 154/18/13
f 154/18/13 153/18/13 150/19/13
f 150/19/13 148/7/13 155/19/13
f 154/18/13 150/19/13 155/19/13
f 155/19/13 148/7/13 156/7/13
f 157/19/13 154/18/13 155/19/13
f 157/19/13 155/19/13 158/7/13
f 159/18/13 154/18/13 157/19/13
f 157/19/13 158/7/13 160/19/13
f 161/17/13 154/18/13 159/18/13
f 154/18/13 161/17/13 162/17/13
f 163/18/13 161/17/13 159/18/13
f 161/17/13 163/18/13 164/18/13
f 164/18/13 163/18/13 160/19/13
f 160/19/13 158/7/13 165/19/13
f 164/18/13 160/19/13 165/19/13
f 165/19/13 158/7/13 166/7/13
f 167/19/13 164/18/13 165/19/13
f 167/19/13 165/19/13 168/7/13
f 169/18/13 164/18/13 167/19/13
f 167/19/13 168/7/13 170/19/13
f 171/17/13 164/18/13 169/18/13
f 164/18/13 171/17/13 172/17/13
f 173/18/13 171/17/13 169/18/13
f 171/17/13 173/18/13 174/18/13
f 174/18/13 173/18/13 170/19/13
f 174/18/13 170/19/13 175/19/13
f 170/19/13 168/7/13 175/19/13
f 175/19/13 168/7/13 176/7/13
f 161/17/28 117/17/30 162/17/30
f 117/17/30 161/17/28 124/17/28
f 162/17/30 113/18/31 154/18/31
f 113/18/31 162/17/30 117/17/30
f 165/19/25 119/7/24 122/19/25
f 119/7/24 165/19/25 166/7/24
f 119/7/24 158/7/23 120/7/23
f 158/7/23 119/7/24 166/7/24
f 171/17/28 133/18/32 134/17/28
f 133/18/32 171/17/28 174/18/32
f 151/17/28 113/18/29 114/17/28
f 113/18/29 151/17/28 154/18/29
f 158/7/23 112/19/33 120/7/23
f 112/19/33 158/7/23 155/19/33
f 168/7/23 122/19/33 130/7/23
f 122/19/33 168/7/23 165/19/33
f 152/17/30 95/18/31 141/18/31
f 95/18/31 152/17/30 107/17/30
f 171/17/28 127/17/30 172/17/30
f 127/17/30 171/17/28 134/17/28
f 139/18/27 94/17/30 98/18/27
f 94/17/30 139/18/27 142/17/30
f 148/7/23 104/19/33 110/7/23
f 104/19/33 148/7/23 137/19/33
f 175/19/34 129/7/24 132/19/34
f 129/7/24 175/19/34 176/7/24
f 109/7/24 148/7/23 110/7/23
f 148/7/23 109/7/24 156/7/24
f 129/7/24 168/7/23 130/7/23
f 168/7/23 129/7/24 176/7/24
f 140/17/28 94/17/30 142/17/30
f 94/17/30 140/17/28 93/17/28
f 164/18/29 124/17/28 161/17/28
f 124/17/28 164/18/29 123/18/29
f 151/17/28 107/17/30 152/17/30
f 107/17/30 151/17/28 114/17/28
f 172/17/30 123/18/31 164/18/31
f 123/18/31 172/17/30 127/17/30
f 155/19/25 109/7/24 112/19/25
f 109/7/24 155/19/25 156/7/24
f 174/18/32 132/19/34 133/18/32
f 132/19/34 174/18/32 175/19/34
f 157/21/13 163/20/13 159/20/13
f 163/20/13 157/21/13 160/21/13
f 145/21/13 144/20/13 143/20/13
f 144/20/13 145/21/13 146/21/13
f 108/20/15 105/21/15 106/20/15
f 105/21/15 108/20/15 111/21/15
f 96/20/15 99/21/15 97/20/15
f 99/21/15 96/20/15 101/21/15
f 118/20/15 115/21/15 116/20/15
f 115/21/15 118/20/15 121/21/15
f 167/21/13 173/20/13 169/20/13
f 173/20/13 167/21/13 170/21/13
f 128/20/15 125/21/15 126/20/15
f 125/21/15 128/20/15 131/21/15
f 147/21/13 153/20/13 149/20/13
f 153/20/13 147/21/13 150/21/13

