# Created by Kenney (www.kenney.nl)

mtllib cover-bar.mtl

g cover-bar

v -0.05 0.5 0.6 1 1 1
v 0.05 0.5 0.6 1 1 1
v -0.05 0.9 0.6 1 1 1
v 0.05 0.9 0.6 1 1 1
v -0.05 0.5 0.65 1 1 1
v -0.05 0.9 0.65 1 1 1
v 0.05 0.5 0.65 1 1 1
v 0.05 0.9 0.65 1 1 1
v -0.05 0.5 -0.65 1 1 1
v -0.05 0.9 -0.65 1 1 1
v -0.05 0.5 -0.6 1 1 1
v -0.05 0.9 -0.6 1 1 1
v -0.4 0.5 0.6 1 1 1
v -0.4 0.5 0.7 1 1 1
v 0.4 0.5 0.7 1 1 1
v 0.4 0.5 0.6 1 1 1
v 0.05 0.5 -0.65 1 1 1
v 0.05 0.9 -0.65 1 1 1
v -0.4 0.5 -0.6 1 1 1
v -0.4 0.5 -0.7 1 1 1
v 0.4 0.5 -0.7 1 1 1
v 0.4 0.5 -0.6 1 1 1
v 0.05 0.5 -0.6 1 1 1
v 0.05 0.9 -0.6 1 1 1
v -0.4 0.9 -0.7 1 1 1
v -0.4 0.9 -0.5 1 1 1
v -0.4 0.4 -0.6 1 1 1
v -0.4 0.4 -0.5 1 1 1
v 0.4 0.4 0.5 1 1 1
v 0.4 0.9 0.5 1 1 1
v 0.4 0.4 0.6 1 1 1
v 0.4 0.9 0.7 1 1 1
v 0.4 0.4 -0.6 1 1 1
v 0.5 1 0.5 1 1 1
v 0.5 1 -0.5 1 1 1
v -0.5 1 0.5 1 1 1
v -0.5 1 -0.5 1 1 1
v 0.4 0.4 -0.5 1 1 1
v 0.4 0.9 -0.5 1 1 1
v 0.4 0.9 -0.7 1 1 1
v -0.4 0.9 0.5 1 1 1
v -0.4 0.4 0.5 1 1 1
v -0.4 0.9 0.7 1 1 1
v -0.4 0.4 0.6 1 1 1
v -0.5 1.804779E-16 0.5 1 1 1
v 0.5 1.353584E-15 0.5 1 1 1
v 0.5 0 -0.5 1 1 1
v -0.5 1.173106E-15 -0.5 1 1 1
v 0.5 1.15 -0.65 1 1 1
v 0.5 1.2 -0.5 1 1 1
v -0.5 1.15 -0.65 1 1 1
v -0.5 1.2 -0.5 1 1 1
v 0.5 1.15 0.65 1 1 1
v -0.5 1.15 0.65 1 1 1
v 0.5 1.2 0.5 1 1 1
v -0.5 1.2 0.5 1 1 1
v -0.5 1 -0.7 1 1 1
v 0.5 1 -0.7 1 1 1
v 0.5 1 0.7 1 1 1
v -0.5 1 0.7 1 1 1
v 0.5 5.86553E-16 -0.6 1 1 1
v -0.5 5.86553E-16 -0.6 1 1 1
v -0.5 0.2 -0.7 1 1 1
v 0.5 0.2 -0.7 1 1 1
v -0.5 0.4 -0.7 1 1 1
v 0.5 0.4 -0.7 1 1 1
v 0.5 0.2 0.7 1 1 1
v -0.5 0.2 0.7 1 1 1
v 0.5 0.4 0.7 1 1 1
v -0.5 0.4 0.7 1 1 1
v 0.5 7.670309E-16 0.6 1 1 1
v -0.5 7.670309E-16 0.6 1 1 1

vn 0 0 -1
vn -1 0 0
vn 0 0 1
vn 1 0 0
vn 0 0.4472136 -0.8944272
vn 0 1 0
vn 0 0.7071068 -0.7071068
vn 0 0.7071068 0.7071068
vn 0 0.4472136 0.8944272
vn 0 -1 0
vn 0 0.9486833 -0.3162278
vn 0 0.9486833 0.3162278
vn 0 0.3162278 -0.9486833
vn 0 0.3162278 0.9486833
vn 0 -0.8506508 -0.5257311
vn 0 -0.2297529 -0.973249
vn 0 -0.2297529 0.973249
vn 0 -0.8506508 0.5257311

vt 0.09375 0.1083333
vt 0.09375 0.175
vt 0.09375 0.09166666
vt 0.09375 0.1916666
vt 0.09375 0.025
vt 0.21875 0.2166666
vt 0.21875 0.225
vt 0.21875 0.1916666
vt 0.21875 0.025
vt 0.21875 0.05833333
vt 0.21875 0.09166666
vt 0.34375 0.09166666
vt 0.34375 0.1916666
vt 0.34375 0.05833333
vt 0.34375 0.2166666
vt 0.34375 0.025
vt 0.34375 0.225

usemtl colormap

f 3/2/1 2/1/1 1/1/1
f 2/1/1 3/2/1 4/2/1
f 5/1/2 3/2/2 1/1/2
f 3/2/2 5/1/2 6/2/2
f 8/2/3 5/1/3 7/1/3
f 5/1/3 8/2/3 6/2/3
f 8/2/4 2/1/4 4/2/4
f 2/1/4 8/2/4 7/1/4
f 11/1/2 10/2/2 9/1/2
f 10/2/2 11/1/2 12/2/2
f 13/1/7 5/1/6 1/1/5
f 5/1/6 13/1/7 14/1/6
f 14/1/6 7/1/6 5/1/6
f 15/1/6 7/1/6 14/1/6
f 7/1/6 15/1/6 16/1/7
f 7/1/6 16/1/7 2/1/5
f 10/2/1 17/1/1 9/1/1
f 17/1/1 10/2/1 18/2/1
f 11/1/9 20/1/6 19/1/8
f 9/1/6 20/1/6 11/1/9
f 17/1/6 20/1/6 9/1/6
f 17/1/6 21/1/6 20/1/6
f 21/1/6 17/1/6 22/1/8
f 23/1/9 22/1/8 17/1/6
f 24/2/4 17/1/4 18/2/4
f 17/1/4 24/2/4 23/1/4
f 26/2/4 20/1/4 25/2/4
f 20/1/4 26/2/4 19/1/4
f 19/1/4 26/2/4 27/3/4
f 27/3/4 26/2/4 28/3/4
f 31/3/2 30/2/2 29/3/2
f 30/2/2 31/3/2 16/1/2
f 30/2/2 16/1/2 32/2/2
f 32/2/2 16/1/2 15/1/2
f 22/1/8 27/3/3 33/3/3
f 27/3/3 22/1/8 19/1/8
f 19/1/8 22/1/8 23/1/9
f 19/1/8 23/1/9 11/1/9
f 36/4/10 35/4/10 34/4/10
f 35/4/10 36/4/10 37/4/10
f 38/3/2 22/1/2 33/3/2
f 39/2/2 22/1/2 38/3/2
f 40/2/2 22/1/2 39/2/2
f 22/1/2 40/2/2 21/1/2
f 43/2/4 42/3/4 41/2/4
f 42/3/4 43/2/4 13/1/4
f 13/1/4 43/2/4 14/1/4
f 44/3/4 42/3/4 13/1/4
f 27/3/6 38/3/6 33/3/6
f 38/3/6 27/3/6 28/3/6
f 29/3/6 44/3/6 31/3/6
f 44/3/6 29/3/6 42/3/6
f 24/2/3 11/1/3 23/1/3
f 11/1/3 24/2/3 12/2/3
f 13/1/7 31/3/1 44/3/1
f 31/3/1 13/1/7 16/1/7
f 16/1/7 13/1/7 1/1/5
f 16/1/7 1/1/5 2/1/5
f 42/3/1 36/4/1 41/2/1
f 41/2/1 36/4/1 30/2/1
f 42/3/1 45/5/1 36/4/1
f 34/4/1 30/2/1 36/4/1
f 45/5/1 42/3/1 46/5/1
f 34/4/1 29/3/1 30/2/1
f 46/5/1 29/3/1 34/4/1
f 29/3/1 46/5/1 42/3/1
f 38/3/3 35/4/3 39/2/3
f 39/2/3 35/4/3 26/2/3
f 38/3/3 47/5/3 35/4/3
f 37/4/3 26/2/3 35/4/3
f 47/5/3 38/3/3 48/5/3
f 37/4/3 28/3/3 26/2/3
f 48/5/3 28/3/3 37/4/3
f 28/3/3 48/5/3 38/3/3
f 8/2/10 43/2/10 6/2/10
f 6/2/10 43/2/10 3/2/10
f 8/2/10 32/2/10 43/2/10
f 41/2/10 3/2/10 43/2/10
f 32/2/10 8/2/10 30/2/10
f 41/2/10 4/2/10 3/2/10
f 30/2/10 4/2/10 41/2/10
f 4/2/10 30/2/10 8/2/10
f 24/2/10 26/2/10 12/2/10
f 12/2/10 26/2/10 10/2/10
f 24/2/10 39/2/10 26/2/10
f 25/2/10 10/2/10 26/2/10
f 39/2/10 24/2/10 40/2/10
f 25/2/10 18/2/10 10/2/10
f 40/2/10 18/2/10 25/2/10
f 18/2/10 40/2/10 24/2/10
f 51/6/7 50/7/11 49/6/7
f 50/7/11 51/6/7 52/7/11
f 55/7/12 54/6/8 53/6/8
f 54/6/8 55/7/12 56/7/12
f 51/6/7 58/8/13 57/8/13
f 58/8/13 51/6/7 49/6/7
f 53/6/8 60/8/14 59/8/14
f 60/8/14 53/6/8 54/6/8
f 50/7/6 56/7/6 55/7/6
f 56/7/6 50/7/6 52/7/6
f 48/9/10 61/9/15 47/9/10
f 61/9/15 48/9/10 62/9/15
f 63/10/16 61/9/15 62/9/15
f 61/9/15 63/10/16 64/10/16
f 65/11/1 64/10/16 63/10/16
f 64/10/16 65/11/1 66/11/1
f 69/11/3 68/10/17 67/10/17
f 68/10/17 69/11/3 70/11/3
f 67/10/17 72/9/18 71/9/18
f 72/9/18 67/10/17 68/10/17
f 72/9/18 46/9/10 71/9/18
f 46/9/10 72/9/18 45/9/10
f 67/14/4 59/13/4 69/12/4
f 67/14/4 53/15/4 59/13/4
f 71/16/4 53/15/4 67/14/4
f 34/13/4 53/15/4 71/16/4
f 71/16/4 46/16/4 34/13/4
f 34/13/4 55/17/4 53/15/4
f 35/13/4 55/17/4 34/13/4
f 55/17/4 35/13/4 50/17/4
f 61/16/4 50/17/4 35/13/4
f 61/16/4 35/13/4 47/16/4
f 61/16/4 49/15/4 50/17/4
f 64/14/4 49/15/4 61/16/4
f 66/12/4 49/15/4 64/14/4
f 49/15/4 66/12/4 58/13/4
f 48/16/2 37/13/2 62/16/2
f 52/17/2 62/16/2 37/13/2
f 52/17/2 37/13/2 36/13/2
f 51/15/2 62/16/2 52/17/2
f 51/15/2 63/14/2 62/16/2
f 57/13/2 63/14/2 51/15/2
f 63/14/2 57/13/2 65/12/2
f 52/17/2 36/13/2 56/17/2
f 36/13/2 72/16/2 56/17/2
f 72/16/2 36/13/2 45/16/2
f 56/17/2 72/16/2 54/15/2
f 54/15/2 72/16/2 68/14/2
f 54/15/2 68/14/2 60/13/2
f 60/13/2 68/14/2 70/12/2
f 15/14/3 59/17/3 32/13/3
f 32/13/3 59/17/3 43/13/3
f 15/14/3 69/16/3 59/17/3
f 60/17/3 43/13/3 59/17/3
f 69/16/3 15/14/3 70/16/3
f 60/17/3 14/14/3 43/13/3
f 70/16/3 14/14/3 60/17/3
f 14/14/3 70/16/3 15/14/3
f 20/14/1 57/17/1 25/13/1
f 25/13/1 57/17/1 40/13/1
f 20/14/1 65/16/1 57/17/1
f 58/17/1 40/13/1 57/17/1
f 65/16/1 20/14/1 66/16/1
f 58/17/1 21/14/1 40/13/1
f 66/16/1 21/14/1 58/17/1
f 21/14/1 66/16/1 20/14/1

g cover-bar




usemtl colormap

f 3/2/1 2/1/1 1/1/1
f 2/1/1 3/2/1 4/2/1
f 5/1/2 3/2/2 1/1/2
f 3/2/2 5/1/2 6/2/2
f 8/2/3 5/1/3 7/1/3
f 5/1/3 8/2/3 6/2/3
f 8/2/4 2/1/4 4/2/4
f 2/1/4 8/2/4 7/1/4
f 11/1/2 10/2/2 9/1/2
f 10/2/2 11/1/2 12/2/2
f 13/1/7 5/1/6 1/1/5
f 5/1/6 13/1/7 14/1/6
f 14/1/6 7/1/6 5/1/6
f 15/1/6 7/1/6 14/1/6
f 7/1/6 15/1/6 16/1/7
f 7/1/6 16/1/7 2/1/5
f 10/2/1 17/1/1 9/1/1
f 17/1/1 10/2/1 18/2/1
f 11/1/9 20/1/6 19/1/8
f 9/1/6 20/1/6 11/1/9
f 17/1/6 20/1/6 9/1/6
f 17/1/6 21/1/6 20/1/6
f 21/1/6 17/1/6 22/1/8
f 23/1/9 22/1/8 17/1/6
f 24/2/4 17/1/4 18/2/4
f 17/1/4 24/2/4 23/1/4
f 26/2/4 20/1/4 25/2/4
f 20/1/4 26/2/4 19/1/4
f 19/1/4 26/2/4 27/3/4
f 27/3/4 26/2/4 28/3/4
f 31/3/2 30/2/2 29/3/2
f 30/2/2 31/3/2 16/1/2
f 30/2/2 16/1/2 32/2/2
f 32/2/2 16/1/2 15/1/2
f 22/1/8 27/3/3 33/3/3
f 27/3/3 22/1/8 19/1/8
f 19/1/8 22/1/8 23/1/9
f 19/1/8 23/1/9 11/1/9
f 36/4/10 35/4/10 34/4/10
f 35/4/10 36/4/10 37/4/10
f 38/3/2 22/1/2 33/3/2
f 39/2/2 22/1/2 38/3/2
f 40/2/2 22/1/2 39/2/2
f 22/1/2 40/2/2 21/1/2
f 43/2/4 42/3/4 41/2/4
f 42/3/4 43/2/4 13/1/4
f 13/1/4 43/2/4 14/1/4
f 44/3/4 42/3/4 13/1/4
f 27/3/6 38/3/6 33/3/6
f 38/3/6 27/3/6 28/3/6
f 29/3/6 44/3/6 31/3/6
f 44/3/6 29/3/6 42/3/6
f 24/2/3 11/1/3 23/1/3
f 11/1/3 24/2/3 12/2/3
f 13/1/7 31/3/1 44/3/1
f 31/3/1 13/1/7 16/1/7
f 16/1/7 13/1/7 1/1/5
f 16/1/7 1/1/5 2/1/5
f 42/3/1 36/4/1 41/2/1
f 41/2/1 36/4/1 30/2/1
f 42/3/1 45/5/1 36/4/1
f 34/4/1 30/2/1 36/4/1
f 45/5/1 42/3/1 46/5/1
f 34/4/1 29/3/1 30/2/1
f 46/5/1 29/3/1 34/4/1
f 29/3/1 46/5/1 42/3/1
f 38/3/3 35/4/3 39/2/3
f 39/2/3 35/4/3 26/2/3
f 38/3/3 47/5/3 35/4/3
f 37/4/3 26/2/3 35/4/3
f 47/5/3 38/3/3 48/5/3
f 37/4/3 28/3/3 26/2/3
f 48/5/3 28/3/3 37/4/3
f 28/3/3 48/5/3 38/3/3
f 8/2/10 43/2/10 6/2/10
f 6/2/10 43/2/10 3/2/10
f 8/2/10 32/2/10 43/2/10
f 41/2/10 3/2/10 43/2/10
f 32/2/10 8/2/10 30/2/10
f 41/2/10 4/2/10 3/2/10
f 30/2/10 4/2/10 41/2/10
f 4/2/10 30/2/10 8/2/10
f 24/2/10 26/2/10 12/2/10
f 12/2/10 26/2/10 10/2/10
f 24/2/10 39/2/10 26/2/10
f 25/2/10 10/2/10 26/2/10
f 39/2/10 24/2/10 40/2/10
f 25/2/10 18/2/10 10/2/10
f 40/2/10 18/2/10 25/2/10
f 18/2/10 40/2/10 24/2/10
f 51/6/7 50/7/11 49/6/7
f 50/7/11 51/6/7 52/7/11
f 55/7/12 54/6/8 53/6/8
f 54/6/8 55/7/12 56/7/12
f 51/6/7 58/8/13 57/8/13
f 58/8/13 51/6/7 49/6/7
f 53/6/8 60/8/14 59/8/14
f 60/8/14 53/6/8 54/6/8
f 50/7/6 56/7/6 55/7/6
f 56/7/6 50/7/6 52/7/6
f 48/9/10 61/9/15 47/9/10
f 61/9/15 48/9/10 62/9/15
f 63/10/16 61/9/15 62/9/15
f 61/9/15 63/10/16 64/10/16
f 65/11/1 64/10/16 63/10/16
f 64/10/16 65/11/1 66/11/1
f 69/11/3 68/10/17 67/10/17
f 68/10/17 69/11/3 70/11/3
f 67/10/17 72/9/18 71/9/18
f 72/9/18 67/10/17 68/10/17
f 72/9/18 46/9/10 71/9/18
f 46/9/10 72/9/18 45/9/10
f 67/14/4 59/13/4 69/12/4
f 67/14/4 53/15/4 59/13/4
f 71/16/4 53/15/4 67/14/4
f 34/13/4 53/15/4 71/16/4
f 71/16/4 46/16/4 34/13/4
f 34/13/4 55/17/4 53/15/4
f 35/13/4 55/17/4 34/13/4
f 55/17/4 35/13/4 50/17/4
f 61/16/4 50/17/4 35/13/4
f 61/16/4 35/13/4 47/16/4
f 61/16/4 49/15/4 50/17/4
f 64/14/4 49/15/4 61/16/4
f 66/12/4 49/15/4 64/14/4
f 49/15/4 66/12/4 58/13/4
f 48/16/2 37/13/2 62/16/2
f 52/17/2 62/16/2 37/13/2
f 52/17/2 37/13/2 36/13/2
f 51/15/2 62/16/2 52/17/2
f 51/15/2 63/14/2 62/16/2
f 57/13/2 63/14/2 51/15/2
f 63/14/2 57/13/2 65/12/2
f 52/17/2 36/13/2 56/17/2
f 36/13/2 72/16/2 56/17/2
f 72/16/2 36/13/2 45/16/2
f 56/17/2 72/16/2 54/15/2
f 54/15/2 72/16/2 68/14/2
f 54/15/2 68/14/2 60/13/2
f 60/13/2 68/14/2 70/12/2
f 15/14/3 59/17/3 32/13/3
f 32/13/3 59/17/3 43/13/3
f 15/14/3 69/16/3 59/17/3
f 60/17/3 43/13/3 59/17/3
f 69/16/3 15/14/3 70/16/3
f 60/17/3 14/14/3 43/13/3
f 70/16/3 14/14/3 60/17/3
f 14/14/3 70/16/3 15/14/3
f 20/14/1 57/17/1 25/13/1
f 25/13/1 57/17/1 40/13/1
f 20/14/1 65/16/1 57/17/1
f 58/17/1 40/13/1 57/17/1
f 65/16/1 20/14/1 66/16/1
f 58/17/1 21/14/1 40/13/1
f 66/16/1 21/14/1 58/17/1
f 21/14/1 66/16/1 20/14/1

