# Created by Kenney (www.kenney.nl)

mtllib cover-corner.mtl

g cover-corner

v -0.7 1 0.7 1 1 1
v -0.7 1.15 0.65 1 1 1
v -0.65 1.15 0.7 1 1 1
v -0.7 2.224389E-14 0.6 1 1 1
v -0.7 0.2 0.7 1 1 1
v -0.6 5.86553E-16 0.7 1 1 1
v -0.5 1.2 0.7 1 1 1
v -0.7 1.2 0.5 1 1 1
v 0.5 1.2 -0.5 1 1 1
v 0.5 1.2 0.7 1 1 1
v -0.7 1.2 -0.5 1 1 1
v 0.6 4.060752E-16 -0.6 1 1 1
v 0.7 0.2 -0.7 1 1 1
v -0.7 2.206342E-14 -0.6 1 1 1
v -0.7 0.2 -0.7 1 1 1
v 0.7 0.2 0.7 1 1 1
v 0.6 4.060752E-16 0.7 1 1 1
v 0.65 1.15 -0.65 1 1 1
v 0.65 1.15 0.7 1 1 1
v -0.7 1.15 -0.65 1 1 1
v 0.5 9.926282E-16 0.7 1 1 1
v 0.5 9.926282E-16 -0.5 1 1 1
v -0.7 2.147686E-14 -0.5 1 1 1
v 0.7 0.4 -0.7 1 1 1
v -0.7 0.4 -0.7 1 1 1
v 0.7 0.4 0.7 1 1 1
v 0.7 1 -0.7 1 1 1
v -0.7 1 -0.7 1 1 1
v 0.7 1 0.7 1 1 1
v -0.5 0 0.7 1 1 1
v -0.5 1.141522E-14 0.5 1 1 1
v -0.7 2.283045E-14 0.5 1 1 1
v 0.5 1 -0.5 1 1 1
v -0.7 1 -0.5 1 1 1
v -0.5 1 0.5 1 1 1
v -0.5 1 0.7 1 1 1
v 0.5 1 0.7 1 1 1
v -0.7 1 0.5 1 1 1

vn -0.6882472 0.2294157 0.6882472
vn -0.4890198 0.7223014 0.4890198
vn -0.6666667 -0.3333333 0.6666667
vn -0.3015113 0.904534 0.3015113
vn 0 1 0
vn 0.4247964 -0.7994348 -0.4247964
vn 0 -0.1941159 -0.9809786
vn 0 -0.8506508 -0.5257311
vn 0 -0.2297529 -0.973249
vn 0.9809786 -0.1941159 0
vn 0.973249 -0.2297529 0
vn 0.5257311 -0.8506508 0
vn 0.8310396 0.5562133 0
vn 0.7071068 0.7071068 0
vn 0.3162278 0.9486833 0
vn 0 0.5562133 -0.8310396
vn 0 0.9486833 -0.3162278
vn 0 0.7071068 -0.7071068
vn 0 -1 0
vn 0 0 -1
vn 1 0 0
vn 0 0.3162278 -0.9486833
vn 0.9486833 0.3162278 0
vn 0 0 1
vn -1 0 0

vt 0.21875 0.1916666
vt 0.21875 0.2166666
vt 0.21875 0.025
vt 0.21875 0.05833333
vt 0.21875 0.225
vt 0.21875 0.09166666
vt 0.09375 0.025
vt 0.09375 0.1916666
vt 0.34375 0.025
vt 0.34375 0.05833333
vt 0.34375 0.1916666
vt 0.34375 0.09166666
vt 0.34375 0.2166666
vt 0.34375 0.225

usemtl colormap

f 3/2/2 2/2/2 1/1/1
f 6/3/3 5/4/3 4/3/3
f 8/5/4 3/2/2 7/5/4
f 3/2/2 8/5/4 2/2/2
f 11/5/5 10/5/5 9/5/5
f 10/5/5 11/5/5 7/5/5
f 7/5/5 11/5/5 8/5/5
f 14/3/8 13/4/7 12/3/6
f 13/4/7 14/3/8 15/4/9
f 16/4/11 12/3/6 13/4/10
f 12/3/6 16/4/11 17/3/12
f 9/5/15 19/2/14 18/2/13
f 19/2/14 9/5/15 10/5/15
f 20/2/18 9/5/17 18/2/16
f 9/5/17 20/2/18 11/5/17
f 21/3/19 12/3/6 17/3/12
f 12/3/6 21/3/19 22/3/19
f 12/3/6 22/3/19 14/3/8
f 14/3/8 22/3/19 23/3/19
f 15/4/9 24/6/20 13/4/7
f 24/6/20 15/4/9 25/6/20
f 26/6/21 13/4/10 24/6/21
f 13/4/10 26/6/21 16/4/11
f 28/1/22 18/2/16 27/1/22
f 18/2/16 28/1/22 20/2/18
f 18/2/13 29/1/23 27/1/23
f 29/1/23 18/2/13 19/2/14
f 6/3/19 31/3/19 30/3/19
f 31/3/19 6/3/19 32/3/19
f 32/3/19 6/3/19 4/3/19
f 33/8/24 23/7/24 22/7/24
f 23/7/24 33/8/24 34/8/24
f 36/8/21 31/7/21 35/8/21
f 31/7/21 36/8/21 30/7/21
f 21/7/25 33/8/25 22/7/25
f 33/8/25 21/7/25 37/8/25
f 32/7/20 35/8/20 31/7/20
f 35/8/20 32/7/20 38/8/20
f 36/8/19 33/8/19 37/8/19
f 33/8/19 36/8/19 35/8/19
f 33/8/19 35/8/19 34/8/19
f 34/8/19 35/8/19 38/8/19
f 16/10/24 21/9/24 17/9/24
f 21/9/24 16/10/24 37/11/24
f 37/11/24 16/10/24 26/12/24
f 37/11/24 26/12/24 29/11/24
f 37/11/24 29/11/24 36/11/24
f 36/11/24 29/11/24 19/13/24
f 36/11/24 19/13/24 1/11/24
f 1/11/24 19/13/24 3/13/24
f 3/13/24 19/13/24 7/14/24
f 7/14/24 19/13/24 10/14/24
f 5/10/24 36/11/24 1/11/24
f 6/9/24 36/11/24 5/10/24
f 36/11/24 6/9/24 30/9/24
f 15/10/25 28/11/25 25/12/25
f 28/11/25 15/10/25 14/9/25
f 28/11/25 14/9/25 20/13/25
f 20/13/25 14/9/25 11/14/25
f 11/14/25 14/9/25 34/11/25
f 34/11/25 14/9/25 23/9/25
f 11/14/25 34/11/25 38/11/25
f 11/14/25 38/11/25 8/14/25
f 8/14/25 38/11/25 32/9/25
f 8/14/25 32/9/25 4/9/25
f 8/14/25 4/9/25 2/13/25
f 2/13/25 4/9/25 5/10/25
f 2/13/25 5/10/25 1/11/25
f 28/14/20 24/9/20 25/9/20
f 24/9/20 28/14/20 27/14/20
f 27/14/21 26/9/21 24/9/21
f 26/9/21 27/14/21 29/14/21

g cover-corner




usemtl colormap

f 3/2/2 2/2/2 1/1/1
f 6/3/3 5/4/3 4/3/3
f 8/5/4 3/2/2 7/5/4
f 3/2/2 8/5/4 2/2/2
f 11/5/5 10/5/5 9/5/5
f 10/5/5 11/5/5 7/5/5
f 7/5/5 11/5/5 8/5/5
f 14/3/8 13/4/7 12/3/6
f 13/4/7 14/3/8 15/4/9
f 16/4/11 12/3/6 13/4/10
f 12/3/6 16/4/11 17/3/12
f 9/5/15 19/2/14 18/2/13
f 19/2/14 9/5/15 10/5/15
f 20/2/18 9/5/17 18/2/16
f 9/5/17 20/2/18 11/5/17
f 21/3/19 12/3/6 17/3/12
f 12/3/6 21/3/19 22/3/19
f 12/3/6 22/3/19 14/3/8
f 14/3/8 22/3/19 23/3/19
f 15/4/9 24/6/20 13/4/7
f 24/6/20 15/4/9 25/6/20
f 26/6/21 13/4/10 24/6/21
f 13/4/10 26/6/21 16/4/11
f 28/1/22 18/2/16 27/1/22
f 18/2/16 28/1/22 20/2/18
f 18/2/13 29/1/23 27/1/23
f 29/1/23 18/2/13 19/2/14
f 6/3/19 31/3/19 30/3/19
f 31/3/19 6/3/19 32/3/19
f 32/3/19 6/3/19 4/3/19
f 33/8/24 23/7/24 22/7/24
f 23/7/24 33/8/24 34/8/24
f 36/8/21 31/7/21 35/8/21
f 31/7/21 36/8/21 30/7/21
f 21/7/25 33/8/25 22/7/25
f 33/8/25 21/7/25 37/8/25
f 32/7/20 35/8/20 31/7/20
f 35/8/20 32/7/20 38/8/20
f 36/8/19 33/8/19 37/8/19
f 33/8/19 36/8/19 35/8/19
f 33/8/19 35/8/19 34/8/19
f 34/8/19 35/8/19 38/8/19
f 16/10/24 21/9/24 17/9/24
f 21/9/24 16/10/24 37/11/24
f 37/11/24 16/10/24 26/12/24
f 37/11/24 26/12/24 29/11/24
f 37/11/24 29/11/24 36/11/24
f 36/11/24 29/11/24 19/13/24
f 36/11/24 19/13/24 1/11/24
f 1/11/24 19/13/24 3/13/24
f 3/13/24 19/13/24 7/14/24
f 7/14/24 19/13/24 10/14/24
f 5/10/24 36/11/24 1/11/24
f 6/9/24 36/11/24 5/10/24
f 36/11/24 6/9/24 30/9/24
f 15/10/25 28/11/25 25/12/25
f 28/11/25 15/10/25 14/9/25
f 28/11/25 14/9/25 20/13/25
f 20/13/25 14/9/25 11/14/25
f 11/14/25 14/9/25 34/11/25
f 34/11/25 14/9/25 23/9/25
f 11/14/25 34/11/25 38/11/25
f 11/14/25 38/11/25 8/14/25
f 8/14/25 38/11/25 32/9/25
f 8/14/25 32/9/25 4/9/25
f 8/14/25 4/9/25 2/13/25
f 2/13/25 4/9/25 5/10/25
f 2/13/25 5/10/25 1/11/25
f 28/14/20 24/9/20 25/9/20
f 24/9/20 28/14/20 27/14/20
f 27/14/21 26/9/21 24/9/21
f 26/9/21 27/14/21 29/14/21

