# Created by Kenney (www.kenney.nl)

mtllib cover.mtl

g cover

v -0.5 1 -0.7 1 1 1
v 0.5 1 -0.7 1 1 1
v -0.5 1.15 -0.65 1 1 1
v 0.5 1.15 -0.65 1 1 1
v 0.5 1.2 -0.5 1 1 1
v -0.5 1.2 -0.5 1 1 1
v 0.5 1 0.7 1 1 1
v -0.5 1 0.7 1 1 1
v 0.5 1.15 0.65 1 1 1
v -0.5 1.15 0.65 1 1 1
v 0.5 1.2 0.5 1 1 1
v -0.5 1.2 0.5 1 1 1
v -0.5 5.86553E-16 -0.6 1 1 1
v 0.5 5.86553E-16 -0.6 1 1 1
v -0.5 0.2 -0.7 1 1 1
v 0.5 0.2 -0.7 1 1 1
v 0.5 0 -0.5 1 1 1
v -0.5 1.173106E-15 -0.5 1 1 1
v -0.5 0.4 -0.7 1 1 1
v 0.5 0.4 -0.7 1 1 1
v 0.5 0.2 0.7 1 1 1
v -0.5 0.2 0.7 1 1 1
v 0.5 0.4 0.7 1 1 1
v -0.5 0.4 0.7 1 1 1
v 0.5 7.670309E-16 0.6 1 1 1
v 0.5 1.353584E-15 0.5 1 1 1
v -0.5 7.670309E-16 0.6 1 1 1
v -0.5 1.804779E-16 0.5 1 1 1
v 0.5 1 0.5 1 1 1
v 0.5 1 -0.5 1 1 1
v -0.5 1 0.5 1 1 1
v -0.5 1 -0.5 1 1 1

vn 0 0.3162278 -0.9486833
vn 0 0.7071068 -0.7071068
vn 0 0.9486833 -0.3162278
vn 0 0.3162278 0.9486833
vn 0 0.7071068 0.7071068
vn 0 0.9486833 0.3162278
vn 0 1 0
vn 0 -0.8506508 -0.5257311
vn 0 -0.2297529 -0.973249
vn 0 -1 0
vn 0 0 -1
vn 0 -0.2297529 0.973249
vn 0 0 1
vn 0 -0.8506508 0.5257311
vn 0 -0.7071068 -0.7071068
vn 0 -0.3162278 -0.9486833
vn 0 -0.9486833 -0.3162278
vn 1 0 0
vn -1 0 0

vt 0.21875 0.1916666
vt 0.21875 0.2166666
vt 0.21875 0.225
vt 0.21875 0.025
vt 0.21875 0.05833333
vt 0.21875 0.09166666
vt 0.09375 0.1916666
vt 0.09375 0.025
vt 0.34375 0.2166666
vt 0.34375 0.1916666
vt 0.34375 0.225
vt 0.34375 0.09166666
vt 0.34375 0.05833333
vt 0.34375 0.025

usemtl colormap

f 3/2/2 2/1/1 1/1/1
f 2/1/1 3/2/2 4/2/2
f 3/2/2 5/3/3 4/2/2
f 5/3/3 3/2/2 6/3/3
f 9/2/5 8/1/4 7/1/4
f 8/1/4 9/2/5 10/2/5
f 11/3/6 10/2/5 9/2/5
f 10/2/5 11/3/6 12/3/6
f 6/3/7 11/3/7 5/3/7
f 11/3/7 6/3/7 12/3/7
f 15/5/9 14/4/8 13/4/8
f 14/4/8 15/5/9 16/5/9
f 18/4/10 14/4/8 17/4/10
f 14/4/8 18/4/10 13/4/8
f 19/6/11 16/5/9 15/5/9
f 16/5/9 19/6/11 20/6/11
f 23/6/13 22/5/12 21/5/12
f 22/5/12 23/6/13 24/6/13
f 27/4/14 26/4/10 25/4/14
f 26/4/10 27/4/14 28/4/10
f 21/5/12 27/4/14 25/4/14
f 27/4/14 21/5/12 22/5/12
f 31/7/10 30/7/10 29/7/10
f 30/7/10 31/7/10 32/7/10
f 30/7/13 18/8/13 17/8/13
f 18/8/13 30/7/13 32/7/13
f 31/7/11 26/8/11 28/8/11
f 26/8/11 31/7/11 29/7/11
f 7/10/16 8/10/16 9/9/15
f 10/9/15 9/9/15 8/10/16
f 9/9/15 10/9/15 11/11/17
f 12/11/17 11/11/17 10/9/15
f 4/9/18 20/12/18 2/10/18
f 20/12/18 4/9/18 16/13/18
f 16/13/18 4/9/18 14/14/18
f 14/14/18 4/9/18 5/11/18
f 14/14/18 5/11/18 30/10/18
f 14/14/18 30/10/18 17/14/18
f 11/11/18 30/10/18 5/11/18
f 30/10/18 11/11/18 29/10/18
f 29/10/18 11/11/18 9/9/18
f 29/10/18 9/9/18 25/14/18
f 25/14/18 26/14/18 29/10/18
f 25/14/18 9/9/18 21/13/18
f 21/13/18 9/9/18 7/10/18
f 21/13/18 7/10/18 23/12/18
f 18/14/19 32/10/19 13/14/19
f 6/11/19 13/14/19 32/10/19
f 6/11/19 32/10/19 31/10/19
f 3/9/19 13/14/19 6/11/19
f 3/9/19 15/13/19 13/14/19
f 1/10/19 15/13/19 3/9/19
f 15/13/19 1/10/19 19/12/19
f 6/11/19 31/10/19 12/11/19
f 31/10/19 27/14/19 12/11/19
f 27/14/19 31/10/19 28/14/19
f 12/11/19 27/14/19 10/9/19
f 10/9/19 27/14/19 22/13/19
f 10/9/19 22/13/19 8/10/19
f 8/10/19 22/13/19 24/12/19
f 7/11/13 24/14/13 23/14/13
f 24/14/13 7/11/13 8/11/13
f 1/11/11 20/14/11 19/14/11
f 20/14/11 1/11/11 2/11/11

g cover




usemtl colormap

f 3/2/2 2/1/1 1/1/1
f 2/1/1 3/2/2 4/2/2
f 3/2/2 5/3/3 4/2/2
f 5/3/3 3/2/2 6/3/3
f 9/2/5 8/1/4 7/1/4
f 8/1/4 9/2/5 10/2/5
f 11/3/6 10/2/5 9/2/5
f 10/2/5 11/3/6 12/3/6
f 6/3/7 11/3/7 5/3/7
f 11/3/7 6/3/7 12/3/7
f 15/5/9 14/4/8 13/4/8
f 14/4/8 15/5/9 16/5/9
f 18/4/10 14/4/8 17/4/10
f 14/4/8 18/4/10 13/4/8
f 19/6/11 16/5/9 15/5/9
f 16/5/9 19/6/11 20/6/11
f 23/6/13 22/5/12 21/5/12
f 22/5/12 23/6/13 24/6/13
f 27/4/14 26/4/10 25/4/14
f 26/4/10 27/4/14 28/4/10
f 21/5/12 27/4/14 25/4/14
f 27/4/14 21/5/12 22/5/12
f 31/7/10 30/7/10 29/7/10
f 30/7/10 31/7/10 32/7/10
f 30/7/13 18/8/13 17/8/13
f 18/8/13 30/7/13 32/7/13
f 31/7/11 26/8/11 28/8/11
f 26/8/11 31/7/11 29/7/11
f 7/10/16 8/10/16 9/9/15
f 10/9/15 9/9/15 8/10/16
f 9/9/15 10/9/15 11/11/17
f 12/11/17 11/11/17 10/9/15
f 4/9/18 20/12/18 2/10/18
f 20/12/18 4/9/18 16/13/18
f 16/13/18 4/9/18 14/14/18
f 14/14/18 4/9/18 5/11/18
f 14/14/18 5/11/18 30/10/18
f 14/14/18 30/10/18 17/14/18
f 11/11/18 30/10/18 5/11/18
f 30/10/18 11/11/18 29/10/18
f 29/10/18 11/11/18 9/9/18
f 29/10/18 9/9/18 25/14/18
f 25/14/18 26/14/18 29/10/18
f 25/14/18 9/9/18 21/13/18
f 21/13/18 9/9/18 7/10/18
f 21/13/18 7/10/18 23/12/18
f 18/14/19 32/10/19 13/14/19
f 6/11/19 13/14/19 32/10/19
f 6/11/19 32/10/19 31/10/19
f 3/9/19 13/14/19 6/11/19
f 3/9/19 15/13/19 13/14/19
f 1/10/19 15/13/19 3/9/19
f 15/13/19 1/10/19 19/12/19
f 6/11/19 31/10/19 12/11/19
f 31/10/19 27/14/19 12/11/19
f 27/14/19 31/10/19 28/14/19
f 12/11/19 27/14/19 10/9/19
f 10/9/19 27/14/19 22/13/19
f 10/9/19 22/13/19 8/10/19
f 8/10/19 22/13/19 24/12/19
f 7/11/13 24/14/13 23/14/13
f 24/14/13 7/11/13 8/11/13
f 1/11/11 20/14/11 19/14/11
f 20/14/11 1/11/11 2/11/11

