# Created by Kenney (www.kenney.nl)

mtllib cover-top.mtl

g cover-top

v -0.5 1 -0.7 1 1 1
v 0.5 1 -0.7 1 1 1
v -0.5 1.15 -0.65 1 1 1
v 0.5 1.15 -0.65 1 1 1
v 0.5 1.2 -0.5 1 1 1
v -0.5 1.2 -0.5 1 1 1
v 0.5 1 0.7 1 1 1
v -0.5 1 0.7 1 1 1
v 0.5 1.15 0.65 1 1 1
v -0.5 1.15 0.65 1 1 1
v 0.5 1.2 0.5 1 1 1
v -0.5 1.2 0.5 1 1 1
v -0.5 5.86553E-16 -0.6 1 1 1
v 0.5 5.86553E-16 -0.6 1 1 1
v -0.5 0.2 -0.7 1 1 1
v 0.5 0.2 -0.7 1 1 1
v 0.5 0 -0.5 1 1 1
v -0.5 1.173106E-15 -0.5 1 1 1
v -0.5 0.4 -0.7 1 1 1
v 0.5 0.4 -0.7 1 1 1
v 0.5 0.2 0.7 1 1 1
v -0.5 0.2 0.7 1 1 1
v 0.5 0.4 0.7 1 1 1
v -0.5 0.4 0.7 1 1 1
v 0.5 7.670309E-16 0.6 1 1 1
v 0.5 1.353584E-15 0.5 1 1 1
v -0.5 7.670309E-16 0.6 1 1 1
v -0.5 1.804779E-16 0.5 1 1 1
v 0.3 1 -0.3 1 1 1
v -0.3 1 -0.3 1 1 1
v 0.3 1.2 -0.3 1 1 1
v -0.3 1.2 -0.3 1 1 1
v -0.3 1 0.3 1 1 1
v -0.3 1.2 0.3 1 1 1
v 0.3 1 0.3 1 1 1
v 0.3 1.2 0.3 1 1 1
v 0.5 1 -0.5 1 1 1
v -0.5 1 -0.5 1 1 1
v -0.5 1 0.5 1 1 1
v 0.5 1 0.5 1 1 1

vn 0 0.3162278 -0.9486833
vn 0 0.7071068 -0.7071068
vn 0 0.9486833 -0.3162278
vn 0 0.3162278 0.9486833
vn 0 0.7071068 0.7071068
vn 0 0.9486833 0.3162278
vn 0 -0.8506508 -0.5257311
vn 0 -0.2297529 -0.973249
vn 0 -1 0
vn 0 0 -1
vn 0 -0.2297529 0.973249
vn 0 0 1
vn 0 -0.8506508 0.5257311
vn 1 0 0
vn -1 0 0
vn 0 1 0
vn 0 -0.7071068 -0.7071068
vn 0 -0.3162278 -0.9486833
vn 0 -0.9486833 -0.3162278

vt 0.21875 0.1916666
vt 0.21875 0.2166666
vt 0.21875 0.225
vt 0.21875 0.025
vt 0.21875 0.05833333
vt 0.21875 0.09166666
vt 0.09375 0.025
vt 0.09375 0.1916666
vt 0.34375 0.2166666
vt 0.34375 0.1916666
vt 0.34375 0.225
vt 0.34375 0.09166666
vt 0.34375 0.05833333
vt 0.34375 0.025

usemtl colormap

f 3/2/2 2/1/1 1/1/1
f 2/1/1 3/2/2 4/2/2
f 3/2/2 5/3/3 4/2/2
f 5/3/3 3/2/2 6/3/3
f 9/2/5 8/1/4 7/1/4
f 8/1/4 9/2/5 10/2/5
f 11/3/6 10/2/5 9/2/5
f 10/2/5 11/3/6 12/3/6
f 15/5/8 14/4/7 13/4/7
f 14/4/7 15/5/8 16/5/8
f 18/4/9 14/4/7 17/4/9
f 14/4/7 18/4/9 13/4/7
f 19/6/10 16/5/8 15/5/8
f 16/5/8 19/6/10 20/6/10
f 23/6/12 22/5/11 21/5/11
f 22/5/11 23/6/12 24/6/12
f 27/4/13 26/4/9 25/4/13
f 26/4/9 27/4/13 28/4/9
f 21/5/11 27/4/13 25/4/13
f 27/4/13 21/5/11 22/5/11
f 31/3/12 30/1/12 29/1/12
f 30/1/12 31/3/12 32/3/12
f 32/3/14 33/1/14 30/1/14
f 33/1/14 32/3/14 34/3/14
f 33/1/10 36/3/10 35/1/10
f 36/3/10 33/1/10 34/3/10
f 35/1/15 31/3/15 29/1/15
f 31/3/15 35/1/15 36/3/15
f 5/3/16 31/3/16 11/3/16
f 31/3/16 5/3/16 6/3/16
f 36/3/16 11/3/16 31/3/16
f 31/3/16 6/3/16 32/3/16
f 11/3/16 36/3/16 12/3/16
f 32/3/16 6/3/16 34/3/16
f 12/3/16 36/3/16 34/3/16
f 12/3/16 34/3/16 6/3/16
f 37/8/12 18/7/12 17/7/12
f 18/7/12 37/8/12 38/8/12
f 39/8/10 26/7/10 28/7/10
f 26/7/10 39/8/10 40/8/10
f 38/8/9 29/8/9 30/8/9
f 38/8/9 30/8/9 33/8/9
f 29/8/9 38/8/9 37/8/9
f 38/8/9 33/8/9 39/8/9
f 37/8/9 35/8/9 29/8/9
f 35/8/9 39/8/9 33/8/9
f 40/8/9 35/8/9 37/8/9
f 35/8/9 40/8/9 39/8/9
f 7/10/18 8/10/18 9/9/17
f 10/9/17 9/9/17 8/10/18
f 9/9/17 10/9/17 11/11/19
f 12/11/19 11/11/19 10/9/17
f 4/9/14 20/12/14 2/10/14
f 20/12/14 4/9/14 16/13/14
f 16/13/14 4/9/14 14/14/14
f 14/14/14 4/9/14 5/11/14
f 14/14/14 5/11/14 37/10/14
f 14/14/14 37/10/14 17/14/14
f 11/11/14 37/10/14 5/11/14
f 37/10/14 11/11/14 40/10/14
f 40/10/14 11/11/14 9/9/14
f 40/10/14 9/9/14 25/14/14
f 25/14/14 26/14/14 40/10/14
f 25/14/14 9/9/14 21/13/14
f 21/13/14 9/9/14 7/10/14
f 21/13/14 7/10/14 23/12/14
f 18/14/15 38/10/15 13/14/15
f 6/11/15 13/14/15 38/10/15
f 6/11/15 38/10/15 39/10/15
f 3/9/15 13/14/15 6/11/15
f 3/9/15 15/13/15 13/14/15
f 1/10/15 15/13/15 3/9/15
f 15/13/15 1/10/15 19/12/15
f 6/11/15 39/10/15 12/11/15
f 39/10/15 27/14/15 12/11/15
f 27/14/15 39/10/15 28/14/15
f 12/11/15 27/14/15 10/9/15
f 10/9/15 27/14/15 22/13/15
f 10/9/15 22/13/15 8/10/15
f 8/10/15 22/13/15 24/12/15
f 1/11/10 20/14/10 19/14/10
f 20/14/10 1/11/10 2/11/10
f 7/11/12 24/14/12 23/14/12
f 24/14/12 7/11/12 8/11/12

g cover-top




usemtl colormap

f 3/2/2 2/1/1 1/1/1
f 2/1/1 3/2/2 4/2/2
f 3/2/2 5/3/3 4/2/2
f 5/3/3 3/2/2 6/3/3
f 9/2/5 8/1/4 7/1/4
f 8/1/4 9/2/5 10/2/5
f 11/3/6 10/2/5 9/2/5
f 10/2/5 11/3/6 12/3/6
f 15/5/8 14/4/7 13/4/7
f 14/4/7 15/5/8 16/5/8
f 18/4/9 14/4/7 17/4/9
f 14/4/7 18/4/9 13/4/7
f 19/6/10 16/5/8 15/5/8
f 16/5/8 19/6/10 20/6/10
f 23/6/12 22/5/11 21/5/11
f 22/5/11 23/6/12 24/6/12
f 27/4/13 26/4/9 25/4/13
f 26/4/9 27/4/13 28/4/9
f 21/5/11 27/4/13 25/4/13
f 27/4/13 21/5/11 22/5/11
f 31/3/12 30/1/12 29/1/12
f 30/1/12 31/3/12 32/3/12
f 32/3/14 33/1/14 30/1/14
f 33/1/14 32/3/14 34/3/14
f 33/1/10 36/3/10 35/1/10
f 36/3/10 33/1/10 34/3/10
f 35/1/15 31/3/15 29/1/15
f 31/3/15 35/1/15 36/3/15
f 5/3/16 31/3/16 11/3/16
f 31/3/16 5/3/16 6/3/16
f 36/3/16 11/3/16 31/3/16
f 31/3/16 6/3/16 32/3/16
f 11/3/16 36/3/16 12/3/16
f 32/3/16 6/3/16 34/3/16
f 12/3/16 36/3/16 34/3/16
f 12/3/16 34/3/16 6/3/16
f 37/8/12 18/7/12 17/7/12
f 18/7/12 37/8/12 38/8/12
f 39/8/10 26/7/10 28/7/10
f 26/7/10 39/8/10 40/8/10
f 38/8/9 29/8/9 30/8/9
f 38/8/9 30/8/9 33/8/9
f 29/8/9 38/8/9 37/8/9
f 38/8/9 33/8/9 39/8/9
f 37/8/9 35/8/9 29/8/9
f 35/8/9 39/8/9 33/8/9
f 40/8/9 35/8/9 37/8/9
f 35/8/9 40/8/9 39/8/9
f 7/10/18 8/10/18 9/9/17
f 10/9/17 9/9/17 8/10/18
f 9/9/17 10/9/17 11/11/19
f 12/11/19 11/11/19 10/9/17
f 4/9/14 20/12/14 2/10/14
f 20/12/14 4/9/14 16/13/14
f 16/13/14 4/9/14 14/14/14
f 14/14/14 4/9/14 5/11/14
f 14/14/14 5/11/14 37/10/14
f 14/14/14 37/10/14 17/14/14
f 11/11/14 37/10/14 5/11/14
f 37/10/14 11/11/14 40/10/14
f 40/10/14 11/11/14 9/9/14
f 40/10/14 9/9/14 25/14/14
f 25/14/14 26/14/14 40/10/14
f 25/14/14 9/9/14 21/13/14
f 21/13/14 9/9/14 7/10/14
f 21/13/14 7/10/14 23/12/14
f 18/14/15 38/10/15 13/14/15
f 6/11/15 13/14/15 38/10/15
f 6/11/15 38/10/15 39/10/15
f 3/9/15 13/14/15 6/11/15
f 3/9/15 15/13/15 13/14/15
f 1/10/15 15/13/15 3/9/15
f 15/13/15 1/10/15 19/12/15
f 6/11/15 39/10/15 12/11/15
f 39/10/15 27/14/15 12/11/15
f 27/14/15 39/10/15 28/14/15
f 12/11/15 27/14/15 10/9/15
f 10/9/15 27/14/15 22/13/15
f 10/9/15 22/13/15 8/10/15
f 8/10/15 22/13/15 24/12/15
f 1/11/10 20/14/10 19/14/10
f 20/14/10 1/11/10 2/11/10
f 7/11/12 24/14/12 23/14/12
f 24/14/12 7/11/12 8/11/12

