# Created by Kenney (www.kenney.nl)

mtllib cover-stripe-corner.mtl

g cover-stripe-corner

v -0.7 1 0.7 1 1 1
v -0.7 1.15 0.65 1 1 1
v -0.65 1.15 0.7 1 1 1
v -0.5 1.2 0.7 1 1 1
v -0.7 1.2 0.5 1 1 1
v 0.5 1.2 -0.5 1 1 1
v 0.5 1.2 0.7 1 1 1
v -0.7 1.2 -0.5 1 1 1
v 0.65 1.15 -0.65 1 1 1
v 0.65 1.15 0.7 1 1 1
v -0.7 1.15 -0.65 1 1 1
v 0.7 1 -0.7 1 1 1
v -0.7 1 -0.7 1 1 1
v 0.7 1 0.7 1 1 1
v -0.7 2.224389E-14 0.6 1 1 1
v -0.7 0.2 0.7 1 1 1
v -0.6 5.86553E-16 0.7 1 1 1
v 0.6 4.060752E-16 -0.6 1 1 1
v 0.7 0.2 -0.7 1 1 1
v -0.7 2.206342E-14 -0.6 1 1 1
v -0.7 0.2 -0.7 1 1 1
v 0.7 0.2 0.7 1 1 1
v 0.6 4.060752E-16 0.7 1 1 1
v 0.5 9.926282E-16 0.7 1 1 1
v 0.5 9.926282E-16 -0.5 1 1 1
v -0.7 2.147686E-14 -0.5 1 1 1
v 0.7 0.4 -0.7 1 1 1
v -0.7 0.4 -0.7 1 1 1
v 0.7 0.4 0.7 1 1 1
v -0.5 0 0.7 1 1 1
v -0.5 1.141522E-14 0.5 1 1 1
v -0.7 2.283045E-14 0.5 1 1 1
v -0.7 0.4 0.5 1 1 1
v -0.7 0.4 0.7 1 1 1
v -0.7 0.4 -0.5 1 1 1
v -0.5 0.4 0.7 1 1 1
v 0.5 0.4 0.7 1 1 1
v 0.5 1 -0.5 1 1 1
v -0.7 1 -0.5 1 1 1
v -0.5 1 0.5 1 1 1
v -0.5 1 0.7 1 1 1
v 0.5 1 0.7 1 1 1
v -0.7 1 0.5 1 1 1

vn -0.6882472 0.2294157 0.6882472
vn -0.4890198 0.7223014 0.4890198
vn -0.3015113 0.904534 0.3015113
vn 0 1 0
vn 0.8310396 0.5562133 0
vn 0.7071068 0.7071068 0
vn 0.3162278 0.9486833 0
vn 0 0.5562133 -0.8310396
vn 0 0.9486833 -0.3162278
vn 0 0.7071068 -0.7071068
vn 0 0.3162278 -0.9486833
vn 0.9486833 0.3162278 0
vn -0.6666667 -0.3333333 0.6666667
vn 0.4247964 -0.7994348 -0.4247964
vn 0 -0.1941159 -0.9809786
vn 0 -0.8506508 -0.5257311
vn 0 -0.2297529 -0.973249
vn 0.9809786 -0.1941159 0
vn 0.973249 -0.2297529 0
vn 0.5257311 -0.8506508 0
vn 0 -1 0
vn 0 0 -1
vn 1 0 0
vn -1 0 0
vn 0 0 1

vt 0.21875 0.1916666
vt 0.21875 0.2166666
vt 0.21875 0.225
vt 0.21875 0.275
vt 0.21875 0.3083333
vt 0.21875 0.3416667
vt 0.09375 0.025
vt 0.09375 0.1916666
vt 0.09375 0.09166666
vt 0.34375 0.025
vt 0.34375 0.175
vt 0.34375 0.2125
vt 0.34375 0.225

usemtl colormap

f 3/2/2 2/2/2 1/1/1
f 5/3/3 3/2/2 4/3/3
f 3/2/2 5/3/3 2/2/2
f 8/3/4 7/3/4 6/3/4
f 7/3/4 8/3/4 4/3/4
f 4/3/4 8/3/4 5/3/4
f 6/3/7 10/2/6 9/2/5
f 10/2/6 6/3/7 7/3/7
f 11/2/10 6/3/9 9/2/8
f 6/3/9 11/2/10 8/3/9
f 13/1/11 9/2/8 12/1/11
f 9/2/8 13/1/11 11/2/10
f 9/2/5 14/1/12 12/1/12
f 14/1/12 9/2/5 10/2/6
f 17/4/13 16/5/13 15/4/13
f 20/4/16 19/5/15 18/4/14
f 19/5/15 20/4/16 21/5/17
f 22/5/19 18/4/14 19/5/18
f 18/4/14 22/5/19 23/4/20
f 24/4/21 18/4/14 23/4/20
f 18/4/14 24/4/21 25/4/21
f 18/4/14 25/4/21 20/4/16
f 20/4/16 25/4/21 26/4/21
f 21/5/17 27/6/22 19/5/15
f 27/6/22 21/5/17 28/6/22
f 29/6/23 19/5/18 27/6/23
f 19/5/18 29/6/23 22/5/19
f 17/4/21 31/4/21 30/4/21
f 31/4/21 17/4/21 32/4/21
f 32/4/21 17/4/21 15/4/21
f 32/4/24 34/6/24 33/6/24
f 34/6/24 32/4/24 15/4/24
f 34/6/24 15/4/24 16/5/24
f 21/5/24 35/6/24 28/6/24
f 35/6/24 21/5/24 20/4/24
f 35/6/24 20/4/24 26/4/24
f 36/6/25 17/4/25 30/4/25
f 17/4/25 36/6/25 16/5/25
f 16/5/25 36/6/25 34/6/25
f 22/5/25 24/4/25 23/4/25
f 24/4/25 22/5/25 37/6/25
f 37/6/25 22/5/25 29/6/25
f 38/8/25 26/7/25 25/7/25
f 26/7/25 38/8/25 35/9/25
f 35/9/25 38/8/25 39/8/25
f 41/8/23 31/7/23 40/8/23
f 31/7/23 41/8/23 36/9/23
f 31/7/23 36/9/23 30/7/23
f 24/7/24 38/8/24 25/7/24
f 38/8/24 24/7/24 37/9/24
f 42/8/24 38/8/24 37/9/24
f 32/7/22 40/8/22 31/7/22
f 40/8/22 32/7/22 33/9/22
f 40/8/22 33/9/22 43/8/22
f 41/8/21 38/8/21 42/8/21
f 38/8/21 41/8/21 40/8/21
f 38/8/21 40/8/21 39/8/21
f 39/8/21 40/8/21 43/8/21
f 12/11/23 29/10/23 27/10/23
f 29/10/23 12/11/23 14/11/23
f 13/11/22 27/10/22 28/10/22
f 27/10/22 13/11/22 12/11/22
f 35/10/24 13/11/24 28/10/24
f 13/11/24 35/10/24 11/12/24
f 11/12/24 35/10/24 39/11/24
f 11/12/24 39/11/24 8/13/24
f 8/13/24 39/11/24 43/11/24
f 8/13/24 43/11/24 5/13/24
f 5/13/24 43/11/24 33/10/24
f 5/13/24 33/10/24 34/10/24
f 5/13/24 34/10/24 2/12/24
f 2/12/24 34/10/24 1/11/24
f 14/11/25 37/10/25 29/10/25
f 37/10/25 14/11/25 42/11/25
f 42/11/25 14/11/25 41/11/25
f 41/11/25 14/11/25 10/12/25
f 41/11/25 10/12/25 1/11/25
f 34/10/25 41/11/25 1/11/25
f 41/11/25 34/10/25 36/10/25
f 1/11/25 10/12/25 3/12/25
f 3/12/25 10/12/25 4/13/25
f 4/13/25 10/12/25 7/13/25

g cover-stripe-corner




usemtl colormap

f 3/2/2 2/2/2 1/1/1
f 5/3/3 3/2/2 4/3/3
f 3/2/2 5/3/3 2/2/2
f 8/3/4 7/3/4 6/3/4
f 7/3/4 8/3/4 4/3/4
f 4/3/4 8/3/4 5/3/4
f 6/3/7 10/2/6 9/2/5
f 10/2/6 6/3/7 7/3/7
f 11/2/10 6/3/9 9/2/8
f 6/3/9 11/2/10 8/3/9
f 13/1/11 9/2/8 12/1/11
f 9/2/8 13/1/11 11/2/10
f 9/2/5 14/1/12 12/1/12
f 14/1/12 9/2/5 10/2/6
f 17/4/13 16/5/13 15/4/13
f 20/4/16 19/5/15 18/4/14
f 19/5/15 20/4/16 21/5/17
f 22/5/19 18/4/14 19/5/18
f 18/4/14 22/5/19 23/4/20
f 24/4/21 18/4/14 23/4/20
f 18/4/14 24/4/21 25/4/21
f 18/4/14 25/4/21 20/4/16
f 20/4/16 25/4/21 26/4/21
f 21/5/17 27/6/22 19/5/15
f 27/6/22 21/5/17 28/6/22
f 29/6/23 19/5/18 27/6/23
f 19/5/18 29/6/23 22/5/19
f 17/4/21 31/4/21 30/4/21
f 31/4/21 17/4/21 32/4/21
f 32/4/21 17/4/21 15/4/21
f 32/4/24 34/6/24 33/6/24
f 34/6/24 32/4/24 15/4/24
f 34/6/24 15/4/24 16/5/24
f 21/5/24 35/6/24 28/6/24
f 35/6/24 21/5/24 20/4/24
f 35/6/24 20/4/24 26/4/24
f 36/6/25 17/4/25 30/4/25
f 17/4/25 36/6/25 16/5/25
f 16/5/25 36/6/25 34/6/25
f 22/5/25 24/4/25 23/4/25
f 24/4/25 22/5/25 37/6/25
f 37/6/25 22/5/25 29/6/25
f 38/8/25 26/7/25 25/7/25
f 26/7/25 38/8/25 35/9/25
f 35/9/25 38/8/25 39/8/25
f 41/8/23 31/7/23 40/8/23
f 31/7/23 41/8/23 36/9/23
f 31/7/23 36/9/23 30/7/23
f 24/7/24 38/8/24 25/7/24
f 38/8/24 24/7/24 37/9/24
f 42/8/24 38/8/24 37/9/24
f 32/7/22 40/8/22 31/7/22
f 40/8/22 32/7/22 33/9/22
f 40/8/22 33/9/22 43/8/22
f 41/8/21 38/8/21 42/8/21
f 38/8/21 41/8/21 40/8/21
f 38/8/21 40/8/21 39/8/21
f 39/8/21 40/8/21 43/8/21
f 12/11/23 29/10/23 27/10/23
f 29/10/23 12/11/23 14/11/23
f 13/11/22 27/10/22 28/10/22
f 27/10/22 13/11/22 12/11/22
f 35/10/24 13/11/24 28/10/24
f 13/11/24 35/10/24 11/12/24
f 11/12/24 35/10/24 39/11/24
f 11/12/24 39/11/24 8/13/24
f 8/13/24 39/11/24 43/11/24
f 8/13/24 43/11/24 5/13/24
f 5/13/24 43/11/24 33/10/24
f 5/13/24 33/10/24 34/10/24
f 5/13/24 34/10/24 2/12/24
f 2/12/24 34/10/24 1/11/24
f 14/11/25 37/10/25 29/10/25
f 37/10/25 14/11/25 42/11/25
f 42/11/25 14/11/25 41/11/25
f 41/11/25 14/11/25 10/12/25
f 41/11/25 10/12/25 1/11/25
f 34/10/25 41/11/25 1/11/25
f 41/11/25 34/10/25 36/10/25
f 1/11/25 10/12/25 3/12/25
f 3/12/25 10/12/25 4/13/25
f 4/13/25 10/12/25 7/13/25

