# Created by Kenney (www.kenney.nl)

mtllib cover-stripe-top.mtl

g cover-stripe-top

v -0.5 1 -0.7 1 1 1
v 0.5 1 -0.7 1 1 1
v -0.5 1.15 -0.65 1 1 1
v 0.5 1.15 -0.65 1 1 1
v 0.5 1.2 -0.5 1 1 1
v -0.5 1.2 -0.5 1 1 1
v 0.5 1 0.7 1 1 1
v -0.5 1 0.7 1 1 1
v 0.5 1.15 0.65 1 1 1
v -0.5 1.15 0.65 1 1 1
v 0.5 1.2 0.5 1 1 1
v -0.5 1.2 0.5 1 1 1
v 0.3 1 -0.3 1 1 1
v -0.3 1 -0.3 1 1 1
v 0.3 1.2 -0.3 1 1 1
v -0.3 1.2 -0.3 1 1 1
v -0.3 1 0.3 1 1 1
v -0.3 1.2 0.3 1 1 1
v 0.3 1 0.3 1 1 1
v 0.3 1.2 0.3 1 1 1
v 0.5 0 -0.5 1 1 1
v -0.5 1.173106E-15 -0.5 1 1 1
v 0.5 0.4 -0.5 1 1 1
v -0.5 0.4 -0.5 1 1 1
v 0.5 1 -0.5 1 1 1
v -0.5 1 -0.5 1 1 1
v -0.5 1.804779E-16 0.5 1 1 1
v 0.5 1.353584E-15 0.5 1 1 1
v -0.5 0.4 0.5 1 1 1
v 0.5 0.4 0.5 1 1 1
v -0.5 1 0.5 1 1 1
v 0.5 1 0.5 1 1 1
v -0.5 0.4 -0.7 1 1 1
v 0.5 0.4 -0.7 1 1 1
v 0.5 0.4 0.7 1 1 1
v -0.5 0.4 0.7 1 1 1
v 0.5 7.670309E-16 0.6 1 1 1
v 0.5 0.2 0.7 1 1 1
v -0.5 5.86553E-16 -0.6 1 1 1
v 0.5 5.86553E-16 -0.6 1 1 1
v -0.5 0.2 -0.7 1 1 1
v 0.5 0.2 -0.7 1 1 1
v -0.5 0.2 0.7 1 1 1
v -0.5 7.670309E-16 0.6 1 1 1

vn 0 0.3162278 -0.9486833
vn 0 0.7071068 -0.7071068
vn 0 0.9486833 -0.3162278
vn 0 0.3162278 0.9486833
vn 0 0.7071068 0.7071068
vn 0 0.9486833 0.3162278
vn 0 0 1
vn 1 0 0
vn 0 0 -1
vn -1 0 0
vn 0 1 0
vn 0 -1 0
vn 0 -0.7071068 -0.7071068
vn 0 -0.3162278 -0.9486833
vn 0 -0.9486833 -0.3162278
vn 0 -0.8506508 -0.5257311
vn 0 -0.2297529 -0.973249
vn 0 -0.2297529 0.973249
vn 0 -0.8506508 0.5257311

vt 0.21875 0.1916666
vt 0.21875 0.2166666
vt 0.21875 0.225
vt 0.09375 0.025
vt 0.09375 0.09166666
vt 0.09375 0.1916666
vt 0.34375 0.2166666
vt 0.34375 0.1916666
vt 0.34375 0.225
vt 0.34375 0.025
vt 0.34375 0.175
vt 0.34375 0.2125
vt 0.21875 0.275
vt 0.21875 0.3416667
vt 0.21875 0.3083333

usemtl colormap

f 3/2/2 2/1/1 1/1/1
f 2/1/1 3/2/2 4/2/2
f 3/2/2 5/3/3 4/2/2
f 5/3/3 3/2/2 6/3/3
f 9/2/5 8/1/4 7/1/4
f 8/1/4 9/2/5 10/2/5
f 11/3/6 10/2/5 9/2/5
f 10/2/5 11/3/6 12/3/6
f 15/3/7 14/1/7 13/1/7
f 14/1/7 15/3/7 16/3/7
f 16/3/8 17/1/8 14/1/8
f 17/1/8 16/3/8 18/3/8
f 17/1/9 20/3/9 19/1/9
f 20/3/9 17/1/9 18/3/9
f 19/1/10 15/3/10 13/1/10
f 15/3/10 19/1/10 20/3/10
f 5/3/11 15/3/11 11/3/11
f 15/3/11 5/3/11 6/3/11
f 20/3/11 11/3/11 15/3/11
f 15/3/11 6/3/11 16/3/11
f 11/3/11 20/3/11 12/3/11
f 16/3/11 6/3/11 18/3/11
f 12/3/11 20/3/11 18/3/11
f 12/3/11 18/3/11 6/3/11
f 23/5/7 22/4/7 21/4/7
f 22/4/7 23/5/7 24/5/7
f 24/5/7 23/5/7 25/6/7
f 24/5/7 25/6/7 26/6/7
f 29/5/9 28/4/9 27/4/9
f 28/4/9 29/5/9 30/5/9
f 30/5/9 29/5/9 31/6/9
f 30/5/9 31/6/9 32/6/9
f 26/6/12 13/6/12 14/6/12
f 26/6/12 14/6/12 17/6/12
f 13/6/12 26/6/12 25/6/12
f 26/6/12 17/6/12 31/6/12
f 25/6/12 19/6/12 13/6/12
f 19/6/12 31/6/12 17/6/12
f 32/6/12 19/6/12 25/6/12
f 19/6/12 32/6/12 31/6/12
f 7/8/14 8/8/14 9/7/13
f 10/7/13 9/7/13 8/8/14
f 9/7/13 10/7/13 11/9/15
f 12/9/15 11/9/15 10/7/13
f 1/11/9 34/10/9 33/10/9
f 34/10/9 1/11/9 2/11/9
f 7/11/7 36/10/7 35/10/7
f 36/10/7 7/11/7 8/11/7
f 24/10/10 1/11/10 33/10/10
f 1/11/10 24/10/10 3/12/10
f 3/12/10 24/10/10 26/11/10
f 26/11/10 6/9/10 3/12/10
f 6/9/10 26/11/10 31/11/10
f 6/9/10 31/11/10 12/9/10
f 31/11/10 36/10/10 12/9/10
f 36/10/10 31/11/10 29/10/10
f 12/9/10 36/10/10 10/12/10
f 10/12/10 36/10/10 8/11/10
f 32/11/8 35/10/8 30/10/8
f 35/10/8 32/11/8 9/12/8
f 35/10/8 9/12/8 7/11/8
f 32/11/8 11/9/8 9/12/8
f 25/11/8 11/9/8 32/11/8
f 11/9/8 25/11/8 5/9/8
f 25/11/8 4/12/8 5/9/8
f 23/10/8 4/12/8 25/11/8
f 34/10/8 4/12/8 23/10/8
f 4/12/8 34/10/8 2/11/8
f 30/14/8 37/13/8 28/13/8
f 37/13/8 30/14/8 35/14/8
f 37/13/8 35/14/8 38/15/8
f 41/15/17 40/13/16 39/13/16
f 40/13/16 41/15/17 42/15/17
f 22/13/12 40/13/16 21/13/12
f 40/13/16 22/13/12 39/13/16
f 33/14/9 42/15/17 41/15/17
f 42/15/17 33/14/9 34/14/9
f 35/14/7 43/15/18 38/15/18
f 43/15/18 35/14/7 36/14/7
f 44/13/19 28/13/12 37/13/19
f 28/13/12 44/13/19 27/13/12
f 38/15/18 44/13/19 37/13/19
f 44/13/19 38/15/18 43/15/18
f 23/14/8 42/15/8 34/14/8
f 42/15/8 23/14/8 40/13/8
f 40/13/8 23/14/8 21/13/8
f 39/13/10 33/14/10 41/15/10
f 33/14/10 39/13/10 24/14/10
f 24/14/10 39/13/10 22/13/10
f 44/13/10 29/14/10 27/13/10
f 29/14/10 44/13/10 36/14/10
f 36/14/10 44/13/10 43/15/10

g cover-stripe-top




usemtl colormap

f 3/2/2 2/1/1 1/1/1
f 2/1/1 3/2/2 4/2/2
f 3/2/2 5/3/3 4/2/2
f 5/3/3 3/2/2 6/3/3
f 9/2/5 8/1/4 7/1/4
f 8/1/4 9/2/5 10/2/5
f 11/3/6 10/2/5 9/2/5
f 10/2/5 11/3/6 12/3/6
f 15/3/7 14/1/7 13/1/7
f 14/1/7 15/3/7 16/3/7
f 16/3/8 17/1/8 14/1/8
f 17/1/8 16/3/8 18/3/8
f 17/1/9 20/3/9 19/1/9
f 20/3/9 17/1/9 18/3/9
f 19/1/10 15/3/10 13/1/10
f 15/3/10 19/1/10 20/3/10
f 5/3/11 15/3/11 11/3/11
f 15/3/11 5/3/11 6/3/11
f 20/3/11 11/3/11 15/3/11
f 15/3/11 6/3/11 16/3/11
f 11/3/11 20/3/11 12/3/11
f 16/3/11 6/3/11 18/3/11
f 12/3/11 20/3/11 18/3/11
f 12/3/11 18/3/11 6/3/11
f 23/5/7 22/4/7 21/4/7
f 22/4/7 23/5/7 24/5/7
f 24/5/7 23/5/7 25/6/7
f 24/5/7 25/6/7 26/6/7
f 29/5/9 28/4/9 27/4/9
f 28/4/9 29/5/9 30/5/9
f 30/5/9 29/5/9 31/6/9
f 30/5/9 31/6/9 32/6/9
f 26/6/12 13/6/12 14/6/12
f 26/6/12 14/6/12 17/6/12
f 13/6/12 26/6/12 25/6/12
f 26/6/12 17/6/12 31/6/12
f 25/6/12 19/6/12 13/6/12
f 19/6/12 31/6/12 17/6/12
f 32/6/12 19/6/12 25/6/12
f 19/6/12 32/6/12 31/6/12
f 7/8/14 8/8/14 9/7/13
f 10/7/13 9/7/13 8/8/14
f 9/7/13 10/7/13 11/9/15
f 12/9/15 11/9/15 10/7/13
f 1/11/9 34/10/9 33/10/9
f 34/10/9 1/11/9 2/11/9
f 7/11/7 36/10/7 35/10/7
f 36/10/7 7/11/7 8/11/7
f 24/10/10 1/11/10 33/10/10
f 1/11/10 24/10/10 3/12/10
f 3/12/10 24/10/10 26/11/10
f 26/11/10 6/9/10 3/12/10
f 6/9/10 26/11/10 31/11/10
f 6/9/10 31/11/10 12/9/10
f 31/11/10 36/10/10 12/9/10
f 36/10/10 31/11/10 29/10/10
f 12/9/10 36/10/10 10/12/10
f 10/12/10 36/10/10 8/11/10
f 32/11/8 35/10/8 30/10/8
f 35/10/8 32/11/8 9/12/8
f 35/10/8 9/12/8 7/11/8
f 32/11/8 11/9/8 9/12/8
f 25/11/8 11/9/8 32/11/8
f 11/9/8 25/11/8 5/9/8
f 25/11/8 4/12/8 5/9/8
f 23/10/8 4/12/8 25/11/8
f 34/10/8 4/12/8 23/10/8
f 4/12/8 34/10/8 2/11/8
f 30/14/8 37/13/8 28/13/8
f 37/13/8 30/14/8 35/14/8
f 37/13/8 35/14/8 38/15/8
f 41/15/17 40/13/16 39/13/16
f 40/13/16 41/15/17 42/15/17
f 22/13/12 40/13/16 21/13/12
f 40/13/16 22/13/12 39/13/16
f 33/14/9 42/15/17 41/15/17
f 42/15/17 33/14/9 34/14/9
f 35/14/7 43/15/18 38/15/18
f 43/15/18 35/14/7 36/14/7
f 44/13/19 28/13/12 37/13/19
f 28/13/12 44/13/19 27/13/12
f 38/15/18 44/13/19 37/13/19
f 44/13/19 38/15/18 43/15/18
f 23/14/8 42/15/8 34/14/8
f 42/15/8 23/14/8 40/13/8
f 40/13/8 23/14/8 21/13/8
f 39/13/10 33/14/10 41/15/10
f 33/14/10 39/13/10 24/14/10
f 24/14/10 39/13/10 22/13/10
f 44/13/10 29/14/10 27/13/10
f 29/14/10 44/13/10 36/14/10
f 36/14/10 44/13/10 43/15/10

