# Created by Kenney (www.kenney.nl)

mtllib cover-stripe-bar.mtl

g cover-stripe-bar

v -0.05 0.5 0.6 1 1 1
v 0.05 0.5 0.6 1 1 1
v -0.05 0.9 0.6 1 1 1
v 0.05 0.9 0.6 1 1 1
v -0.05 0.5 0.65 1 1 1
v -0.05 0.9 0.65 1 1 1
v 0.05 0.5 0.65 1 1 1
v 0.05 0.9 0.65 1 1 1
v -0.05 0.5 -0.65 1 1 1
v -0.05 0.9 -0.65 1 1 1
v -0.05 0.5 -0.6 1 1 1
v -0.05 0.9 -0.6 1 1 1
v -0.4 0.5 0.6 1 1 1
v -0.4 0.5 0.7 1 1 1
v 0.4 0.5 0.7 1 1 1
v 0.4 0.5 0.6 1 1 1
v 0.05 0.5 -0.65 1 1 1
v 0.05 0.9 -0.65 1 1 1
v -0.4 0.5 -0.6 1 1 1
v -0.4 0.5 -0.7 1 1 1
v 0.4 0.5 -0.7 1 1 1
v 0.4 0.5 -0.6 1 1 1
v 0.05 0.5 -0.6 1 1 1
v 0.05 0.9 -0.6 1 1 1
v -0.4 0.9 -0.7 1 1 1
v -0.4 0.9 -0.5 1 1 1
v -0.4 0.4 -0.6 1 1 1
v -0.4 0.4 -0.5 1 1 1
v 0.4 0.4 0.5 1 1 1
v 0.4 0.9 0.5 1 1 1
v 0.4 0.4 0.6 1 1 1
v 0.4 0.9 0.7 1 1 1
v 0.4 0.4 -0.6 1 1 1
v 0.5 1 0.5 1 1 1
v 0.5 1 -0.5 1 1 1
v -0.5 1 0.5 1 1 1
v -0.5 1 -0.5 1 1 1
v 0.4 0.4 -0.5 1 1 1
v 0.4 0.9 -0.5 1 1 1
v 0.4 0.9 -0.7 1 1 1
v -0.4 0.9 0.5 1 1 1
v -0.4 0.4 0.5 1 1 1
v -0.4 0.9 0.7 1 1 1
v -0.4 0.4 0.6 1 1 1
v 0.5 0 -0.5 1 1 1
v -0.5 1.173106E-15 -0.5 1 1 1
v 0.5 0.4 -0.5 1 1 1
v -0.5 0.4 -0.5 1 1 1
v -0.5 1.804779E-16 0.5 1 1 1
v 0.5 1.353584E-15 0.5 1 1 1
v -0.5 0.4 0.5 1 1 1
v 0.5 0.4 0.5 1 1 1
v 0.5 1.15 -0.65 1 1 1
v 0.5 1.2 -0.5 1 1 1
v -0.5 1.15 -0.65 1 1 1
v -0.5 1.2 -0.5 1 1 1
v 0.5 1.15 0.65 1 1 1
v -0.5 1.15 0.65 1 1 1
v 0.5 1.2 0.5 1 1 1
v -0.5 1.2 0.5 1 1 1
v -0.5 1 -0.7 1 1 1
v 0.5 1 -0.7 1 1 1
v 0.5 1 0.7 1 1 1
v -0.5 1 0.7 1 1 1
v 0.5 0.4 -0.7 1 1 1
v 0.5 0.2 -0.7 1 1 1
v 0.5 5.86553E-16 -0.6 1 1 1
v -0.5 5.86553E-16 -0.6 1 1 1
v -0.5 0.2 -0.7 1 1 1
v -0.5 0.4 -0.7 1 1 1
v 0.5 0.2 0.7 1 1 1
v -0.5 0.2 0.7 1 1 1
v 0.5 0.4 0.7 1 1 1
v -0.5 0.4 0.7 1 1 1
v 0.5 7.670309E-16 0.6 1 1 1
v -0.5 7.670309E-16 0.6 1 1 1

vn 0 0 -1
vn -1 0 0
vn 0 0 1
vn 1 0 0
vn 0 0.4472136 -0.8944272
vn 0 1 0
vn 0 0.7071068 -0.7071068
vn 0 0.7071068 0.7071068
vn 0 0.4472136 0.8944272
vn 0 -1 0
vn 0 0.9486833 -0.3162278
vn 0 0.9486833 0.3162278
vn 0 0.3162278 -0.9486833
vn 0 0.3162278 0.9486833
vn 0 -0.8506508 -0.5257311
vn 0 -0.2297529 -0.973249
vn 0 -0.2297529 0.973249
vn 0 -0.8506508 0.5257311

vt 0.09375 0.1083333
vt 0.09375 0.175
vt 0.09375 0.09166666
vt 0.09375 0.1916666
vt 0.09375 0.025
vt 0.21875 0.2166666
vt 0.21875 0.225
vt 0.21875 0.1916666
vt 0.21875 0.3416667
vt 0.21875 0.3083333
vt 0.21875 0.275
vt 0.34375 0.025
vt 0.34375 0.175
vt 0.34375 0.225
vt 0.34375 0.2125
vt 0.34375 0.15
vt 0.34375 0.05

usemtl colormap

f 3/2/1 2/1/1 1/1/1
f 2/1/1 3/2/1 4/2/1
f 5/1/2 3/2/2 1/1/2
f 3/2/2 5/1/2 6/2/2
f 8/2/3 5/1/3 7/1/3
f 5/1/3 8/2/3 6/2/3
f 8/2/4 2/1/4 4/2/4
f 2/1/4 8/2/4 7/1/4
f 11/1/2 10/2/2 9/1/2
f 10/2/2 11/1/2 12/2/2
f 13/1/7 5/1/6 1/1/5
f 5/1/6 13/1/7 14/1/6
f 14/1/6 7/1/6 5/1/6
f 15/1/6 7/1/6 14/1/6
f 7/1/6 15/1/6 16/1/7
f 7/1/6 16/1/7 2/1/5
f 10/2/1 17/1/1 9/1/1
f 17/1/1 10/2/1 18/2/1
f 11/1/9 20/1/6 19/1/8
f 9/1/6 20/1/6 11/1/9
f 17/1/6 20/1/6 9/1/6
f 17/1/6 21/1/6 20/1/6
f 21/1/6 17/1/6 22/1/6
f 23/1/6 22/1/6 17/1/6
f 24/2/4 17/1/4 18/2/4
f 17/1/4 24/2/4 23/1/4
f 26/2/4 20/1/4 25/2/4
f 20/1/4 26/2/4 19/1/4
f 19/1/4 26/2/4 27/3/4
f 27/3/4 26/2/4 28/3/4
f 31/3/2 30/2/2 29/3/2
f 30/2/2 31/3/2 16/1/2
f 30/2/2 16/1/2 32/2/2
f 32/2/2 16/1/2 15/1/2
f 22/1/3 27/3/3 33/3/3
f 27/3/3 22/1/3 19/1/8
f 19/1/8 22/1/3 23/1/3
f 19/1/8 23/1/3 11/1/9
f 36/4/10 35/4/10 34/4/10
f 35/4/10 36/4/10 37/4/10
f 38/3/2 22/1/2 33/3/2
f 39/2/2 22/1/2 38/3/2
f 40/2/2 22/1/2 39/2/2
f 22/1/2 40/2/2 21/1/2
f 43/2/4 42/3/4 41/2/4
f 42/3/4 43/2/4 13/1/4
f 13/1/4 43/2/4 14/1/4
f 44/3/4 42/3/4 13/1/4
f 47/3/3 46/5/3 45/5/3
f 46/5/3 47/3/3 48/3/3
f 48/3/3 47/3/3 38/3/3
f 38/3/3 47/3/3 35/4/3
f 28/3/3 48/3/3 38/3/3
f 38/3/3 35/4/3 39/2/3
f 48/3/3 28/3/3 37/4/3
f 39/2/3 35/4/3 26/2/3
f 37/4/3 28/3/3 26/2/3
f 37/4/3 26/2/3 35/4/3
f 27/3/6 38/3/6 33/3/6
f 38/3/6 27/3/6 28/3/6
f 29/3/6 44/3/6 31/3/6
f 44/3/6 29/3/6 42/3/6
f 24/2/3 11/1/3 23/1/3
f 11/1/3 24/2/3 12/2/3
f 13/1/7 31/3/1 44/3/1
f 31/3/1 13/1/7 16/1/7
f 16/1/7 13/1/7 1/1/5
f 16/1/7 1/1/5 2/1/5
f 51/3/1 50/5/1 49/5/1
f 50/5/1 51/3/1 52/3/1
f 52/3/1 51/3/1 42/3/1
f 42/3/1 51/3/1 36/4/1
f 29/3/1 52/3/1 42/3/1
f 42/3/1 36/4/1 41/2/1
f 52/3/1 29/3/1 34/4/1
f 41/2/1 36/4/1 30/2/1
f 34/4/1 29/3/1 30/2/1
f 34/4/1 30/2/1 36/4/1
f 8/2/10 43/2/10 6/2/10
f 6/2/10 43/2/10 3/2/10
f 8/2/10 32/2/10 43/2/10
f 41/2/10 3/2/10 43/2/10
f 32/2/10 8/2/10 30/2/10
f 41/2/10 4/2/10 3/2/10
f 30/2/10 4/2/10 41/2/10
f 4/2/10 30/2/10 8/2/10
f 24/2/10 26/2/10 12/2/10
f 12/2/10 26/2/10 10/2/10
f 24/2/10 39/2/10 26/2/10
f 25/2/10 10/2/10 26/2/10
f 39/2/10 24/2/10 40/2/10
f 25/2/10 18/2/10 10/2/10
f 40/2/10 18/2/10 25/2/10
f 18/2/10 40/2/10 24/2/10
f 55/6/7 54/7/11 53/6/7
f 54/7/11 55/6/7 56/7/11
f 59/7/12 58/6/8 57/6/8
f 58/6/8 59/7/12 60/7/12
f 55/6/7 62/8/13 61/8/13
f 62/8/13 55/6/7 53/6/7
f 57/6/8 64/8/14 63/8/14
f 64/8/14 57/6/8 58/6/8
f 54/7/6 60/7/6 59/7/6
f 60/7/6 54/7/6 56/7/6
f 47/9/4 66/10/4 65/9/4
f 66/10/4 47/9/4 67/11/4
f 67/11/4 47/9/4 45/11/4
f 46/11/10 67/11/15 45/11/10
f 67/11/15 46/11/10 68/11/15
f 69/10/16 67/11/15 68/11/15
f 67/11/15 69/10/16 66/10/16
f 70/9/1 66/10/16 69/10/16
f 66/10/16 70/9/1 65/9/1
f 73/9/3 72/10/17 71/10/17
f 72/10/17 73/9/3 74/9/3
f 71/10/17 76/11/18 75/11/18
f 76/11/18 71/10/17 72/10/17
f 76/11/18 50/11/10 75/11/18
f 50/11/10 76/11/18 49/11/10
f 76/11/2 51/9/2 49/11/2
f 51/9/2 76/11/2 74/9/2
f 74/9/2 76/11/2 72/10/2
f 68/11/2 70/9/2 69/10/2
f 70/9/2 68/11/2 48/9/2
f 48/9/2 68/11/2 46/11/2
f 52/9/4 75/11/4 50/11/4
f 75/11/4 52/9/4 73/9/4
f 75/11/4 73/9/4 71/10/4
f 74/12/2 36/13/2 51/12/2
f 36/13/2 74/12/2 60/14/2
f 60/14/2 74/12/2 58/15/2
f 58/15/2 74/12/2 64/13/2
f 56/14/2 36/13/2 60/14/2
f 56/14/2 37/13/2 36/13/2
f 56/14/2 48/12/2 37/13/2
f 55/15/2 48/12/2 56/14/2
f 61/13/2 48/12/2 55/15/2
f 48/12/2 61/13/2 70/12/2
f 53/15/4 65/12/4 62/13/4
f 65/12/4 53/15/4 47/12/4
f 47/12/4 53/15/4 54/14/4
f 47/12/4 54/14/4 35/13/4
f 59/14/4 35/13/4 54/14/4
f 35/13/4 59/14/4 34/13/4
f 34/13/4 59/14/4 57/15/4
f 73/12/4 34/13/4 57/15/4
f 73/12/4 57/15/4 63/13/4
f 34/13/4 73/12/4 52/12/4
f 20/17/1 61/13/1 25/16/1
f 25/16/1 61/13/1 40/16/1
f 20/17/1 70/12/1 61/13/1
f 62/13/1 40/16/1 61/13/1
f 70/12/1 20/17/1 65/12/1
f 62/13/1 21/17/1 40/16/1
f 65/12/1 21/17/1 62/13/1
f 21/17/1 65/12/1 20/17/1
f 15/17/3 63/13/3 32/16/3
f 32/16/3 63/13/3 43/16/3
f 15/17/3 73/12/3 63/13/3
f 64/13/3 43/16/3 63/13/3
f 73/12/3 15/17/3 74/12/3
f 64/13/3 14/17/3 43/16/3
f 74/12/3 14/17/3 64/13/3
f 14/17/3 74/12/3 15/17/3

g cover-stripe-bar




usemtl colormap

f 3/2/1 2/1/1 1/1/1
f 2/1/1 3/2/1 4/2/1
f 5/1/2 3/2/2 1/1/2
f 3/2/2 5/1/2 6/2/2
f 8/2/3 5/1/3 7/1/3
f 5/1/3 8/2/3 6/2/3
f 8/2/4 2/1/4 4/2/4
f 2/1/4 8/2/4 7/1/4
f 11/1/2 10/2/2 9/1/2
f 10/2/2 11/1/2 12/2/2
f 13/1/7 5/1/6 1/1/5
f 5/1/6 13/1/7 14/1/6
f 14/1/6 7/1/6 5/1/6
f 15/1/6 7/1/6 14/1/6
f 7/1/6 15/1/6 16/1/7
f 7/1/6 16/1/7 2/1/5
f 10/2/1 17/1/1 9/1/1
f 17/1/1 10/2/1 18/2/1
f 11/1/9 20/1/6 19/1/8
f 9/1/6 20/1/6 11/1/9
f 17/1/6 20/1/6 9/1/6
f 17/1/6 21/1/6 20/1/6
f 21/1/6 17/1/6 22/1/6
f 23/1/6 22/1/6 17/1/6
f 24/2/4 17/1/4 18/2/4
f 17/1/4 24/2/4 23/1/4
f 26/2/4 20/1/4 25/2/4
f 20/1/4 26/2/4 19/1/4
f 19/1/4 26/2/4 27/3/4
f 27/3/4 26/2/4 28/3/4
f 31/3/2 30/2/2 29/3/2
f 30/2/2 31/3/2 16/1/2
f 30/2/2 16/1/2 32/2/2
f 32/2/2 16/1/2 15/1/2
f 22/1/3 27/3/3 33/3/3
f 27/3/3 22/1/3 19/1/8
f 19/1/8 22/1/3 23/1/3
f 19/1/8 23/1/3 11/1/9
f 36/4/10 35/4/10 34/4/10
f 35/4/10 36/4/10 37/4/10
f 38/3/2 22/1/2 33/3/2
f 39/2/2 22/1/2 38/3/2
f 40/2/2 22/1/2 39/2/2
f 22/1/2 40/2/2 21/1/2
f 43/2/4 42/3/4 41/2/4
f 42/3/4 43/2/4 13/1/4
f 13/1/4 43/2/4 14/1/4
f 44/3/4 42/3/4 13/1/4
f 47/3/3 46/5/3 45/5/3
f 46/5/3 47/3/3 48/3/3
f 48/3/3 47/3/3 38/3/3
f 38/3/3 47/3/3 35/4/3
f 28/3/3 48/3/3 38/3/3
f 38/3/3 35/4/3 39/2/3
f 48/3/3 28/3/3 37/4/3
f 39/2/3 35/4/3 26/2/3
f 37/4/3 28/3/3 26/2/3
f 37/4/3 26/2/3 35/4/3
f 27/3/6 38/3/6 33/3/6
f 38/3/6 27/3/6 28/3/6
f 29/3/6 44/3/6 31/3/6
f 44/3/6 29/3/6 42/3/6
f 24/2/3 11/1/3 23/1/3
f 11/1/3 24/2/3 12/2/3
f 13/1/7 31/3/1 44/3/1
f 31/3/1 13/1/7 16/1/7
f 16/1/7 13/1/7 1/1/5
f 16/1/7 1/1/5 2/1/5
f 51/3/1 50/5/1 49/5/1
f 50/5/1 51/3/1 52/3/1
f 52/3/1 51/3/1 42/3/1
f 42/3/1 51/3/1 36/4/1
f 29/3/1 52/3/1 42/3/1
f 42/3/1 36/4/1 41/2/1
f 52/3/1 29/3/1 34/4/1
f 41/2/1 36/4/1 30/2/1
f 34/4/1 29/3/1 30/2/1
f 34/4/1 30/2/1 36/4/1
f 8/2/10 43/2/10 6/2/10
f 6/2/10 43/2/10 3/2/10
f 8/2/10 32/2/10 43/2/10
f 41/2/10 3/2/10 43/2/10
f 32/2/10 8/2/10 30/2/10
f 41/2/10 4/2/10 3/2/10
f 30/2/10 4/2/10 41/2/10
f 4/2/10 30/2/10 8/2/10
f 24/2/10 26/2/10 12/2/10
f 12/2/10 26/2/10 10/2/10
f 24/2/10 39/2/10 26/2/10
f 25/2/10 10/2/10 26/2/10
f 39/2/10 24/2/10 40/2/10
f 25/2/10 18/2/10 10/2/10
f 40/2/10 18/2/10 25/2/10
f 18/2/10 40/2/10 24/2/10
f 55/6/7 54/7/11 53/6/7
f 54/7/11 55/6/7 56/7/11
f 59/7/12 58/6/8 57/6/8
f 58/6/8 59/7/12 60/7/12
f 55/6/7 62/8/13 61/8/13
f 62/8/13 55/6/7 53/6/7
f 57/6/8 64/8/14 63/8/14
f 64/8/14 57/6/8 58/6/8
f 54/7/6 60/7/6 59/7/6
f 60/7/6 54/7/6 56/7/6
f 47/9/4 66/10/4 65/9/4
f 66/10/4 47/9/4 67/11/4
f 67/11/4 47/9/4 45/11/4
f 46/11/10 67/11/15 45/11/10
f 67/11/15 46/11/10 68/11/15
f 69/10/16 67/11/15 68/11/15
f 67/11/15 69/10/16 66/10/16
f 70/9/1 66/10/16 69/10/16
f 66/10/16 70/9/1 65/9/1
f 73/9/3 72/10/17 71/10/17
f 72/10/17 73/9/3 74/9/3
f 71/10/17 76/11/18 75/11/18
f 76/11/18 71/10/17 72/10/17
f 76/11/18 50/11/10 75/11/18
f 50/11/10 76/11/18 49/11/10
f 76/11/2 51/9/2 49/11/2
f 51/9/2 76/11/2 74/9/2
f 74/9/2 76/11/2 72/10/2
f 68/11/2 70/9/2 69/10/2
f 70/9/2 68/11/2 48/9/2
f 48/9/2 68/11/2 46/11/2
f 52/9/4 75/11/4 50/11/4
f 75/11/4 52/9/4 73/9/4
f 75/11/4 73/9/4 71/10/4
f 74/12/2 36/13/2 51/12/2
f 36/13/2 74/12/2 60/14/2
f 60/14/2 74/12/2 58/15/2
f 58/15/2 74/12/2 64/13/2
f 56/14/2 36/13/2 60/14/2
f 56/14/2 37/13/2 36/13/2
f 56/14/2 48/12/2 37/13/2
f 55/15/2 48/12/2 56/14/2
f 61/13/2 48/12/2 55/15/2
f 48/12/2 61/13/2 70/12/2
f 53/15/4 65/12/4 62/13/4
f 65/12/4 53/15/4 47/12/4
f 47/12/4 53/15/4 54/14/4
f 47/12/4 54/14/4 35/13/4
f 59/14/4 35/13/4 54/14/4
f 35/13/4 59/14/4 34/13/4
f 34/13/4 59/14/4 57/15/4
f 73/12/4 34/13/4 57/15/4
f 73/12/4 57/15/4 63/13/4
f 34/13/4 73/12/4 52/12/4
f 20/17/1 61/13/1 25/16/1
f 25/16/1 61/13/1 40/16/1
f 20/17/1 70/12/1 61/13/1
f 62/13/1 40/16/1 61/13/1
f 70/12/1 20/17/1 65/12/1
f 62/13/1 21/17/1 40/16/1
f 65/12/1 21/17/1 62/13/1
f 21/17/1 65/12/1 20/17/1
f 15/17/3 63/13/3 32/16/3
f 32/16/3 63/13/3 43/16/3
f 15/17/3 73/12/3 63/13/3
f 64/13/3 43/16/3 63/13/3
f 73/12/3 15/17/3 74/12/3
f 64/13/3 14/17/3 43/16/3
f 74/12/3 14/17/3 64/13/3
f 14/17/3 74/12/3 15/17/3

