# Created by Kenney (www.kenney.nl)

mtllib door.mtl

g door

v 0.3 0.75 0 1 1 1
v 0.3 0.75 -0.05 1 1 1
v 0.3 1.5 0 1 1 1
v 0.3 1.5 -0.1 1 1 1
v 0.3 0.65 -0.05 1 1 1
v 0.3 0.1 -0.1 1 1 1
v 0.3 0.1 0 1 1 1
v 0.3 0.65 0 1 1 1
v -0.3 1.5 -0.1 1 1 1
v -0.3 0.1 -0.1 1 1 1
v -0.3 1.5 0 1 1 1
v -0.3 0.75 -0.05 1 1 1
v -0.3 0.75 0 1 1 1
v -0.3 0.65 -0.05 1 1 1
v -0.3 0.1 0 1 1 1
v -0.3 0.65 0 1 1 1
v 0.4 0 0.1 1 1 1
v 0.4 3.289961E-17 -0.1 1 1 1
v -0.4 0 0.1 1 1 1
v -0.4 0 -0.1 1 1 1
v 0.4 1.6 -0.1 1 1 1
v 0.4 1.6 0.1 1 1 1
v -0.4 1.6 -0.1 1 1 1
v -0.4 1.6 0.1 1 1 1
v -0.25 0.8 0 1 1 1
v 0.25 0.8 0 1 1 1
v -0.25 1.45 0 1 1 1
v 0.25 1.45 0 1 1 1
v 0.2499999 0.8 3.874302E-08 1 1 1
v 0.2499999 1.45 -3.874302E-08 1 1 1
v -0.2500001 0.8 3.874302E-08 1 1 1
v -0.2500001 1.45 -3.874302E-08 1 1 1

vn -1 0 0
vn 1 0 0
vn 0 1 0
vn 0 -1 0
vn 0 0 1
vn 0 0 -1
vn 0 -0.7071068 -0.7071068
vn 0 0.7071068 -0.7071068
vn 0 -1.192093E-07 -1

vt 0.21875 0.11875
vt 0.21875 0.2125
vt 0.21875 0.10625
vt 0.21875 0.0375
vt 0.21875 0.025
vt 0.21875 0.225
vt 0.21875 0.125
vt 0.21875 0.20625
vt 0.34375 0.10625
vt 0.34375 0.11875
vt 0.21875 0.2875
vt 0.21875 0.35625
vt 0.40625 0.125

usemtl colormap

f 3/2/1 2/1/1 1/1/1
f 4/2/1 2/1/1 3/2/1
f 2/1/1 4/2/1 5/3/1
f 6/4/1 5/3/1 4/2/1
f 5/3/1 6/4/1 7/4/1
f 5/3/1 7/4/1 8/3/1
f 11/2/2 10/4/2 9/2/2
f 10/4/2 11/2/2 12/1/2
f 12/1/2 11/2/2 13/1/2
f 14/3/2 10/4/2 12/1/2
f 10/4/2 14/3/2 15/4/2
f 15/4/2 14/3/2 16/3/2
f 10/4/3 7/4/3 6/4/3
f 7/4/3 10/4/3 15/4/3
f 19/5/4 18/5/4 17/5/4
f 18/5/4 19/5/4 20/5/4
f 22/6/2 18/5/2 21/6/2
f 18/5/2 22/6/2 17/5/2
f 23/6/3 22/6/3 21/6/3
f 22/6/3 23/6/3 24/6/3
f 11/2/4 4/2/4 3/2/4
f 4/2/4 11/2/4 9/2/4
f 22/6/5 19/5/5 17/5/5
f 19/5/5 22/6/5 24/6/5
f 19/5/1 23/6/1 20/5/1
f 23/6/1 19/5/1 24/6/1
f 13/1/6 25/7/6 1/1/6
f 25/7/6 13/1/6 11/2/6
f 26/7/6 1/1/6 25/7/6
f 25/7/6 11/2/6 27/8/6
f 1/1/6 26/7/6 3/2/6
f 27/8/6 11/2/6 28/8/6
f 3/2/6 26/7/6 28/8/6
f 3/2/6 28/8/6 11/2/6
f 10/4/6 23/6/6 9/2/6
f 9/2/6 23/6/6 4/2/6
f 10/4/6 20/5/6 23/6/6
f 21/6/6 4/2/6 23/6/6
f 20/5/6 10/4/6 18/5/6
f 21/6/6 6/4/6 4/2/6
f 18/5/6 6/4/6 21/6/6
f 6/4/6 18/5/6 10/4/6
f 16/9/4 5/9/7 8/9/4
f 5/9/7 16/9/4 14/9/7
f 12/10/8 1/10/3 2/10/8
f 1/10/3 12/10/8 13/10/3
f 12/10/8 5/9/7 14/9/7
f 5/9/7 12/10/8 2/10/8
f 16/12/6 7/11/6 15/11/6
f 7/11/6 16/12/6 8/12/6
f 31/13/9 30/13/9 29/13/9
f 30/13/9 31/13/9 32/13/9

