# Created by Kenney (www.kenney.nl)

mtllib door-wide-half.mtl

g door-wide-half

v -0.9 0.8198057 0.4 1 1 1
v 0.9 0.8198057 0.4 1 1 1
v -0.9 1.051591 0.4 1 1 1
v 0.9 1.051591 0.4 1 1 1
v -0.9 1.283376 0.4 1 1 1
v 0.9 1.283376 0.4 1 1 1
v -0.9 1.484107 0.5098076 1 1 1
v 0.9 1.484107 0.5098076 1 1 1
v -0.1178871 0.5194417 0.4 1 1 1
v -0.9 0.5880208 0.4 1 1 1
v -0.1178871 0.424815 0.4 1 1 1
v 0.1178871 0.5194417 0.4 1 1 1
v -0.9 0.3562358 0.4 1 1 1
v 0.9 0.5880208 0.4 1 1 1
v 0.9 0.3562358 0.4 1 1 1
v 0.1178871 0.424815 0.4 1 1 1
v 0.9 1.6 0.7 1 1 1
v -0.9 1.6 0.7 1 1 1
v -0.9 0.8198058 0.4 1 1 1
v 0.9 0.8198058 0.4 1 1 1
v -0.9 1.283376 0.4 1 1 1
v 0.9 1.283376 0.4 1 1 1
v 0.1178871 0.4248149 0.4 1 1 1
v -0.1178871 0.4248149 0.4 1 1 1

vn 0 0 -1
vn 0 0.4799216 -0.8773113
vn 0 0.8539527 -0.5203506
vn 0 -1.192093E-07 -1

vt 0.21875 0.385478
vt 0.21875 0.4167135
vt 0.21875 0.4479492
vt 0.21875 0.475
vt 0.21875 0.3450005
vt 0.21875 0.3542424
vt 0.21875 0.3322485
vt 0.21875 0.3230067
vt 0.21875 0.3635479
vt 0.21875 0.375
vt 0.21875 0.275
vt 0.21875 0.2979041
vt 0.21875 0.3208083
vt 0.21875 0.3437124
vt 0.34375 0.025

usemtl colormap

f 3/2/1 2/1/1 1/1/1
f 2/1/1 3/2/1 4/2/1
f 7/4/2 6/3/2 5/3/2
f 6/3/2 7/4/2 8/4/2
f 11/7/1 10/6/1 9/5/1
f 9/5/1 10/6/1 12/5/1
f 11/7/1 13/8/1 10/6/1
f 14/6/1 12/5/1 10/6/1
f 13/8/1 11/7/1 15/8/1
f 14/6/1 16/7/1 12/5/1
f 15/8/1 16/7/1 14/6/1
f 16/7/1 15/8/1 11/7/1
f 7/9/3 17/10/3 8/9/3
f 17/10/3 7/9/3 18/10/3
f 19/12/1 14/11/1 10/11/1
f 14/11/1 19/12/1 20/12/1
f 21/14/1 4/13/1 3/13/1
f 4/13/1 21/14/1 22/14/1
f 24/15/4 12/15/4 23/15/4
f 12/15/4 24/15/4 9/15/4

g door-wide-half




usemtl colormap

f 3/2/1 2/1/1 1/1/1
f 2/1/1 3/2/1 4/2/1
f 7/4/2 6/3/2 5/3/2
f 6/3/2 7/4/2 8/4/2
f 11/7/1 10/6/1 9/5/1
f 9/5/1 10/6/1 12/5/1
f 11/7/1 13/8/1 10/6/1
f 14/6/1 12/5/1 10/6/1
f 13/8/1 11/7/1 15/8/1
f 14/6/1 16/7/1 12/5/1
f 15/8/1 16/7/1 14/6/1
f 16/7/1 15/8/1 11/7/1
f 7/9/3 17/10/3 8/9/3
f 17/10/3 7/9/3 18/10/3
f 19/12/1 14/11/1 10/11/1
f 14/11/1 19/12/1 20/12/1
f 21/14/1 4/13/1 3/13/1
f 4/13/1 21/14/1 22/14/1
f 24/15/4 12/15/4 23/15/4
f 12/15/4 24/15/4 9/15/4

