# Created by Kenney (www.kenney.nl)

mtllib door-wide-closed.mtl

g door-wide-closed

v -0.9 1.39071 0.4 1 1 1
v 0.9 1.39071 0.4 1 1 1
v -0.9 1.6 0.4 1 1 1
v 0.9 1.6 0.4 1 1 1
v -0.9 0.46357 0.4 1 1 1
v 0.9 0.46357 0.4 1 1 1
v -0.9 0.695355 0.4 1 1 1
v 0.9 0.695355 0.4 1 1 1
v -0.9 0.92714 0.4 1 1 1
v 0.9 0.92714 0.4 1 1 1
v -0.9 1.158925 0.4 1 1 1
v 0.9 1.158925 0.4 1 1 1
v -0.1178871 0.1632059 0.4 1 1 1
v -0.9 0.231785 0.4 1 1 1
v -0.1178871 0.06857914 0.4 1 1 1
v 0.1178871 0.1632059 0.4 1 1 1
v -0.9 4.511946E-17 0.4 1 1 1
v 0.9 0.231785 0.4 1 1 1
v 0.9 4.511946E-17 0.4 1 1 1
v 0.1178871 0.06857914 0.4 1 1 1
v -0.9 1.158925 0.4 1 1 1
v 0.9 1.158925 0.4 1 1 1
v -0.9 1.39071 0.4 1 1 1
v 0.9 1.39071 0.4 1 1 1
v 0.1178871 0.06857912 0.4 1 1 1
v 0.1178871 0.1632059 0.4 1 1 1
v -0.1178871 0.06857912 0.4 1 1 1
v -0.1178871 0.1632059 0.4 1 1 1

vn 0 0 -1
vn 0 -1.192093E-07 -1

vt 0.21875 0.4488387
vt 0.21875 0.475
vt 0.21875 0.3329462
vt 0.21875 0.3619194
vt 0.21875 0.3908925
vt 0.21875 0.4198656
vt 0.21875 0.2954007
vt 0.21875 0.3039731
vt 0.21875 0.2835724
vt 0.21875 0.275
vt 0.21875 0.355
vt 0.21875 0.375
vt 0.21875 0.295
vt 0.21875 0.315
vt 0.21875 0.335
vt 0.34375 0.025

usemtl colormap

f 3/2/1 2/1/1 1/1/1
f 2/1/1 3/2/1 4/2/1
f 7/4/1 6/3/1 5/3/1
f 6/3/1 7/4/1 8/4/1
f 11/6/1 10/5/1 9/5/1
f 10/5/1 11/6/1 12/6/1
f 15/9/1 14/8/1 13/7/1
f 13/7/1 14/8/1 16/7/1
f 15/9/1 17/10/1 14/8/1
f 18/8/1 16/7/1 14/8/1
f 17/10/1 15/9/1 19/10/1
f 18/8/1 20/9/1 16/7/1
f 19/10/1 20/9/1 18/8/1
f 20/9/1 19/10/1 15/9/1
f 23/12/1 22/11/1 21/11/1
f 22/11/1 23/12/1 24/12/1
f 5/13/1 18/10/1 14/10/1
f 18/10/1 5/13/1 6/13/1
f 9/15/1 8/14/1 7/14/1
f 8/14/1 9/15/1 10/15/1
f 27/16/2 26/16/2 25/16/2
f 26/16/2 27/16/2 28/16/2

g door-wide-closed




usemtl colormap

f 3/2/1 2/1/1 1/1/1
f 2/1/1 3/2/1 4/2/1
f 7/4/1 6/3/1 5/3/1
f 6/3/1 7/4/1 8/4/1
f 11/6/1 10/5/1 9/5/1
f 10/5/1 11/6/1 12/6/1
f 15/9/1 14/8/1 13/7/1
f 13/7/1 14/8/1 16/7/1
f 15/9/1 17/10/1 14/8/1
f 18/8/1 16/7/1 14/8/1
f 17/10/1 15/9/1 19/10/1
f 18/8/1 20/9/1 16/7/1
f 19/10/1 20/9/1 18/8/1
f 20/9/1 19/10/1 15/9/1
f 23/12/1 22/11/1 21/11/1
f 22/11/1 23/12/1 24/12/1
f 5/13/1 18/10/1 14/10/1
f 18/10/1 5/13/1 6/13/1
f 9/15/1 8/14/1 7/14/1
f 8/14/1 9/15/1 10/15/1
f 27/16/2 26/16/2 25/16/2
f 26/16/2 27/16/2 28/16/2

