# Created by Kenney (www.kenney.nl)

mtllib structure-window.mtl

g structure-window

v 0.5 3 0.5 1 1 1
v 0.5 3 1.5 1 1 1
v -0.5 3 0.5 1 1 1
v -0.5 3 1.5 1 1 1
v -0.5 2.279161E-16 0.5 1 1 1
v 0.5 2.279161E-16 0.5 1 1 1
v -0.5 0.6 0.5 1 1 1
v 0.5 0.6 0.5 1 1 1
v -0.5 0.9 0.6 1 1 1
v 0.5 0.9 0.6 1 1 1
v -0.5 1.5 0.6 1 1 1
v 0.5 1.5 0.6 1 1 1
v -0.5 1.6 0.6 1 1 1
v 0.5 1.6 0.6 1 1 1
v -0.5 2.7 0.6 1 1 1
v 0.5 2.7 0.6 1 1 1
v -0.5 2.8 0.6 1 1 1
v 0.5 2.8 0.6 1 1 1
v 0.5 2.8 0.5 1 1 1
v -0.5 2.8 0.5 1 1 1
v -0.2320747 1.767925 0.6 1 1 1
v 0.2320747 1.767925 0.6 1 1 1
v -0.3070747 1.792925 0.6 1 1 1
v 0.3070747 1.792925 0.6 1 1 1
v -0.219269 1.846838 0.6 1 1 1
v -0.3320747 1.867925 0.6 1 1 1
v 0.219269 1.846838 0.6 1 1 1
v -0.2446891 1.855311 0.6 1 1 1
v -0.2531624 1.880731 0.6 1 1 1
v 0.3320747 1.867925 0.6 1 1 1
v 0.2446891 1.855311 0.6 1 1 1
v 0.2531624 1.880731 0.6 1 1 1
v -0.3320747 2.432075 0.6 1 1 1
v -0.2531624 2.419269 0.6 1 1 1
v -0.2446891 2.444689 0.6 1 1 1
v 0.3320747 2.432075 0.6 1 1 1
v 0.2531624 2.419269 0.6 1 1 1
v 0.2446891 2.444689 0.6 1 1 1
v -0.3070747 2.507075 0.6 1 1 1
v 0.3070747 2.507075 0.6 1 1 1
v -0.219269 2.453162 0.6 1 1 1
v 0.219269 2.453162 0.6 1 1 1
v -0.2320747 2.532075 0.6 1 1 1
v 0.2320747 2.532075 0.6 1 1 1
v -0.219269 1.846838 0.7 1 1 1
v 0.219269 1.846838 0.7 1 1 1
v -0.2446891 1.855311 0.7 1 1 1
v 0.2446891 1.855311 0.7 1 1 1
v -0.2531624 1.880731 0.7 1 1 1
v 0.2531624 1.880731 0.7 1 1 1
v -0.1895458 1.910454 0.7 1 1 1
v -0.2531624 2.419269 0.7 1 1 1
v 0.1895458 1.910454 0.7 1 1 1
v -0.1895458 2.389546 0.7 1 1 1
v 0.2531624 2.419269 0.7 1 1 1
v 0.1895458 2.389546 0.7 1 1 1
v -0.2446891 2.444689 0.7 1 1 1
v 0.2446891 2.444689 0.7 1 1 1
v -0.219269 2.453162 0.7 1 1 1
v 0.219269 2.453162 0.7 1 1 1
v -0.5 1.2 0.6 1 1 1
v 0.5 1.2 0.6 1 1 1
v 0.3070747 2.507075 0.6 1 1 1
v 0.3320747 2.432075 0.6 1 1 1
v 0.5 2.7 0.6 1 1 1
v 0.3320747 1.867925 0.6 1 1 1
v -0.5 2.7 0.6 1 1 1
v 0.3070747 1.792925 0.6 1 1 1
v -0.3070747 2.507075 0.6 1 1 1
v -0.3320747 2.432075 0.6 1 1 1
v -0.3320747 1.867925 0.6 1 1 1
v -0.3070747 1.792925 0.6 1 1 1
v 0.5 4.743824E-17 -0.5 1 1 1
v -0.5 4.743824E-17 -0.5 1 1 1
v -0.5 1.2 0.7 1 1 1
v 0.5 1.2 0.7 1 1 1
v -0.5 1.5 0.7 1 1 1
v 0.5 1.5 0.7 1 1 1
v 0.1895458 1.910454 0.7 1 1 1
v -0.1895458 1.910454 0.7 1 1 1

vn 0 1 0
vn 0 0 -1
vn 0 0.1601822 -0.9870875
vn 0 0.3162278 -0.9486833
vn 0 -1 0
vn 0 -0.7071068 -0.7071068
vn -0.7071068 -0.7071068 0
vn -0.3162278 -0.9486833 0
vn -0.9486833 -0.3162278 0
vn -1 0 0
vn -0.7071068 0.7071068 0
vn -0.9486833 0.3162278 0
vn -0.3162278 0.9486833 0
vn 0.3162278 0.9486833 0
vn 0.7071068 0.7071068 0
vn 0.9486833 0.3162278 0
vn 1 0 0
vn 0.9486833 -0.3162278 0
vn 0.7071068 -0.7071068 0
vn 0.3162278 -0.9486833 0
vn 0 0.7071068 -0.7071068
vn -9.434065E-15 -1.192093E-07 -1

vt 0.21875 0.225
vt 0.21875 0.025
vt 0.21875 0.065
vt 0.21875 0.085
vt 0.21875 0.125
vt 0.21875 0.1316667
vt 0.21875 0.205
vt 0.21875 0.2116666
vt 0.21875 0.1428617
vt 0.21875 0.1445283
vt 0.21875 0.1481225
vt 0.21875 0.1495283
vt 0.21875 0.1486874
vt 0.21875 0.1503821
vt 0.21875 0.1871383
vt 0.21875 0.1862846
vt 0.21875 0.1879793
vt 0.21875 0.1921383
vt 0.21875 0.1885442
vt 0.21875 0.193805
vt 0.21875 0.1523636
vt 0.21875 0.184303
vt 0.34375 0.085
vt 0.34375 0.105
vt 0.34375 0.1899227
vt 0.34375 0.1762863
vt 0.34375 0.225
vt 0.34375 0.1944681
vt 0.34375 0.0737137
vt 0.34375 0.025
vt 0.34375 0.06007733
vt 0.34375 0.05553188
vt 0.28125 0.125
vt 0.21875 0.355
vt 0.21875 0.375
vt 0.40625 0.125

usemtl colormap

f 3/1/1 2/1/1 1/1/1
f 2/1/1 3/1/1 4/1/1
f 7/3/3 6/2/2 5/2/2
f 6/2/2 7/3/3 8/3/3
f 9/4/4 8/3/3 7/3/3
f 8/3/3 9/4/4 10/4/4
f 13/6/2 12/5/2 11/5/2
f 12/5/2 13/6/2 14/6/2
f 17/8/2 16/7/2 15/7/2
f 16/7/2 17/8/2 18/8/2
f 17/8/5 19/8/6 18/8/5
f 19/8/6 17/8/5 20/8/6
f 3/1/2 19/8/6 20/8/6
f 19/8/6 3/1/2 1/1/2
f 23/10/2 22/9/2 21/9/2
f 22/9/2 23/10/2 24/10/2
f 24/10/2 23/10/2 25/11/2
f 25/11/2 23/10/2 26/12/2
f 27/11/2 24/10/2 25/11/2
f 25/11/2 26/12/2 28/13/2
f 28/13/2 26/12/2 29/14/2
f 24/10/2 27/11/2 30/12/2
f 30/12/2 27/11/2 31/13/2
f 30/12/2 31/13/2 32/14/2
f 29/14/2 26/12/2 33/15/2
f 29/14/2 33/15/2 34/16/2
f 34/16/2 33/15/2 35/17/2
f 30/12/2 32/14/2 36/15/2
f 36/15/2 32/14/2 37/16/2
f 36/15/2 37/16/2 38/17/2
f 35/17/2 33/15/2 39/18/2
f 36/15/2 38/17/2 40/18/2
f 35/17/2 39/18/2 41/19/2
f 41/19/2 39/18/2 42/19/2
f 40/18/2 38/17/2 42/19/2
f 40/18/2 42/19/2 39/18/2
f 40/18/2 39/18/2 43/20/2
f 40/18/2 43/20/2 44/20/2
f 47/13/2 46/11/2 45/11/2
f 46/11/2 47/13/2 48/13/2
f 48/13/2 47/13/2 49/14/2
f 48/13/2 49/14/2 50/14/2
f 50/14/2 49/14/2 51/21/2
f 51/21/2 49/14/2 52/16/2
f 53/21/2 50/14/2 51/21/2
f 51/21/2 52/16/2 54/22/2
f 50/14/2 53/21/2 55/16/2
f 54/22/2 52/16/2 56/22/2
f 55/16/2 53/21/2 56/22/2
f 55/16/2 56/22/2 52/16/2
f 55/16/2 52/16/2 57/17/2
f 55/16/2 57/17/2 58/17/2
f 58/17/2 57/17/2 59/19/2
f 58/17/2 59/19/2 60/19/2
f 60/19/8 38/17/7 58/17/7
f 38/17/7 60/19/8 42/19/8
f 55/16/9 38/17/7 37/16/9
f 38/17/7 55/16/9 58/17/7
f 50/14/10 37/16/10 32/14/10
f 37/16/10 50/14/10 55/16/10
f 48/13/11 32/14/12 31/13/11
f 32/14/12 48/13/11 50/14/12
f 27/11/13 48/13/11 31/13/11
f 48/13/11 27/11/13 46/11/13
f 25/11/1 46/11/1 27/11/1
f 46/11/1 25/11/1 45/11/1
f 28/13/15 45/11/14 25/11/14
f 45/11/14 28/13/15 47/13/15
f 29/14/16 47/13/15 28/13/15
f 47/13/15 29/14/16 49/14/16
f 34/16/17 49/14/17 29/14/17
f 49/14/17 34/16/17 52/16/17
f 35/17/19 52/16/18 34/16/18
f 52/16/18 35/17/19 57/17/19
f 57/17/19 41/19/20 59/19/20
f 41/19/20 57/17/19 35/17/19
f 59/19/5 42/19/5 60/19/5
f 42/19/5 59/19/5 41/19/5
f 61/24/2 10/23/2 9/23/2
f 10/23/2 61/24/2 62/24/2
f 65/27/2 64/26/2 63/25/2
f 65/27/2 63/25/2 44/28/2
f 65/27/2 66/29/2 64/26/2
f 65/27/2 44/28/2 67/27/2
f 14/30/2 66/29/2 65/27/2
f 43/28/2 67/27/2 44/28/2
f 66/29/2 14/30/2 68/31/2
f 68/31/2 14/30/2 22/32/2
f 22/32/2 14/30/2 21/32/2
f 69/25/2 67/27/2 43/28/2
f 70/26/2 67/27/2 69/25/2
f 71/29/2 67/27/2 70/26/2
f 13/30/2 21/32/2 14/30/2
f 71/29/2 13/30/2 67/27/2
f 21/32/2 13/30/2 72/31/2
f 72/31/2 13/30/2 71/29/2
f 74/33/1 6/33/1 73/33/1
f 6/33/1 74/33/1 5/33/1
f 77/35/6 76/34/21 75/34/21
f 76/34/21 77/35/6 78/35/6
f 61/34/1 76/34/21 62/34/1
f 76/34/21 61/34/1 75/34/21
f 77/35/6 12/35/5 78/35/6
f 12/35/5 77/35/6 11/35/5
f 79/36/22 54/36/22 56/36/22
f 54/36/22 79/36/22 80/36/22

g structure-window




usemtl colormap

f 3/1/1 2/1/1 1/1/1
f 2/1/1 3/1/1 4/1/1
f 7/3/3 6/2/2 5/2/2
f 6/2/2 7/3/3 8/3/3
f 9/4/4 8/3/3 7/3/3
f 8/3/3 9/4/4 10/4/4
f 13/6/2 12/5/2 11/5/2
f 12/5/2 13/6/2 14/6/2
f 17/8/2 16/7/2 15/7/2
f 16/7/2 17/8/2 18/8/2
f 17/8/5 19/8/6 18/8/5
f 19/8/6 17/8/5 20/8/6
f 3/1/2 19/8/6 20/8/6
f 19/8/6 3/1/2 1/1/2
f 23/10/2 22/9/2 21/9/2
f 22/9/2 23/10/2 24/10/2
f 24/10/2 23/10/2 25/11/2
f 25/11/2 23/10/2 26/12/2
f 27/11/2 24/10/2 25/11/2
f 25/11/2 26/12/2 28/13/2
f 28/13/2 26/12/2 29/14/2
f 24/10/2 27/11/2 30/12/2
f 30/12/2 27/11/2 31/13/2
f 30/12/2 31/13/2 32/14/2
f 29/14/2 26/12/2 33/15/2
f 29/14/2 33/15/2 34/16/2
f 34/16/2 33/15/2 35/17/2
f 30/12/2 32/14/2 36/15/2
f 36/15/2 32/14/2 37/16/2
f 36/15/2 37/16/2 38/17/2
f 35/17/2 33/15/2 39/18/2
f 36/15/2 38/17/2 40/18/2
f 35/17/2 39/18/2 41/19/2
f 41/19/2 39/18/2 42/19/2
f 40/18/2 38/17/2 42/19/2
f 40/18/2 42/19/2 39/18/2
f 40/18/2 39/18/2 43/20/2
f 40/18/2 43/20/2 44/20/2
f 47/13/2 46/11/2 45/11/2
f 46/11/2 47/13/2 48/13/2
f 48/13/2 47/13/2 49/14/2
f 48/13/2 49/14/2 50/14/2
f 50/14/2 49/14/2 51/21/2
f 51/21/2 49/14/2 52/16/2
f 53/21/2 50/14/2 51/21/2
f 51/21/2 52/16/2 54/22/2
f 50/14/2 53/21/2 55/16/2
f 54/22/2 52/16/2 56/22/2
f 55/16/2 53/21/2 56/22/2
f 55/16/2 56/22/2 52/16/2
f 55/16/2 52/16/2 57/17/2
f 55/16/2 57/17/2 58/17/2
f 58/17/2 57/17/2 59/19/2
f 58/17/2 59/19/2 60/19/2
f 60/19/8 38/17/7 58/17/7
f 38/17/7 60/19/8 42/19/8
f 55/16/9 38/17/7 37/16/9
f 38/17/7 55/16/9 58/17/7
f 50/14/10 37/16/10 32/14/10
f 37/16/10 50/14/10 55/16/10
f 48/13/11 32/14/12 31/13/11
f 32/14/12 48/13/11 50/14/12
f 27/11/13 48/13/11 31/13/11
f 48/13/11 27/11/13 46/11/13
f 25/11/1 46/11/1 27/11/1
f 46/11/1 25/11/1 45/11/1
f 28/13/15 45/11/14 25/11/14
f 45/11/14 28/13/15 47/13/15
f 29/14/16 47/13/15 28/13/15
f 47/13/15 29/14/16 49/14/16
f 34/16/17 49/14/17 29/14/17
f 49/14/17 34/16/17 52/16/17
f 35/17/19 52/16/18 34/16/18
f 52/16/18 35/17/19 57/17/19
f 57/17/19 41/19/20 59/19/20
f 41/19/20 57/17/19 35/17/19
f 59/19/5 42/19/5 60/19/5
f 42/19/5 59/19/5 41/19/5
f 61/24/2 10/23/2 9/23/2
f 10/23/2 61/24/2 62/24/2
f 65/27/2 64/26/2 63/25/2
f 65/27/2 63/25/2 44/28/2
f 65/27/2 66/29/2 64/26/2
f 65/27/2 44/28/2 67/27/2
f 14/30/2 66/29/2 65/27/2
f 43/28/2 67/27/2 44/28/2
f 66/29/2 14/30/2 68/31/2
f 68/31/2 14/30/2 22/32/2
f 22/32/2 14/30/2 21/32/2
f 69/25/2 67/27/2 43/28/2
f 70/26/2 67/27/2 69/25/2
f 71/29/2 67/27/2 70/26/2
f 13/30/2 21/32/2 14/30/2
f 71/29/2 13/30/2 67/27/2
f 21/32/2 13/30/2 72/31/2
f 72/31/2 13/30/2 71/29/2
f 74/33/1 6/33/1 73/33/1
f 6/33/1 74/33/1 5/33/1
f 77/35/6 76/34/21 75/34/21
f 76/34/21 77/35/6 78/35/6
f 61/34/1 76/34/21 62/34/1
f 76/34/21 61/34/1 75/34/21
f 77/35/6 12/35/5 78/35/6
f 12/35/5 77/35/6 11/35/5
f 79/36/22 54/36/22 56/36/22
f 54/36/22 79/36/22 80/36/22

