# Created by Kenney (www.kenney.nl)

mtllib structure-corner-inner.mtl

g structure-corner-inner

v -0.5 1.2 0.7 1 1 1
v 0.7 1.2 0.7 1 1 1
v -0.5 1.5 0.7 1 1 1
v 0.7 1.5 0.7 1 1 1
v 0.7 1.2 -0.5 1 1 1
v 0.6 1.2 0.6 1 1 1
v 0.6 1.2 -0.5 1 1 1
v -0.5 1.2 0.6 1 1 1
v -0.5 1.5 0.6 1 1 1
v 0.6 1.5 0.6 1 1 1
v 0.7 1.5 -0.5 1 1 1
v 0.6 1.5 -0.5 1 1 1
v -0.5 2.7 0.6 1 1 1
v 0.6 2.7 0.6 1 1 1
v -0.5 2.8 0.6 1 1 1
v 0.6 2.8 0.6 1 1 1
v -0.5 -1.353584E-16 0.5 1 1 1
v 0.5 4.511946E-17 0.5 1 1 1
v -0.5 0.6 0.5 1 1 1
v 0.5 0.6 0.5 1 1 1
v -0.5 2.8 0.5 1 1 1
v 0.5 2.8 0.5 1 1 1
v -0.5 3 0.5 1 1 1
v 0.5 3 0.5 1 1 1
v -0.5 1.6 0.6 1 1 1
v 0.6 1.6 0.6 1 1 1
v -0.5 0.9 0.6 1 1 1
v 0.6 0.9 0.6 1 1 1
v 0.6 2.8 -0.5 1 1 1
v 0.5 2.8 -0.5 1 1 1
v 0.5 3 -0.5 1 1 1
v 1.5 3 -0.5000001 1 1 1
v 1.5 3 1.5 1 1 1
v -0.5 3 1.5 1 1 1
v 0.5 4.511946E-17 -0.5 1 1 1
v 0.5 0.6 -0.5 1 1 1
v 0.6 2.7 -0.5 1 1 1
v 0.6 0.9 -0.5 1 1 1
v 0.6 1.6 -0.5 1 1 1
v 0.6 2.7 -0.5 1 1 1
v 0.6 2.7 0.6 1 1 1
v -0.5 2.7 0.6 1 1 1
v 0.5 4.511946E-17 0.5 1 1 1
v 0.5 4.511946E-17 -0.5 1 1 1
v -0.5 -1.353584E-16 -0.5 1 1 1

vn 0 0.7071068 -0.7071068
vn -0.5773503 0.5773503 -0.5773503
vn 0 -0.7071068 -0.7071068
vn -0.5773503 -0.5773503 -0.5773503
vn -0.7071068 0.7071068 0
vn 0 1 0
vn 0 -1 0
vn -0.7071068 -0.7071068 0
vn 0 0 -1
vn 0 0.1601823 -0.9870875
vn 0 0.1743933 -0.9846761
vn -0.3015113 -0.904534 -0.3015113
vn 0 0.142857 -0.9897433
vn -1 0 0
vn -0.9870875 0.1601822 0
vn -0.9846761 0.1743933 0
vn -0.9897433 0.142857 0

vt 0.21875 0.355
vt 0.21875 0.375
vt 0.21875 0.205
vt 0.21875 0.2116666
vt 0.21875 0.025
vt 0.21875 0.065
vt 0.21875 0.225
vt 0.21875 0.125
vt 0.21875 0.1316667
vt 0.21875 0.085
vt 0.34375 0.085
vt 0.34375 0.105
vt 0.34375 0.225
vt 0.34375 0.025
vt 0.28125 0.125

usemtl colormap

f 3/2/3 2/1/2 1/1/1
f 2/1/2 3/2/3 4/2/4
f 7/1/6 6/1/6 5/1/5
f 6/1/6 2/1/2 5/1/5
f 2/1/2 6/1/6 1/1/1
f 1/1/1 6/1/6 8/1/6
f 10/2/7 3/2/3 9/2/7
f 10/2/7 4/2/4 3/2/3
f 4/2/4 10/2/7 11/2/8
f 12/2/7 11/2/8 10/2/7
f 2/1/2 11/2/8 5/1/5
f 11/2/8 2/1/2 4/2/4
f 15/4/9 14/3/9 13/3/9
f 14/3/9 15/4/9 16/4/9
f 19/6/10 18/5/9 17/5/9
f 18/5/9 19/6/10 20/6/11
f 23/7/9 22/4/12 21/4/3
f 22/4/12 23/7/9 24/7/9
f 25/9/9 10/8/9 9/8/9
f 10/8/9 25/9/9 26/9/9
f 27/10/10 20/6/11 19/6/10
f 20/6/11 27/10/10 28/10/13
f 22/4/12 15/4/7 21/4/3
f 22/4/12 16/4/7 15/4/7
f 16/4/7 22/4/12 29/4/7
f 30/4/8 29/4/7 22/4/12
f 22/4/12 31/7/14 30/4/8
f 31/7/14 22/4/12 24/7/14
f 31/7/6 24/7/6 32/7/6
f 24/7/6 33/7/6 32/7/6
f 33/7/6 24/7/6 34/7/6
f 34/7/6 24/7/6 23/7/6
f 18/5/14 36/6/15 35/5/14
f 36/6/15 18/5/14 20/6/16
f 14/3/14 29/4/14 37/3/14
f 29/4/14 14/3/14 16/4/14
f 36/6/15 28/10/17 38/10/15
f 28/10/17 36/6/15 20/6/16
f 10/8/14 39/9/14 12/8/14
f 39/9/14 10/8/14 26/9/14
f 8/12/9 28/11/13 27/11/10
f 28/11/13 8/12/9 6/12/9
f 28/11/17 7/12/14 38/11/15
f 7/12/14 28/11/17 6/12/14
f 39/14/14 41/13/14 40/13/14
f 41/13/14 39/14/14 26/14/14
f 42/13/9 26/14/9 25/14/9
f 26/14/9 42/13/9 41/13/9
f 44/15/6 17/15/6 43/15/6
f 17/15/6 44/15/6 45/15/6

g structure-corner-inner




usemtl colormap

f 3/2/3 2/1/2 1/1/1
f 2/1/2 3/2/3 4/2/4
f 7/1/6 6/1/6 5/1/5
f 6/1/6 2/1/2 5/1/5
f 2/1/2 6/1/6 1/1/1
f 1/1/1 6/1/6 8/1/6
f 10/2/7 3/2/3 9/2/7
f 10/2/7 4/2/4 3/2/3
f 4/2/4 10/2/7 11/2/8
f 12/2/7 11/2/8 10/2/7
f 2/1/2 11/2/8 5/1/5
f 11/2/8 2/1/2 4/2/4
f 15/4/9 14/3/9 13/3/9
f 14/3/9 15/4/9 16/4/9
f 19/6/10 18/5/9 17/5/9
f 18/5/9 19/6/10 20/6/11
f 23/7/9 22/4/12 21/4/3
f 22/4/12 23/7/9 24/7/9
f 25/9/9 10/8/9 9/8/9
f 10/8/9 25/9/9 26/9/9
f 27/10/10 20/6/11 19/6/10
f 20/6/11 27/10/10 28/10/13
f 22/4/12 15/4/7 21/4/3
f 22/4/12 16/4/7 15/4/7
f 16/4/7 22/4/12 29/4/7
f 30/4/8 29/4/7 22/4/12
f 22/4/12 31/7/14 30/4/8
f 31/7/14 22/4/12 24/7/14
f 31/7/6 24/7/6 32/7/6
f 24/7/6 33/7/6 32/7/6
f 33/7/6 24/7/6 34/7/6
f 34/7/6 24/7/6 23/7/6
f 18/5/14 36/6/15 35/5/14
f 36/6/15 18/5/14 20/6/16
f 14/3/14 29/4/14 37/3/14
f 29/4/14 14/3/14 16/4/14
f 36/6/15 28/10/17 38/10/15
f 28/10/17 36/6/15 20/6/16
f 10/8/14 39/9/14 12/8/14
f 39/9/14 10/8/14 26/9/14
f 8/12/9 28/11/13 27/11/10
f 28/11/13 8/12/9 6/12/9
f 28/11/17 7/12/14 38/11/15
f 7/12/14 28/11/17 6/12/14
f 39/14/14 41/13/14 40/13/14
f 41/13/14 39/14/14 26/14/14
f 42/13/9 26/14/9 25/14/9
f 26/14/9 42/13/9 41/13/9
f 44/15/6 17/15/6 43/15/6
f 17/15/6 44/15/6 45/15/6

